<svg width="998" height="570" viewBox="0 0 998 570" fill="none" xmlns="http://www.w3.org/2000/svg">
<path d="M799.698 497.263C799.698 497.263 797.344 497.263 799.698 485.484C802.052 473.702 802.052 455.639 806.764 450.141C811.477 444.647 827.185 438.363 838.964 432.082C850.746 425.798 857.812 417.946 862.524 417.946C867.237 417.946 865.665 425.012 871.949 417.946C878.233 410.876 879.015 417.16 885.299 417.946L891.583 418.728C891.583 418.728 890.011 425.012 891.583 428.938C893.152 432.865 895.51 433.651 901.004 432.082C906.502 430.51 913.572 416.009 915.927 414.623C918.284 413.233 921.425 428.938 922.997 434.436C924.565 439.935 935.561 454.071 939.487 461.923C943.414 469.776 914.355 505.901 908.074 507.473C901.79 509.042 882.941 505.901 879.801 507.473C876.661 509.042 869.693 493.337 869.251 491.765C868.808 490.196 864.879 492.551 864.879 492.551C864.879 492.551 855.458 485.484 849.174 486.267C842.89 487.053 831.111 493.337 827.185 494.123C823.259 494.909 813.049 494.123 813.049 494.123L807.55 498.835L799.698 497.263Z" fill="#F44A45"/>
<path d="M881.898 529.724C881.898 529.724 883.47 523.44 883.993 520.3C884.516 517.16 890.277 516.111 890.277 516.111C890.277 516.111 891.845 522.395 890.277 525.535C888.705 528.679 881.898 529.724 881.898 529.724Z" fill="#F44A45"/>
<path d="M942.628 539.672C942.628 539.672 943.674 531.297 948.386 529.725C953.098 528.153 969.852 516.634 974.041 516.111C978.231 515.588 974.041 525.535 974.041 525.535C974.041 525.535 957.81 537.054 953.624 539.672C949.435 542.289 942.042 542.426 942.628 539.672Z" fill="#167C51"/>
<path d="M983.989 516.092C983.989 516.092 988.178 508.257 988.701 504.071C989.223 499.882 992.89 496.742 992.89 496.742C992.89 496.742 994.458 505.622 994.985 506.415C995.508 507.211 997.076 508.783 997.076 511.924C997.076 515.064 985.034 520.825 983.989 520.299C982.943 519.776 982.434 519.222 983.989 516.092Z" fill="#167C51"/>
<path d="M876.661 374.229C876.661 374.229 880.064 383.13 881.373 383.653C882.681 384.176 894.723 386.793 898.127 389.411C901.53 392.028 899.699 395.695 898.127 397.267C896.555 398.835 899.435 401.453 901.79 401.193C904.148 400.93 906.765 402.239 907.551 403.81C908.337 405.379 912.786 407.214 914.095 406.165C915.403 405.119 916.975 400.93 918.807 400.407C920.638 399.884 926.659 398.835 927.182 400.407C927.708 401.975 931.371 405.21 932.943 406.474C934.512 407.737 938.441 407.568 941.319 406.474C944.199 405.379 940.01 404.333 938.441 403.288C936.869 402.239 934.512 400.667 933.203 396.481C931.894 392.291 933.729 390.983 930.326 389.151C926.922 387.316 912.263 377.369 908.337 376.323C904.407 375.274 891.057 378.418 887.13 377.109C883.204 375.801 883.204 373.443 882.159 372.92C881.11 372.397 874.829 369.79 876.661 374.229Z" fill="#167C51"/>
<path d="M938.179 388.103C938.179 388.103 942.369 388.057 944.463 389.52C946.554 390.983 948.649 391.506 946.818 392.029C944.986 392.552 939.751 394.387 938.179 392.815C936.607 391.243 935.807 387.941 938.179 388.103Z" fill="#035755"/>
<path d="M848.218 399.644C848.218 399.644 851.492 396.588 854.113 396.588C856.734 396.588 860.007 398.114 860.007 398.114C860.007 398.114 855.204 400.735 853.022 401.391C850.839 402.044 846.65 400.897 848.218 399.644Z" fill="#035755"/>
<path d="M835.556 399.083C835.556 399.083 838.177 396.15 840.577 395.715C842.98 395.276 846.689 396.585 846.689 396.585C846.689 396.585 844.071 397.869 841.124 399.083C838.177 400.297 834.517 400.111 835.556 399.083Z" fill="#035755"/>
<path d="M834.463 401.58C834.463 401.58 837.084 401.987 838.175 401.58C839.266 401.173 838.831 404.229 837.302 404.229C835.772 404.229 833.372 404.078 834.463 401.58Z" fill="#035755"/>
<path d="M825.045 398.042C825.045 398.042 827.463 396.758 829.677 396.299C831.894 395.839 835.185 395.52 834.547 396.299C833.908 397.078 832.901 398.825 831.087 399.102C829.277 399.379 823.101 398.934 825.045 398.042Z" fill="#035755"/>
<path d="M794.347 389.52C794.347 389.52 797.084 387.468 801.308 388.096C805.536 388.727 811.006 389.752 814.487 390.766C817.967 391.783 823.192 395.755 825.427 395.625C827.665 395.496 829.157 396.766 826.423 397.113C823.687 397.46 815.22 397.678 811.126 396.587C807.027 395.496 802.54 392.934 799.312 392.685C796.087 392.439 792.621 390.404 794.347 389.52Z" fill="#0C6C44"/>
<path d="M837.956 387.976C837.956 387.976 835.009 379.776 834.626 376.282C834.244 372.79 838.938 364.492 839.486 363.075C840.03 361.654 850.292 361.871 852.91 360.889C855.531 359.907 852.036 365.366 849.528 365.366C847.015 365.366 842.689 365.91 841.033 366.675C839.373 367.44 840.247 369.731 840.577 369.731C840.903 369.731 846.033 369.84 846.689 370.496C847.345 371.152 844.156 373.117 844.222 373.661C844.289 374.208 847.236 379.446 847.345 381.085C847.454 382.723 846.58 387.306 846.033 386.871C845.489 386.436 842.868 384.797 842.542 383.488C842.212 382.176 841.229 379.994 839.921 379.776C838.612 379.555 839.265 383.488 839.265 384.906C839.265 386.323 838.405 389.26 837.956 387.976Z" fill="#0C6C44"/>
<path d="M852.91 372.352C852.91 372.352 855.423 372.679 856.184 373.882C856.949 375.082 855.188 375.408 853.939 375.3C852.693 375.191 850.946 372.57 852.91 372.352Z" fill="#035755"/>
<path d="M861.645 368.422C861.645 368.422 861.536 365.149 861.645 363.402C861.754 361.654 861.971 359.581 862.845 359.581C863.719 359.581 865.792 363.184 865.466 364.002C865.14 364.819 864.361 367.766 863.547 368.422C862.736 369.079 861.68 369.956 861.645 368.422Z" fill="#0C6C44"/>
<path d="M867.104 373.225C867.104 373.225 869.396 373.246 870.378 373.836C871.36 374.425 871.908 375.011 871.36 375.32C870.817 375.625 868.413 375.446 867.761 375.32C867.104 375.19 865.701 373.124 867.104 373.225Z" fill="#035755"/>
<path d="M804.223 360.772C804.545 360.656 808.7 359.035 811.426 359.035C814.156 359.035 816.777 352.158 819.942 351.72C823.106 351.285 825.485 345.173 827.899 344.19C830.313 343.208 835.955 346.043 835.373 346.916C834.787 347.79 832.604 350.193 831.731 351.829C830.857 353.467 831.513 358.053 832.169 359.579C832.822 361.109 835.004 363.183 834.625 363.621C834.243 364.056 828.759 374.972 827.899 376.719C827.04 378.466 825.184 379.884 822.889 379.993C820.598 380.105 812.977 379.34 810.893 378.358C808.809 377.375 807.279 373.088 806.735 371.684C806.188 370.277 804.879 368.421 804.77 366.568C804.658 364.712 803.479 361.039 804.223 360.772Z" fill="#167C51"/>
<path d="M762.308 345.717C762.308 345.717 769.511 348.23 771.041 349.43C772.571 350.63 776.827 356.307 779.448 359.145C782.065 361.984 786.433 365.04 786.76 366.348C787.086 367.661 793.595 377.485 793.889 378.685C794.184 379.885 795.233 385.127 793.889 385.236C792.545 385.344 785.56 383.488 784.36 381.85C783.156 380.215 777.153 374.755 776.935 372.352C776.718 369.952 774.206 362.51 772.897 360.773C771.588 359.036 768.967 359.145 768.093 357.945C767.22 356.742 764.929 351.286 763.399 350.847C761.873 350.412 761.325 345.367 762.308 345.717Z" fill="#0C6C44"/>
<path d="M792.216 371.37C792.216 371.37 792.216 374.574 793.416 375.321C794.616 376.065 795.272 377.047 795.711 376.721C796.146 376.391 796.472 375.1 796.146 373.837C795.819 372.57 792.118 370.033 792.216 371.37Z" fill="#035755"/>
<path d="M714.601 330.98V338.513C714.601 340.148 719.373 343.562 719.608 343.983C719.84 344.408 721.152 337.201 721.152 335.892C721.152 334.583 714.601 328.689 714.601 330.98Z" fill="#0C6C44"/>
<path d="M542.177 231.831C542.177 231.831 544.388 232.403 545.124 232.648C545.861 232.894 548.809 234.122 548.482 234.452C548.152 234.778 544.798 234.943 544.468 234.943C544.142 234.943 542.096 235.596 541.686 234.943C541.275 234.287 539.721 231.585 540.047 231.831C540.377 232.077 541.177 231.568 542.177 231.831Z" fill="#035755"/>
<path d="M510.086 221.433C510.086 221.433 513.114 223.072 514.097 223.318C515.079 223.563 516.146 225.363 516.637 226.1C517.128 226.837 514.588 226.019 514.097 225.689C513.606 225.363 511.395 225.198 510.658 224.626C509.922 224.054 509.315 221.026 510.086 221.433Z" fill="#035755"/>
<path d="M497.639 211.528C497.639 211.528 499.032 212.837 499.439 213.328C499.85 213.819 498.867 216.605 499.439 217.503C500.014 218.405 498.643 220.535 498.59 220.043C498.541 219.552 496.902 217.668 496.246 216.521C495.594 215.377 495.429 214.721 495.594 213.573C495.755 212.43 496.846 210.766 497.639 211.528Z" fill="#035755"/>
<path d="M496.003 204.404C496.003 204.404 494.939 206.043 496.003 206.695C497.066 207.351 498.869 208.334 498.869 208.334C498.869 208.334 499.031 207.432 498.869 206.369C498.704 205.306 496.473 203.015 496.003 204.404Z" fill="#035755"/>
<path d="M481.676 214.392C481.676 214.392 482.413 215.582 482.904 215.725C483.395 215.866 484.542 215.15 484.949 215.059C485.36 214.964 483.314 213.982 483.314 213.736C483.314 213.49 481.676 214.392 481.676 214.392Z" fill="#035755"/>
<path d="M475.371 216.685C475.371 216.685 475.781 216.155 476.925 215.724C478.073 215.292 479.466 215.376 479.873 215.292C480.283 215.211 479.957 216.029 479.22 216.685C478.483 217.341 477.501 218.239 476.027 218.404C474.553 218.569 474.308 219.222 474.553 218.569C474.799 217.913 474.41 217.38 475.371 216.685Z" fill="#035755"/>
<path d="M455.231 171.274C455.231 171.274 455.778 169.309 456.76 167.67C457.743 166.035 457.304 161.341 457.631 160.576C457.96 159.811 460.908 155.555 461.016 155.225C461.125 154.899 453.813 148.13 453.483 147.148C453.157 146.166 453.701 143.218 454.139 142.127C454.574 141.036 457.304 135.685 457.852 135.468C458.395 135.25 460.034 135.468 460.034 135.468C460.034 135.468 460.69 137.541 461.564 138.089C462.434 138.632 464.511 139.397 465.055 139.945C465.602 140.489 466.146 147.695 466.364 148.348C466.585 149.004 470.406 156.972 470.841 157.193C471.279 157.411 475.753 160.902 475.862 161.341C475.97 161.776 474.879 168.544 474.335 168.874C473.788 169.2 468.767 170.618 468.22 170.726C467.676 170.839 466.585 171.93 465.381 172.147C464.181 172.365 455.231 171.274 455.231 171.274Z" fill="#167C51"/>
<path d="M440.381 160.903C440.381 160.903 441.799 155.774 442.673 154.683C443.546 153.588 446.167 151.623 447.15 151.188C448.132 150.753 453.5 149.658 453.381 150.205C453.262 150.753 452.827 154.353 452.827 154.9C452.827 155.444 454.135 158.065 454.027 158.83C453.918 159.595 451.297 164.068 450.314 164.724C449.332 165.381 442.346 167.016 442.129 166.363C441.911 165.707 441.581 163.524 441.581 163.524C441.581 163.524 440.816 162.651 440.381 162.321C439.946 161.995 440.381 160.903 440.381 160.903Z" fill="#167C51"/>
<path d="M453.381 134.812C453.381 134.812 451.514 136.71 451.188 137.289C450.862 137.868 450.206 140.163 450.532 140.05C450.862 139.942 451.953 139.289 452.718 138.85C453.479 138.415 453.823 136.668 454.034 136.23C454.244 135.794 453.381 134.812 453.381 134.812Z" fill="#035755"/>
<path d="M467.565 124.988C467.565 124.988 465.6 127.062 465.274 127.827C464.944 128.592 463.979 130.118 464.625 130.227C465.274 130.339 467.456 128.918 467.565 128.809C467.674 128.7 467.891 128.595 468.439 127.613C468.982 126.627 467.565 124.988 467.565 124.988Z" fill="#035755"/>
<path d="M602.82 85.7986C602.82 85.7986 603.694 84.16 604.129 83.8337C604.567 83.5074 606.532 82.7425 606.859 82.7425C607.188 82.7425 607.732 85.4723 606.859 85.7986C605.985 86.1249 603.476 87.5459 603.476 87.5459C603.476 87.5459 602.518 86.3389 602.82 85.7986Z" fill="#41294A"/>
<path d="M609.259 69.7516C609.259 69.7516 610.459 64.8395 611.658 63.4184C612.862 62.0009 620.504 51.6293 621.265 51.4117C622.03 51.1942 624.869 49.7732 626.29 49.2293C627.707 48.682 626.29 54.6853 626.29 54.6853C626.29 54.6853 626.725 54.7976 627.707 54.5766C628.69 54.359 630.654 54.0327 630.654 54.6853V58.0712C630.654 58.0712 621.921 64.4009 621.813 65.057C621.704 65.7131 621.374 71.4989 621.374 71.4989C621.813 73.0252 623.451 76.5199 623.451 77.0672C623.451 77.6111 623.342 79.7935 623.342 79.7935C623.342 79.7935 618.865 78.5935 617.883 78.1584C616.9 77.7198 613.953 73.2463 613.406 73.0252C612.862 72.8077 611.006 71.7165 610.459 71.2814C609.915 70.8428 609.259 69.7516 609.259 69.7516Z" fill="#0C6C44"/>
<path d="M630.657 48.3552C630.657 48.3552 629.457 49.5552 629.018 50.4288C628.583 51.3025 630.657 52.2849 631.639 52.941C632.622 53.5936 634.478 53.4849 635.243 52.941C636.008 52.3937 639.281 49.1938 639.281 49.1938C639.173 48.464 636.334 47.264 635.352 47.264C634.369 47.264 630.657 48.3552 630.657 48.3552Z" fill="#0C6C44"/>
<path d="M645.188 44.3159C645.188 44.3159 639.701 45.2983 639.294 45.9545C638.887 46.6071 643.157 48.3544 644.171 48.3544C645.188 48.3544 646.613 48.6842 647.83 48.3544C649.051 48.0281 651.083 45.4071 651.083 45.4071C651.083 45.4071 648.006 43.737 645.188 44.3159Z" fill="#0C6C44"/>
<path d="M618.809 407.284C618.809 407.284 616.518 412.852 615.862 413.344C615.206 413.835 609.311 419.4 607.837 420.382C606.364 421.368 604.725 422.512 604.234 423.659C603.743 424.806 601.616 428.08 601.943 428.736C602.269 429.389 603.743 431.192 603.743 432.01C603.743 432.827 601.616 436.266 601.125 438.069C600.634 439.869 599.652 447.237 600.143 448.22C600.634 449.202 602.269 454.606 604.073 455.262C605.872 455.918 614.223 443.473 615.206 441.178C616.188 438.887 615.37 437.904 616.679 436.922C617.991 435.94 619.465 423.494 619.956 422.021C620.448 420.547 622.083 419.729 622.247 419.073C622.412 418.417 620.939 407.775 620.609 407.284C620.283 406.793 620.448 405.975 618.809 407.284Z" fill="#167C51"/>
<path d="M601.291 323.774C601.291 323.774 601.782 324.266 603.747 325.413C605.712 326.557 608.168 324.431 610.298 324.592C612.424 324.757 621.269 322.136 622.904 322.136C624.543 322.136 625.199 322.655 624.543 325.753C623.887 328.851 620.613 342.279 619.304 344.735C617.992 347.191 603.151 361.272 600.01 364.384C596.87 367.496 589.828 376.173 589.667 376.991C589.502 377.812 590.158 390.583 590.81 392.218C591.467 393.857 592.775 397.625 592.94 399.751C593.105 401.881 592.284 416.783 591.631 418.747C590.975 420.712 575.748 433.319 575.092 435.122C574.435 436.922 573.453 439.87 574.109 440.526C574.765 441.178 576.73 441.999 576.074 444.455C575.418 446.912 574.334 449.038 573.892 450.024C573.453 451.006 570.179 451.006 568.871 452.641C567.558 454.28 567.888 458.21 566.906 460.992C565.923 463.778 563.138 466.725 561.664 469.181C560.19 471.637 555.769 475.237 554.622 477.693C553.478 480.153 551.675 482.118 551.022 483.1C550.366 484.083 538.25 485.065 535.794 486.047C533.338 487.03 532.191 489.156 530.391 489.321C528.588 489.486 524.331 489.321 524.331 489.321C524.331 489.321 521.219 484.9 520.893 483.262C520.563 481.626 518.763 479.005 519.254 476.384C519.746 473.763 512.704 456.41 511.721 454.28C510.739 452.15 510.413 438.887 510.248 435.94C510.086 432.993 504.143 428.245 504.739 426.281C505.335 424.316 505.5 417.109 505.827 415.47C506.157 413.835 508.939 407.684 509.756 405.765C510.577 403.846 510.739 400.899 510.739 399.26C510.739 397.625 509.265 395.822 509.265 394.022C509.265 392.218 509.43 389.271 509.43 388.78C509.43 388.289 499.441 373.061 498.458 371.752C497.476 370.443 497.311 369.131 497.476 367.005C497.641 364.875 498.02 362.089 497.42 361.272C496.82 360.454 496.876 352.921 497.42 351.447C497.967 349.974 494.529 346.044 494.529 346.044L486.669 345.062C486.669 345.062 482.74 339.984 481.922 339.823C481.101 339.658 478.154 339.167 477.336 339.658C476.519 340.149 473.242 341.132 472.259 341.132H466.2C466.2 341.132 464.4 343.914 462.761 344.244C461.126 344.57 459.161 344.897 459.161 344.897L456.54 343.262C456.54 343.262 452.119 342.441 450.481 342.77C448.846 343.097 446.716 344.405 446.06 344.405C445.407 344.405 443.113 344.405 442.621 344.244C442.13 344.079 426.902 329.834 425.594 327.869C424.281 325.904 419.369 319.027 419.208 318.206C419.043 317.389 418.387 310.185 418.387 310.185L416.096 308.217C416.096 308.217 416.587 304.126 416.913 302.814C417.24 301.505 420.352 296.428 420.843 295.61C421.334 294.793 420.025 293.154 420.19 292.337C420.352 291.516 421.99 289.059 421.99 289.059C421.99 289.059 420.352 283.656 420.517 282.021C420.682 280.383 420.19 280.053 421.173 277.762C422.155 275.47 421.499 267.937 421.99 266.955C422.482 265.972 433.779 256.474 435.418 256.148C437.053 255.822 438.365 253.366 438.365 253.366C438.365 253.366 438.2 249.271 438.527 247.306C438.857 245.341 446.225 236.099 447.533 235.233C448.846 234.37 451.302 230.931 451.954 230.931H467.512C468.986 230.931 471.933 227.819 473.077 227.819C474.224 227.819 500.258 228.149 500.915 227.819C501.571 227.493 502.062 237.973 503.044 238.134C504.027 238.299 508.121 240.591 508.448 241.247C508.774 241.903 509.532 242.72 509.725 242.885C509.921 243.047 516.269 244.194 516.697 244.685C517.125 245.176 521.219 250.906 521.219 250.906C521.219 250.906 527.605 250.906 528.096 250.58C528.588 250.253 531.044 245.011 531.535 244.359C532.026 243.703 533.5 243.703 535.138 243.703C536.777 243.703 541.033 245.503 541.689 245.503C542.342 245.503 542.671 250.089 542.998 250.58C543.324 251.071 545.289 248.289 545.78 248.289C546.271 248.289 555.769 250.58 556.917 251.071C558.064 251.562 568.601 262.113 570.506 263.165C572.414 264.214 577.548 278.579 578.204 279.726C578.856 280.874 579.021 284.312 579.021 284.312C579.021 284.312 581.804 286.277 582.295 287.916C582.786 289.551 584.042 292.88 584.698 294.193C585.354 295.501 586.39 299.214 588.028 300.522C589.667 301.831 590.319 306.908 590.975 307.891C591.631 308.873 591.793 312.641 592.449 312.803C593.105 312.968 595.723 314.115 596.705 314.933C597.687 315.75 599.326 317.88 600.308 318.697C601.291 319.518 601.291 323.774 601.291 323.774Z" fill="#167C51"/>
<path d="M278.603 567.755C278.603 567.755 274.673 565.79 272.27 564.699C269.87 563.608 267.249 561.643 267.249 561.643C267.249 561.643 265.94 559.24 265.067 559.022C264.193 558.805 260.263 561.422 260.263 561.422L263.102 567.755C263.102 567.755 268.34 569.502 269.435 569.938C270.526 570.376 278.603 567.755 278.603 567.755Z" fill="#0C6C44"/>
<path d="M266.378 553.127L264.63 547.889C264.63 547.889 270.525 541.994 271.181 539.808C271.837 537.626 272.055 531.075 272.055 531.075L269.434 527.802C269.434 527.802 276.202 517.76 276.641 516.013C277.076 514.265 276.641 510.118 276.641 510.118C276.641 510.118 277.076 509.027 278.605 508.588C280.132 508.153 282.314 503.132 283.409 501.82C284.5 500.511 295.198 496.364 295.633 495.49C296.072 494.617 296.507 491.561 296.507 491.561C296.507 491.561 293.451 484.571 294.542 483.919C295.633 483.263 300.654 483.919 300.654 483.919C300.654 483.919 311.352 473 315.938 467.544C320.524 462.084 320.085 452.916 321.397 449.639C322.706 446.365 340.39 438.071 341.92 435.45C343.446 432.829 347.597 416.019 347.597 416.019C347.597 416.019 349.341 403.138 349.997 401.173C350.653 399.209 357.639 396.37 358.074 394.184C358.512 392.002 359.168 377.809 359.168 377.809C359.168 377.809 347.597 374.753 347.158 373.227C346.723 371.697 346.723 369.732 345.632 368.641C344.537 367.55 332.313 366.02 331.439 365.802C330.566 365.585 325.106 358.603 325.106 358.603C325.106 358.603 315.313 359.483 313.769 358.603C312.226 357.725 311.899 355.761 311.899 355.761C311.899 355.761 312.008 349.427 311.899 347.901C311.791 346.371 303.058 338.947 300.654 337.421C298.254 335.891 287.991 331.961 286.244 330.435C284.5 328.905 282.753 322.793 282.097 321.919C281.444 321.046 262.23 318.863 261.574 318.425C260.918 317.99 254.806 314.934 254.806 314.934C254.806 314.934 251.75 318.425 250.659 317.772C249.568 317.116 248.694 312.748 247.82 312.748C246.947 312.748 241.487 316.025 241.487 316.025C241.487 316.025 236.905 317.116 235.814 318.207C234.719 319.298 232.537 324.319 231.445 324.758C230.354 325.193 227.516 325.849 227.516 325.849C227.516 325.849 226.207 329.561 226.642 330.435C227.081 331.309 229.263 335.456 229.263 335.456C229.263 335.456 228.824 344.189 228.172 344.845C227.516 345.498 218.565 357.518 218.347 358.603C218.126 359.69 218.347 363.402 218.347 363.402C218.347 363.402 221.839 366.459 220.965 368.641C220.091 370.823 216.818 374.1 216.818 375.409C216.818 376.718 221.403 383.269 222.495 383.925C223.586 384.577 223.803 393.311 224.46 394.184C225.116 395.058 234.501 408.159 235.593 409.033C236.684 409.907 250.441 421.475 250.876 423.878C251.315 426.278 253.497 436.759 252.406 443.527C251.315 450.295 250.003 459.028 249.129 461.649C248.255 464.267 248.912 487.448 248.476 489.396C248.038 491.34 247.603 494.399 246.947 495.052C246.291 495.708 247.164 511.865 247.603 514.483C248.038 517.104 248.912 524.746 247.603 527.146C246.291 529.549 245.417 533.914 245.638 535.226C245.855 536.535 248.038 542.647 248.255 543.521C248.476 544.394 248.694 548.107 248.694 548.107L252.624 551.163L253.497 556.183C253.497 556.183 257.862 557.275 258.953 557.492C260.045 557.713 260.266 555.31 260.266 555.31C260.266 555.31 262.23 556.401 264.63 555.748C267.034 555.092 266.378 553.127 266.378 553.127Z" fill="#167C51"/>
<path d="M212.232 273.341C212.232 273.341 222.873 272.85 224.021 273.341C225.168 273.832 235.648 280.544 236.631 281.035C237.613 281.526 243.017 283.983 243.017 283.983C243.017 283.983 241.543 285.13 240.396 285.456C239.248 285.786 231.228 285.456 231.228 285.456C231.228 285.456 229.754 281.526 228.933 281.035C228.115 280.544 223.203 277.927 222.056 277.597C220.909 277.27 213.87 279.362 213.87 279.362C213.87 279.362 210.923 277.435 210.432 276.779C209.94 276.123 212.232 273.341 212.232 273.341Z" fill="#0C6C44"/>
<path d="M229.751 289.551C229.751 289.551 233.355 290.208 234.663 290.534C235.972 290.86 237.446 292.825 237.446 292.825C237.446 292.825 234.172 292.499 233.6 292.825C233.025 293.155 229.751 292.825 229.751 292.825C229.751 292.825 228.674 289.352 229.751 289.551Z" fill="#0C6C44"/>
<path d="M243.015 289.543C243.015 289.543 244.654 290.354 245.798 289.543C246.945 288.733 248.583 287.094 249.566 287.094C250.548 287.094 254.478 286.768 255.296 287.094C256.113 287.424 258.573 288.389 257.917 289.543C257.26 290.698 254.478 293.971 253.331 293.971C252.183 293.971 249.236 294.627 248.745 293.971C248.254 293.319 246.945 292.971 246.945 292.971C246.945 292.971 244.654 292.336 243.998 292.171C243.341 292.006 241.099 289.214 243.015 289.543Z" fill="#0C6C44"/>
<path d="M298.033 175.094C298.033 175.094 309.658 164.778 310.64 165.596C311.623 166.417 310.64 171.329 310.64 171.329C310.64 171.329 312.145 172.473 313.77 172.638C315.391 172.803 316.208 177.715 316.538 178.368C316.864 179.024 316.538 184.753 315.391 184.753C314.243 184.753 311.787 182.953 311.787 182.953L304.254 181.806L301.798 180.824C301.798 180.824 297.051 180.006 297.216 179.35C297.377 178.697 298.033 175.094 298.033 175.094Z" fill="#F44A45"/>
<path d="M231.389 104.684C231.389 104.684 234.501 98.4636 235.81 97.6426C237.119 96.8251 241.704 96.3338 241.704 96.3338C241.704 96.3338 244.325 101.737 244.982 101.902C245.634 102.064 249.564 104.684 249.564 104.684L248.42 105.667H241.704C241.704 105.667 237.448 109.432 236.792 109.597C236.136 109.762 230.747 105.923 231.389 104.684Z" fill="#F44A45"/>
<path d="M239.085 110.742C239.085 110.742 238.268 113.198 239.085 113.363C239.903 113.524 242.85 112.05 243.18 110.742L243.506 109.433C243.506 109.433 239.376 109.587 239.085 110.742Z" fill="#F44A45"/>
<path d="M254.807 106.485L253.333 109.601C253.333 109.601 252.842 109.924 254.807 109.432C256.772 108.941 258.245 106.485 258.245 106.485C258.245 106.485 256.607 105.176 254.807 106.485Z" fill="#F44A45"/>
<path d="M257.263 102.967C257.263 102.967 265.778 104.683 266.922 104.683C268.069 104.683 270.36 109.104 271.673 109.433C272.981 109.76 277.732 109.935 279.367 111.402C281.006 112.872 284.609 117.945 285.427 117.784C286.244 117.619 285.427 115.163 285.427 115.163L282.971 107.805C282.971 107.805 289.03 113.714 289.683 113.374C290.339 113.033 291.321 102.967 291.321 102.967C291.321 102.967 286.735 96.8232 286.574 96.332C286.409 95.8408 287.065 94.8584 288.209 94.6934C289.356 94.532 293.777 99.1179 295.416 98.953C297.051 98.7881 303.932 91.2549 303.932 91.2549C303.932 91.2549 287.065 80.9394 288.374 80.4482C289.683 79.957 290.174 79.7956 290.174 79.1395C290.174 78.4833 291.321 75.2097 291.321 75.2097C291.321 75.2097 283.627 66.203 282.479 66.203H277.241C277.241 66.203 277.076 66.038 274.785 64.403C272.49 62.7644 258.245 61.9469 258.245 61.9469C258.245 61.9469 255.298 57.3611 254.806 57.0348C254.315 56.7049 248.421 57.0348 248.421 57.0348C248.421 57.0348 244.817 65.0556 244.326 64.403C243.835 63.7469 244.326 60.6347 244.326 60.6347L245.965 55.3962L240.452 56.3786C240.452 56.3786 233.684 63.582 233.846 64.403C234.011 65.2205 234.502 73.08 234.502 73.08C234.502 73.08 239.379 75.536 241.116 75.8659C242.852 76.1922 251.586 76.1922 253.277 76.1922C254.971 76.1922 259.719 75.536 259.719 75.536L262.175 74.0624L263.483 77.5009C263.483 77.5009 265.613 81.9218 266.269 82.0868C266.922 82.2517 272.49 84.0516 272.49 84.0516C272.49 84.0516 271.999 90.2725 271.999 90.7637C271.999 91.2549 267.087 95.6794 266.269 96.332C265.448 96.9881 260.21 100.262 259.554 100.262C258.901 100.262 256.045 102.725 257.263 102.967Z" fill="#F44A45"/>
<path d="M266.758 84.2142C266.758 84.2142 262.828 86.5054 262.828 87.3264C262.828 88.144 262.011 92.0737 262.828 91.9088C263.646 91.7474 266.267 88.6387 266.758 88.0633C267.249 87.4878 266.758 84.2142 266.758 84.2142Z" fill="#F44A45"/>
<path d="M260.207 77.8293C260.207 77.8293 258.078 77.8293 257.26 78.9766C256.442 80.1205 255.758 81.2678 255.758 81.2678C255.758 81.2678 258.078 81.5941 259.06 81.2678C260.042 80.9415 261.025 79.6222 261.025 79.6222C261.025 79.6222 261.039 77.7486 260.207 77.8293Z" fill="#F44A45"/>
<path d="M139.091 60.8003C139.091 60.8003 140.621 62.2178 140.73 62.5476C140.839 62.8739 140.73 65.8212 140.73 65.8212C140.73 65.8212 150.88 66.4774 151.319 65.8212C151.754 65.1686 152.737 61.7827 153.501 61.4564C154.266 61.1266 157.54 58.0706 157.54 58.0706C157.54 58.0706 158.196 62.074 157.54 62.0915C156.884 62.109 156.884 63.7476 156.884 63.7476L157.831 69.0983C157.831 69.0983 169.655 69.6422 169.438 69.9685C169.22 70.2983 166.599 71.172 166.599 71.172C166.599 71.172 158.631 72.2632 158.414 72.6982C158.196 73.1368 157.975 75.2105 157.975 75.2105C157.975 75.2105 165.726 78.9226 166.929 79.5753C168.129 80.2314 172.168 80.7787 172.824 80.6665C173.476 80.5577 176.862 78.3753 176.862 78.3753C176.862 78.3753 185.595 78.8139 186.578 78.8139C187.56 78.8139 190.834 79.6665 191.599 79.6209C192.364 79.5753 195.42 79.6209 195.42 79.6209C195.42 79.6209 197.167 75.2105 197.711 74.9929C198.258 74.7719 199.676 73.5719 199.676 73.5719C199.676 73.5719 199.784 72.1544 199.676 71.4983C199.567 70.8422 192.146 62.6564 191.599 61.674C191.051 60.6915 190.181 57.0881 190.181 57.0881H187.013C187.013 57.0881 185.704 59.3828 185.157 59.4916C184.613 59.6003 183.522 57.9618 183.522 57.9618L179.592 59.3828C179.592 59.3828 170.638 58.9442 170.094 58.5091C169.547 58.0706 166.929 56.1057 166.929 56.1057L164.964 56.8706L163.652 55.3969C163.652 55.3969 164.526 54.6882 164.743 54.0321C164.964 53.3759 164.635 51.8497 164.635 51.8497C164.635 51.8497 157.649 52.0672 157.322 51.8497C156.993 51.6321 155.358 50.6497 154.919 50.5374C154.484 50.4286 145.095 50.5374 145.095 50.5374C145.095 50.5374 142.256 55.232 142.147 55.9969C142.039 56.7618 139.091 60.8003 139.091 60.8003Z" fill="#F44A45"/>
<path d="M154.348 39.4034C154.348 39.4034 154.594 38.3122 155.137 37.8736C155.685 37.4385 164.2 32.9615 164.744 32.7439C165.292 32.5264 173.151 32.7439 173.151 32.7439C173.151 32.7439 171.512 35.7053 170.856 36.0245C170.204 36.3473 165.509 38.5297 165.509 38.5297C165.509 38.5297 163.955 41.5858 163.748 41.6946C163.544 41.8033 162.123 40.0595 162.123 40.0595C162.123 40.0595 154.169 39.9718 154.348 39.4034Z" fill="#F44A45"/>
<path d="M168.129 43.4443C168.129 43.4443 173.259 38.6409 173.806 38.4234C174.35 38.2058 179.375 41.5987 179.919 41.704C180.466 41.8057 180.357 43.7706 180.357 44.4267C180.357 45.0828 177.41 47.7003 177.41 48.1389C177.41 48.574 175.88 49.1213 175.88 49.1213C175.88 49.1213 175.017 47.5916 174.249 47.374C173.48 47.1565 168.456 46.7179 168.129 46.6091C167.803 46.5004 167.207 44.3004 168.129 43.4443Z" fill="#F44A45"/>
<path d="M191.817 54.2499C191.817 54.2499 192.909 53.2674 193.673 53.1587C194.438 53.0499 195.53 53.1587 195.53 53.1587C195.53 53.1587 196.294 55.6674 195.53 55.9972C194.765 56.3235 193.126 56.8708 193.126 56.8708C193.126 56.8708 192.035 55.0148 191.817 54.2499Z" fill="#F44A45"/>
<path d="M201.535 59.5988C201.535 59.5988 202.409 59.1637 203.391 58.9427C204.374 58.7252 206.886 58.9427 206.886 58.9427C206.886 58.9427 207.321 57.8515 206.886 57.3076C206.448 56.7603 205.683 56.2164 205.683 56.2164V54.9884C205.683 54.9884 211.577 54.4691 211.798 54.0305C212.016 53.5955 212.998 53.1709 213.325 53.1113C213.651 53.0481 216.272 53.1113 216.272 53.1113C216.272 53.1113 214.854 55.8866 214.416 55.8866C213.981 55.8866 212.56 56.8691 212.56 56.8691C212.56 56.8691 213.325 57.634 213.763 57.9603C214.198 58.2901 214.746 58.9427 214.854 59.5988C214.963 60.2549 214.198 63.2022 214.198 63.2022C214.198 63.2022 211.033 66.8021 210.486 66.8021C209.942 66.8021 208.086 67.567 207.648 66.8021C207.212 66.0408 206.556 63.9671 206.556 63.9671C206.556 63.9671 203.283 63.2022 202.735 62.9812C202.192 62.7636 201.535 59.5988 201.535 59.5988Z" fill="#F44A45"/>
<path d="M193.843 46.2484C193.843 46.2484 193.317 45.3256 192.58 44.9151C191.843 44.5046 189.633 43.0309 189.387 42.9502C189.142 42.8695 187.096 42.3327 187.015 41.7011C186.931 41.0661 186.77 38.1188 187.422 37.7118C188.079 37.3012 189.963 36.6451 189.963 36.6451C189.963 36.6451 190.78 38.6942 191.107 38.8556C191.436 39.0205 192.647 40.0836 193.843 40.0836C195.04 40.0836 197.005 40.9047 197.005 40.9047C197.005 40.9047 195.531 42.2134 195.201 42.2134C194.875 42.2134 194.629 44.1783 194.629 44.1783L195.868 45.08C195.868 45.08 194.142 46.687 193.843 46.2484Z" fill="#FA5652"/>
<path d="M180.366 31.9807C180.366 31.9807 179.892 30.5877 181.12 30.2614C182.348 29.9351 183.085 28.7878 183.085 28.7878C183.085 28.7878 185.134 26.4124 185.541 26.3317C185.952 26.251 190.537 26.3317 190.537 26.3317C190.537 26.3317 188.488 28.7527 188.488 29.1387C188.488 29.5246 188.818 31.4895 188.818 31.4895C188.818 31.4895 187.751 33.535 187.344 33.6192C186.934 33.6999 182.187 34.1912 182.022 34.1105C181.857 34.0263 180.366 31.9807 180.366 31.9807Z" fill="#F44A45"/>
<path d="M179.156 28.4605C179.156 28.4605 176.454 29.0324 176.454 29.6078C176.454 30.1797 174.489 31.899 174.815 31.9797C175.145 32.0639 176.966 31.9797 176.966 31.9797C176.966 31.9797 178.664 30.9165 179.156 30.5902C179.647 30.2604 180.629 28.0605 179.156 28.4605Z" fill="#FA5652"/>
<path d="M197.904 45.4539C197.904 45.4539 199.624 44.8364 200.28 44.8364H202.652C202.652 44.8364 202.325 46.6363 201.017 47.0469C199.704 47.4539 197.904 47.4539 197.904 47.4539C197.904 47.4539 196.452 45.9065 197.904 45.4539Z" fill="#F44A45"/>
<path d="M219.846 56.3784C219.846 56.3784 222.383 55.231 223.449 55.3959C224.513 55.5608 226.804 54.9889 226.804 54.9889C226.804 54.9889 228.442 53.5118 230.242 53.5118H233.842C233.842 53.5118 232.453 56.2977 231.961 56.8696C231.47 57.4415 229.098 58.1783 229.098 58.1783H225.576C225.576 58.1783 224.021 60.5537 223.53 60.7186C223.039 60.88 221.646 62.0273 221.239 62.0273H218.372C218.372 62.0273 218.59 56.8766 219.846 56.3784Z" fill="#FA5652"/>
<path d="M221.647 53.0831C221.647 53.0831 223.447 51.9568 225.005 51.9568H228.934C228.934 51.9568 227.622 54.0866 226.559 54.2515C225.496 54.4129 221.32 54.5778 221.075 54.6585C220.829 54.7427 221.647 53.0831 221.647 53.0831Z" fill="#FA5652"/>
<path d="M219.844 47.0457C219.844 47.0457 221.237 45.0001 221.564 44.8352C221.89 44.6703 223.318 44.2844 224.981 44.1896C226.641 44.0984 228.932 44.1896 228.932 44.1896C228.932 44.1896 228.686 47.8632 227.704 48.1088C226.721 48.3544 223.118 49.3369 221.809 49.6667C220.501 49.993 219.844 47.0457 219.844 47.0457Z" fill="#F44A45"/>
<path d="M206.255 43.7656C206.255 43.7656 208.031 44.1796 208.901 44.8357C209.774 45.4883 211.658 46.2252 211.904 46.1445C212.15 46.0638 214.441 46.2603 214.932 46.3269C215.423 46.3901 216.736 42.2709 216.736 42.2709C216.736 42.2709 218.125 40.4148 218.371 40.085C218.616 39.7587 217.879 38.4113 217.879 38.4113H212.806C212.806 38.4113 211.739 37.9587 211.413 38.0394C211.087 38.1201 208.901 40.3306 208.901 40.3306L206.255 43.7656Z" fill="#F44A45"/>
<path d="M201.535 40.1683L203.472 38.0315C203.472 38.0315 204.538 38.1824 205.437 38.0315C206.338 37.8771 206.258 39.7578 206.258 39.7578C206.258 39.7578 204.619 41.6595 204.374 41.4875C204.128 41.3156 202.328 41.4875 202.328 41.4875C202.328 41.4875 200.623 41.1753 201.535 40.1683Z" fill="#F44A45"/>
<path d="M198.396 32.0166C198.396 32.0166 199.01 33.371 199.726 33.6166C200.442 33.8622 201.266 34.5183 201.266 34.5183L202.652 35.0095C202.652 35.0095 202.326 32.3815 202.08 32.0166C201.835 31.6517 198.052 31.3956 198.396 32.0166Z" fill="#F44A45"/>
<path d="M212.34 24.1752C212.34 24.1752 209.722 22.7016 209.066 22.4279C208.414 22.1542 206.256 22.4279 206.256 22.4279L205.466 24.1752L202.898 26.2945C202.898 26.2945 201.053 28.0488 201.267 28.105C201.481 28.1611 204.87 28.4313 206.259 28.5962C207.649 28.7611 211.905 28.3225 211.905 28.3225L213.379 30.2067C213.379 30.2067 215.017 30.8347 215.508 30.8347C215.999 30.8347 217.856 30.561 217.856 30.561C217.856 30.561 217.308 27.6699 216.982 27.3401C216.656 27.0138 214.252 25.9752 214.252 25.9752C214.252 25.9752 212.887 24.4805 212.34 24.1752Z" fill="#F44A45"/>
<path d="M226.313 31.981C226.313 31.981 223.039 31.4897 222.601 30.8336C222.166 30.181 221.457 29.4161 221.457 29.4161L219.38 27.1776C219.38 27.1776 223.583 25.8688 224.622 25.7039C225.657 25.539 227.622 27.3951 227.787 27.6126C227.952 27.8337 228.278 29.1424 228.278 29.1424L228.934 30.3424L230.243 31.6406C230.243 31.6406 227.092 32.1178 226.313 31.981Z" fill="#F44A45"/>
<path d="M228.387 32.2536C228.387 32.2536 230.243 32.0887 230.952 32.2536C231.66 32.4185 232.316 33.3272 232.316 33.3272L232.59 34.3833C232.59 34.3833 229.86 34.5447 229.534 34.3833C229.204 34.2184 228.331 34.0009 227.896 33.7272C227.46 33.4535 228.387 32.2536 228.387 32.2536Z" fill="#FA5652"/>
<path d="M222.165 36.4557C222.165 36.4557 227.459 36.3469 228.277 36.4557C229.098 36.5644 230.571 37.2732 230.571 37.2732L232.589 38.0276C232.589 38.0276 230.298 39.1293 229.859 39.238C229.424 39.3468 226.694 39.1854 226.477 39.238C226.259 39.2942 224.389 38.5293 224.389 38.5293C224.389 38.5293 222.929 38.5854 222.165 38.4767C221.4 38.3644 220.691 37.5469 220.691 37.5469C220.691 37.5469 221.347 36.182 222.165 36.4557Z" fill="#FA5652"/>
<path d="M176.645 48.7913C176.645 48.7913 181.557 46.6861 182.757 46.9176C183.96 47.1527 189.855 46.9176 189.855 46.9176L194.493 46.1457L190.535 41.7002L187.56 39.7599L181.774 41.7002L177.859 40.5423L176.645 44.8335V48.7913Z" fill="#F44A45"/>
<path d="M222.165 38.4758C222.165 38.4758 226.119 40.4968 226.109 40.4968C226.095 40.4968 228.825 42.3318 229.807 42.1774C230.789 42.023 231.446 44.8335 231.446 44.8335L233.842 48.7913L235.375 49.6895C235.375 49.6895 240.722 48.1352 241.922 48.7913C243.126 49.4474 246.073 50.879 246.508 50.4895C246.947 50.1 252.077 49.1702 254.259 49.6895C256.441 50.2123 261.027 50.5562 261.027 50.5562L264.722 48.7913C264.722 48.7913 261.245 45.4615 260.592 44.8335C259.936 44.2054 252.077 43.4441 252.077 43.4441C252.077 43.4441 242.143 43.5528 241.814 43.3353C241.487 43.1142 239.084 39.6757 238.758 39.7599C238.431 39.8406 233.842 38.4758 233.842 38.4758H231.642H222.165Z" fill="#F44A45"/>
<path d="M259.718 55.3958C259.718 55.3958 260.957 58.0168 262.465 58.508C263.974 58.9993 268.886 59.4905 268.886 59.4905H272.981C272.981 59.4905 270.521 55.5608 268.886 55.3958C267.251 55.2309 259.718 55.3958 259.718 55.3958Z" fill="#F44A45"/>
<path d="M270.361 40.8232C270.361 40.8232 268.561 39.2092 267.74 39.2794C266.922 39.3496 265.613 38.4759 265.613 38.4759L262.466 40.8232C262.466 40.8232 259.526 39.2092 258.393 39.2794C257.263 39.3496 252.512 39.2794 252.512 39.2794L248.582 39.7601L242.688 39.6513L240.232 38.0303C240.232 38.0303 243.835 34.8023 244.326 34.455C244.818 34.1111 245.961 32.2164 246.453 32.1814C246.944 32.1463 249.238 31.7252 249.73 32.1814C250.221 32.6375 251.856 33.3252 251.856 33.3252L252.677 32.1814L251.53 30.2165L249.4 28.8481L250.547 28.413L249.4 26.571L246.453 28.413H242.688L234.828 27.5604L231.881 20.3536L228.934 19.0449C228.934 19.0449 227.951 15.9327 228.934 15.9327C229.916 15.9327 232.59 12.824 232.59 12.824C232.59 12.824 235.646 8.40303 236.302 8.40303C236.958 8.40303 242.032 9.87668 242.032 9.87668C242.032 9.87668 252.838 20.5185 253.003 21.0097C253.168 21.5009 254.312 25.7921 254.968 25.6938C255.624 25.5956 259.719 26.2938 259.719 26.2938C259.719 26.2938 258.87 22.95 258.393 22.3079C257.915 21.6658 255.761 18.88 255.761 18.88L257.424 18.0624C257.424 18.0624 259.063 17.8975 261.028 19.0449L262.992 20.1922L262.466 15.9327L258.393 14.6239L253.821 14.1327L249.428 12.6591C249.428 12.6591 246.944 11.0205 245.8 9.87668C244.653 8.72934 244.488 6.76447 244.488 6.76447L249.428 4.6347L255.761 2.99966L258.393 3.81718L262.466 2.99966C262.466 2.99966 266.754 1.52601 268.887 1.0348C271.017 0.543582 273.799 1.85232 278.055 1.0348C282.315 0.213768 283.624 -0.0142976 285.262 0.919011C286.901 1.85232 288.701 1.85232 288.701 1.85232L292.304 0.312012C292.304 0.312012 295.413 0.413765 299.834 0.312012C304.255 0.213768 306.219 0.312012 306.219 0.312012L310.149 2.99966L315.226 4.47331C315.226 4.47331 318.995 4.63471 319.486 5.12592C319.977 5.61714 316.538 8.23812 316.538 8.23812L307.04 9.22055C307.04 9.22055 305.893 15.1151 305.076 15.1151C304.255 15.1151 300.655 16.4239 300.655 16.4239C300.655 16.4239 294.104 19.0449 292.795 19.3712C291.483 19.701 281.659 20.5466 281.659 20.5466C281.659 20.5466 280.841 26.0868 280.35 26.4131C279.859 26.7429 277.894 28.8481 277.894 28.8481L278.546 30.3428L270.034 36.4093C270.034 36.4093 272.326 37.7356 271.343 39.2794L270.361 40.8232Z" fill="#F44A45"/>
<path d="M285.753 30.0144C285.753 30.0144 287.391 27.7233 288.374 27.3934C289.356 27.0671 294.268 26.0847 294.268 26.0847C294.268 26.0847 301.146 23.6286 302.454 23.3023C303.767 22.9725 307.366 20.5445 307.366 20.5445C307.366 20.5445 304.093 20.355 303.928 19.2077C303.767 18.0603 304.749 16.7516 304.749 16.7516C304.749 16.7516 306.223 13.8043 307.366 13.4745C308.514 13.1482 313.77 11.5096 313.77 11.5096L316.208 9.38339C316.208 9.38339 327.345 6.10628 329.145 5.28875C330.948 4.47123 343.555 5.77998 347.32 5.28875C351.088 4.79754 353.379 4.30631 353.379 4.30631C353.379 4.30631 355.344 2.99759 357.965 2.34146C360.586 1.68534 370.245 1.03272 374.34 1.52393C378.431 2.01514 381.379 0.26783 381.379 0.26783C381.379 0.26783 404.139 -0.332156 406.104 0.26783C408.069 0.867815 415.111 2.01514 415.602 2.01514C416.093 2.01514 419.532 5.45366 418.714 5.28875C417.897 5.12385 414.129 6.27119 414.129 6.27119C414.129 6.27119 397.427 7.08871 396.61 7.57992C395.789 8.07114 395.627 9.70968 396.119 9.70968C396.61 9.70968 416.585 8.72726 417.076 8.89217C417.567 9.05358 414.95 12.9833 415.767 12.9833C416.585 12.9833 420.514 11.0184 421.006 11.0184C421.497 11.0184 439.293 11.5096 440.384 11.5096C441.475 11.5096 439.345 14.2955 439.345 14.2955C439.345 14.2955 433.616 16.0955 431.977 16.7516C430.339 17.4077 430.177 20.5164 429.356 20.5164C428.539 20.5164 424.118 22.4813 424.118 22.4813C424.118 22.4813 422.97 27.0671 422.318 28.5408C421.662 30.0144 419.532 31.8144 419.532 31.8144C419.532 31.8144 420.844 34.6003 421.335 35.4178C421.827 36.2353 424.444 38.8423 424.444 40.8984V42.9509C424.444 42.9509 419.041 41.2983 418.55 40.8984C418.058 40.4949 418.058 42.9509 418.058 42.9509L419.862 44.4246C419.862 44.4246 420.353 55.2313 419.862 56.2138C419.371 57.1962 418.058 60.1435 418.058 60.1435L409.873 56.8699C409.873 56.8699 409.216 60.1435 409.873 60.1435C410.525 60.1435 413.802 62.7645 413.802 62.7645L414.458 66.6942C414.458 66.6942 410.034 65.0556 408.725 64.2381C407.416 63.4171 407.252 64.8907 407.252 64.8907L408.234 65.8731L413.146 68.4941C413.146 68.4941 414.62 72.0975 414.785 73.4063C414.95 74.7185 414.458 75.701 414.458 75.701H410.034L407.743 73.5712L404.304 73.2414L401.192 74.0624L398.083 74.5536L397.592 76.6834L402.504 77.5009C402.504 77.5009 407.743 76.8448 409.543 77.5009C411.346 78.157 407.087 81.4306 406.595 82.0868C406.104 82.7394 400.539 86.6691 399.883 86.6691C399.227 86.6691 397.754 86.3428 392.189 86.6691C386.62 86.9989 383.343 87.9813 383.343 87.9813L381.052 91.2549C381.052 91.2549 377.779 94.2022 377.287 94.6935C376.796 95.1847 373.028 95.8408 373.028 95.8408H367.298C367.298 95.8408 366.481 99.1144 365.66 99.6056C364.842 100.097 358.948 106.974 358.948 106.974C358.948 106.974 355.67 114.998 354.527 116.963C353.379 118.928 352.562 121.71 351.579 122.531C350.597 123.349 348.141 125.805 348.141 125.805H343.72L334.057 118.763L330.618 107.63C330.618 107.63 329.31 107.465 329.145 106.321C328.983 105.174 326.033 95.3496 326.033 95.3496L326.198 86.5919L330.127 83.5604L331.931 82.578L332.092 77.6658L330.948 76.8448L328.327 78.8097H325.706L326.854 74.0624L329.145 72.0975L333.404 71.7677L329.801 68.9853L325.05 67.838C325.05 67.838 324.068 55.3962 323.25 54.4138C322.433 53.4314 319.531 50.5542 319.531 50.5542L315.882 44.5158L310.805 42.4597L305.893 40.8984L302.293 40.8212L298.689 40.8984H293.777L290.174 38.4739L287.553 37.5476L289.848 36.2353L292.795 34.2705L295.904 33.4529L294.921 32.3056H289.683L288.044 31.1618L285.753 30.0144Z" fill="#167C51"/>
<path d="M408.726 96.1688H412.82V98.2986H415.277L420.189 96.1688L429.031 95.1864L431.652 96.7407L433.778 100.59L430.013 107.958L424.936 109.923L419.698 111.888L417.077 109.597L411.347 108.449L408.726 102.881V102.063L407.579 99.6073L404.796 98.6249L406.27 96.66L408.726 96.1688Z" fill="#167C51"/>
<path d="M100.231 161.831L103.343 163.961L106.617 167.069L107.764 170.017V171.82L103.996 169.364L100.887 166.824L100.231 163.469V161.831Z" fill="#FA5652"/>
<path d="M88.4412 131.538V135.303V138.415L85.0027 134.977V130.23C85.0027 130.23 87.1325 129.9 88.4412 131.538Z" fill="#DA5C5D"/>
<path d="M93.0249 138.416L95.6459 142.511V146.111L93.0249 143.819L90.5688 141.363L93.0249 138.416Z" fill="#FF5476"/>
<path d="M32.603 134.309L35.8766 131.046L38.9888 128.59L40.2976 130.2L38.1713 133.01L36.4521 135.467H33.4206L32.603 134.309Z" fill="#DA5C5D"/>
<path d="M861.539 253.632V245.344L863.195 241.699L866.181 244.351V249.323V253.632H861.539Z" fill="#F44A45"/>
<path d="M866.18 238.715L869.826 233.743H876.124L878.86 230.396L881.429 226.118C881.429 226.118 882.092 229.764 884.081 224.129L886.067 218.494V214.515H891.372L895.018 216.505V230.396L893.028 236.395L889.053 238.715L878.86 243.357C878.86 243.357 880.432 247.002 877.12 245.013L873.804 243.023L869.162 241.697H866.18V238.715Z" fill="#F44A45"/>
<path d="M885.075 209.876V205.568L888.057 201.259V196.287H893.362L897.008 198.273L900.653 200.263L897.008 206.231L891.706 209.876H888.72H885.075Z" fill="#F44A45"/>
<path d="M886.734 192.306L885.078 179.71V177.721L880.601 171.756V158.827H883.667L885.078 166.781L890.049 177.721L892.867 179.377V183.689V190.65V192.306H886.734Z" fill="#F44A45"/>
<path d="M800.437 296.503L804.858 292.745H809.054V296.503L804.745 299.598H803.837L800.437 296.503Z" fill="#0C6C44"/>
<path d="M834.832 283.243L836.678 277.496L838.667 274.847L840.878 273.742L843.53 278.492L839.18 283.243V285.454L834.832 286.338V283.243Z" fill="#0C6C44"/>
<path d="M836.678 297.166V305.12L834.832 309.983L838.004 313.741L841.983 316.615L843.527 311.088V303.576V297.166L839.18 296.173L836.678 297.166Z" fill="#0C6C44"/>
<path d="M845.738 312.855L846.623 316.613V317.939L849.717 320.367L850.822 316.613V312.855L849.275 311.75L845.738 312.855Z" fill="#0C6C44"/>
<path d="M852.467 320.37V322.581L850.822 326.559L848.278 327.661V330.977H849.495L852.467 329.651C852.467 329.651 855.018 327.219 856.123 325.675L857.228 324.128V321.696L852.467 320.37Z" fill="#0C6C44"/>
<path d="M839.182 316.612L844.568 318.381V320.37L841.876 321.254L839.182 320.37L838.448 318.931L839.182 316.612Z" fill="#0C6C44"/>
<path d="M829.606 330.977L832.037 325.672L834.83 323.244H837.339L838.444 324.567L837.339 328.545L834.83 330.977L834.027 334.956H829.606V330.977Z" fill="#0C6C44"/>
<path d="M844.568 338.491L850.82 334.954L852.753 330.979H855.462L856.866 332.301L857.23 334.733V338.491L856.866 342.912L854.304 343.778L850.82 342.042V340.259L845.74 342.042H844.568V338.491Z" fill="#0C6C44"/>
<path d="M974.847 99.6626C973.538 98.3539 947.339 86.7822 946.465 86.5612C945.592 86.3436 932.273 83.5051 931.62 84.3788C930.964 85.2524 930.526 88.9646 929.655 88.7471C928.782 88.5296 927.252 87.8734 927.252 87.8734L925.505 85.9086C925.505 85.9086 913.059 86.3436 911.751 86.3436C910.442 86.3436 907.821 88.9646 906.73 88.9646C905.638 88.9646 899.088 80.8876 897.997 80.6666C896.905 80.449 878.292 79.7964 878.102 79.5754C877.909 79.3579 877.257 76.7369 875.727 76.3018C874.197 75.8632 859.569 70.4072 858.043 70.4072H843.194C841.668 70.4072 839.703 74.9931 839.703 74.9931C839.703 74.9931 825.511 75.4281 824.202 75.6457C822.893 75.8632 822.237 76.7369 821.146 76.7369C820.055 76.7369 813.065 66.2599 811.539 65.8213C810.009 65.3863 802.367 64.5126 800.403 64.7302C798.438 64.9477 796.694 66.695 795.164 66.4775C793.634 66.2599 789.052 66.9126 787.74 66.0389C786.431 65.1652 784.684 65.3161 783.375 64.6951C782.066 64.074 771.586 63.8565 770.495 63.639C769.403 63.4214 767.656 61.2355 766.344 61.4566C765.035 61.6741 759.576 64.7302 758.702 64.5126C757.832 64.2951 761.761 61.439 761.761 61.439C761.761 61.439 768.53 56.8707 768.965 55.1234C769.403 53.3761 766.344 51.1937 765.253 49.6674C764.161 48.1376 761.761 46.8289 760.449 46.6078C759.141 46.3903 752.59 45.7341 750.407 44.864C748.225 43.9903 746.695 41.5869 744.948 41.1518C743.201 40.7132 741.018 40.9343 739.053 41.1518C737.088 41.3694 732.724 46.3903 731.632 46.6078C730.538 46.8289 717.222 47.9201 716.349 47.9201C715.475 47.9201 709.798 52.2849 708.051 52.5024C706.307 52.7234 702.156 54.2497 700.847 55.562C699.539 56.8707 698.226 61.6741 696.479 61.6741C694.735 61.6741 689.493 61.2355 688.402 62.5477C687.311 63.8565 684.69 64.7302 686.002 65.6038C687.311 66.4775 694.735 71.7159 693.64 72.1545C692.549 72.5896 688.777 70.8423 685.641 69.9686C682.507 69.0984 679.886 68.8774 679.234 69.316C678.578 69.7511 677.486 73.0282 676.174 72.8071C674.865 72.5896 673.992 67.1336 673.118 66.9126C672.244 66.695 669.627 67.7862 669.627 70.6248C669.627 73.4633 671.592 78.0491 672.901 81.1052C674.209 84.1612 678.143 86.3436 680.107 86.9997C682.072 87.6559 683.381 90.0558 682.29 90.4944C681.199 90.9295 677.269 90.2733 676.613 90.7119C675.957 91.147 673.118 97.2626 671.153 98.1328C669.188 99.0065 665.476 99.6626 665.915 99.0065C666.35 98.3539 669.627 92.8943 669.409 89.3997C669.188 85.9085 667.153 81.1052 665.88 78.4842C664.606 75.8632 666.28 72.3721 665.88 69.7511C665.476 67.1336 658.49 67.1336 656.308 68.0038C654.126 68.8774 651.722 72.3721 651.287 74.5545C650.849 76.7369 653.908 82.1964 656.091 84.3788C658.273 86.5612 656.964 88.7471 655.873 88.7471C654.778 88.7471 648.01 83.07 644.08 81.1052C640.151 79.1403 634.912 79.3579 632.947 79.5754C630.982 79.7964 630.109 83.07 631.639 82.8525C633.165 82.6314 636.877 85.9086 636.877 86.5612C636.877 87.2173 622.905 87.6559 620.941 88.091C618.976 88.5295 616.572 87.2173 615.916 86.9997C615.264 86.7822 599.324 97.4802 598.45 97.2626C597.58 97.0416 597.359 91.3646 597.141 90.4944C596.924 89.6208 593.429 88.3085 592.776 88.091C592.12 87.8734 591.903 91.5856 591.685 93.1119C591.464 94.6417 587.752 98.1328 587.752 98.1328L581.64 103.375C581.64 103.375 583.387 106.866 581.64 106.866C579.892 106.866 575.089 104.031 573.563 104.031C572.033 104.031 573.998 108.694 573.563 108.982C573.124 109.269 570.942 108.982 570.942 108.982C570.942 108.982 563.739 98.3539 564.612 97.4802C565.486 96.6065 571.159 96.8241 572.251 98.3539C573.345 99.8801 572.033 100.319 573.345 99.8801C574.654 99.445 579.675 98.7889 579.675 98.7889C579.675 98.7889 582.731 95.5153 582.731 94.6417C582.731 93.768 561.335 80.014 560.026 79.5754C558.718 79.1403 559.588 80.014 556.753 80.014C553.914 80.014 552.82 79.7964 552.82 79.7964C552.82 79.7964 551.949 80.014 552.82 78.0491C553.693 76.0842 547.581 73.2457 546.925 73.0282C546.272 72.8071 541.686 74.9931 541.03 74.9931C540.378 74.9931 537.101 74.3369 537.101 74.3369L529.213 78.2667C529.213 78.2667 524.003 79.1403 523.129 80.014C522.255 80.8876 518.108 81.1052 517.452 81.7613C516.796 82.4139 510.249 87.4348 511.775 88.091C513.305 88.7471 512.866 92.4593 512.866 92.4593C512.866 92.4593 498.895 108.178 496.93 109.925C494.965 111.669 487.323 118.438 487.105 119.529C486.888 120.623 484.923 123.68 486.014 124.332C487.105 124.988 489.07 126.297 489.07 127.171C489.07 128.044 489.944 136.125 490.818 136.342C491.691 136.56 494.965 136.777 494.965 136.777C494.965 136.777 499.551 133.939 500.203 133.939C500.859 133.939 504.031 141.581 504.737 142.672C505.445 143.763 505.663 148.132 505.663 148.132L509.157 149.658C509.157 149.658 515.052 148.349 516.578 147.475C518.108 146.602 517.891 139.833 517.891 138.742C517.891 137.651 524.22 131.757 524.438 130.665C524.659 129.574 521.82 122.367 521.599 121.276C521.382 120.185 522.473 115.164 523.564 114.073C524.659 112.982 526.841 112.982 527.932 111.669C529.024 110.361 533.609 104.031 534.701 103.157C535.792 102.284 539.939 101.845 539.939 101.845C539.939 101.845 541.904 104.684 540.595 105.34C539.287 105.996 533.388 110.143 532.953 111.234C532.518 112.325 528.806 123.023 530.115 124.332C531.424 125.644 535.357 128.7 537.539 129.136C539.722 129.574 546.707 127.171 548.89 127.609C551.076 128.044 553.693 130.009 553.693 130.009C553.693 130.009 545.616 131.1 544.086 131.757C542.56 132.413 539.939 133.065 539.939 133.065C539.939 133.065 539.287 141.146 538.192 141.146C537.101 141.146 532.736 142.89 532.736 142.89C532.736 142.89 528.806 152.279 527.715 152.717C526.624 153.152 503.698 153.809 501.733 153.152L500.642 141.798C500.642 141.798 497.365 143.763 496.712 144.637C496.056 145.511 495.621 154.026 494.747 154.682C493.874 155.335 486.011 159.921 485.684 160.794C485.358 161.668 475.095 174.987 473.351 174.766C471.604 174.548 466.362 173.675 465.927 174.987C465.492 176.296 465.053 178.478 463.745 179.134C462.432 179.787 456.32 181.099 456.32 181.099C456.32 181.099 457.629 182.846 458.503 183.064C459.376 183.281 461.341 183.064 461.341 183.064C461.341 183.064 465.053 189.176 465.927 189.832C466.801 190.488 465.709 198.348 465.492 199C465.271 199.657 460.906 199 459.597 199C458.285 199 454.138 197.909 454.138 197.909C454.138 197.909 445.622 200.53 444.531 200.748C443.44 200.965 441.475 202.93 442.349 204.021C443.222 205.116 444.531 207.081 444.531 207.081L443.222 211.884L440.384 217.996C440.384 217.996 444.314 224.108 445.622 225.417C446.931 226.729 462.215 224.982 463.088 225.417C463.962 225.856 469.857 219.744 470.513 218.87C471.165 217.996 470.513 211.663 470.513 211.663C470.513 211.663 479.028 207.081 480.12 205.551C481.211 204.021 481.211 200.53 481.211 200.53C481.211 200.53 491.253 200.965 492.561 200.748C493.874 200.53 499.33 199.874 499.33 199.874C499.33 199.874 505.88 207.516 507.41 209.046C508.936 210.572 518.108 215.593 518.108 215.593C518.108 215.593 520.291 221.27 520.726 220.396C521.164 219.523 521.164 214.502 521.164 214.502C521.164 214.502 521.599 214.719 522.912 214.284C524.22 213.849 511.122 205.334 510.249 202.93C509.375 200.53 507.845 196.6 507.845 196.6C507.845 196.6 523.129 204.021 524.438 206.207C525.75 208.39 525.529 216.249 526.624 216.684C527.715 217.123 530.771 220.835 531.206 221.926C531.645 223.017 533.388 227.386 534.483 227.603C535.574 227.821 537.974 229.129 537.974 229.129C537.974 229.129 542.995 223.891 542.995 223.235C542.995 222.582 539.504 218.431 539.065 217.34C538.63 216.249 546.272 212.975 548.02 212.754C549.763 212.537 553.258 214.067 553.258 214.067C553.258 214.067 547.364 218.653 548.672 219.961C549.984 221.27 552.602 230.221 554.349 230.442C556.097 230.659 573.124 229.129 574.436 230.442C575.745 231.75 576.401 233.389 576.401 233.389C576.401 233.389 575.419 249.434 571.489 249.434C567.559 249.434 559.7 249.764 561.335 250.417C562.974 251.073 567.524 258.066 573.563 261.223C577.275 263.167 586.812 279.637 587.141 282.584C587.468 285.531 600.962 315.587 603.583 316.899C606.201 318.208 634.038 305.763 636.986 304.454C639.933 303.145 650.413 288.079 650.413 286.44C650.413 284.805 643.21 272.36 642.554 271.377C641.898 270.395 630.765 276.616 628.8 275.963C626.835 275.307 616.681 256.967 617.993 256.311C619.302 255.659 624.54 258.606 624.54 258.606C624.54 258.606 629.453 267.774 631.091 268.1C632.73 268.43 642.554 266.135 643.863 266.465C645.175 266.792 645.828 272.36 647.792 272.36C648.922 272.36 655.676 272.69 661.466 273.125L673.532 259.364V247.666V241.698V231.754L684.139 226.4L692.097 218.852L696.514 211.333V192.309V181.573L705.356 176.857L714.601 175.569L717.875 165.552V150.054L724.801 140.058H730.987H738.945V144.447L748.667 153.773H753.972L761.811 158.829H773.417L784.024 165.552L792.213 166.513L800.438 171.724H810.894L819.697 166.513L824.669 158.829L829.647 153.773V150.054L824.669 137.434L815.848 135.37L814.964 127.613L819.697 121.466H824.669L829.647 111.89H839.181L844.566 117.788H852.026L863.548 127.613L871.576 130.234H881.895L884.436 138.086C889.625 137.602 896.14 137.241 896.688 137.651C897.558 138.307 899.088 140.925 901.27 141.146C903.456 141.363 908.912 137.293 910.442 137.472C911.968 137.651 908.256 133.939 908.256 133.939C908.256 133.939 911.968 128.7 913.498 128.7C915.024 128.7 917.21 130.665 918.736 131.321C920.266 131.974 927.908 125.427 927.908 125.427C927.908 125.427 929.217 126.953 929.217 127.609C929.217 128.262 920.919 141.146 919.175 142.237C917.428 143.328 914.807 145.949 914.807 145.949C914.807 145.949 913.059 155.991 913.933 157.738C914.807 159.486 922.449 178.696 923.54 176.952C924.631 175.205 930.747 164.507 931.182 162.977C931.62 161.45 929.873 159.486 931.182 157.521C932.49 155.556 935.55 153.591 935.55 152.279C935.55 150.97 933.803 146.602 933.585 144.858C933.364 143.111 930.964 141.798 930.964 141.798C930.964 141.798 931.62 137.216 933.803 136.777C935.985 136.342 936.424 134.595 940.353 134.377C944.283 134.16 946.248 133.939 946.248 133.939C946.248 133.939 949.522 135.469 950.395 135.469C951.269 135.469 955.851 126.297 957.163 126.518C958.472 126.736 961.749 127.392 962.619 126.953C963.493 126.518 966.332 125.427 966.332 125.427C966.332 125.427 969.826 124.553 969.826 123.241C969.826 121.932 966.549 115.381 965.458 114.946C964.367 114.508 962.841 112.982 962.841 112.982C962.841 112.982 964.584 111.017 965.458 110.578C966.332 110.143 966.77 106.866 966.77 106.866C966.77 106.866 968.297 105.34 969.826 106.866C971.353 108.396 982.707 116.255 985.763 116.694L988.819 117.129V111.669C988.819 110.578 990.566 107.522 990.566 107.522C990.566 107.522 976.156 100.971 974.847 99.6626Z" fill="#167C51"/>
<path d="M871.577 130.234L863.549 127.609L852.026 117.789H844.567L839.181 111.887H829.648L824.669 121.466H819.697L814.964 127.609L815.848 135.371L824.669 137.434L829.648 150.054V153.774L824.669 158.826L819.697 166.514L810.894 171.721H800.435L792.214 166.514L784.024 165.552L773.418 158.826H761.811L753.973 153.774H748.667L738.945 144.448V140.055H730.987H724.801L717.875 150.054V165.552L714.602 175.566L705.353 176.857L696.514 181.573V192.306V211.334L692.093 218.853L684.139 226.4L673.533 231.754V241.698V247.666V259.36L661.466 273.121C665.75 273.444 669.505 273.823 670.062 274.167C671.371 274.978 681.525 284.802 681.525 284.802L678.904 286.767C678.904 286.767 682.508 291.026 684.146 291.353C685.781 291.682 692.006 289.061 692.006 289.061C692.006 289.061 693.971 303.472 694.297 304.78C694.623 306.089 703.795 334.583 706.742 334.253C709.689 333.927 712.637 328.359 714.275 324.429C715.91 320.499 714.928 311.657 716.567 309.366C718.205 307.071 723.117 307.071 723.77 305.107C724.426 303.142 727.373 296.265 727.373 296.265C727.373 296.265 735.563 295.282 735.889 293.974C736.215 292.665 737.527 288.735 737.527 288.735L746.696 284.802C746.696 284.802 748.987 292.335 750.625 292.665C752.264 292.991 758.815 299.212 758.815 299.212C758.815 299.212 757.176 308.384 758.158 308.71C759.141 309.036 767.983 308.054 767.983 308.054C767.983 308.054 770.712 319.408 768.856 321.264C768.856 321.264 770.495 334.692 771.695 337.53C772.895 340.369 778.572 345.607 779.446 347.898C780.319 350.193 779.446 354.667 781.193 356.632C782.937 358.596 788.614 362.638 790.035 363.291C791.452 363.947 790.796 359.144 791.017 357.835C791.235 356.523 789.379 357.07 789.379 353.684C789.379 350.302 789.27 349.755 788.723 348.228C788.179 346.699 779.435 338.183 778.182 337.201C776.933 336.218 775.186 334.036 774.86 332.836C774.533 331.636 774.642 325.85 774.642 324.65C774.642 323.446 778.014 319.19 778.182 319.19C778.354 319.19 784.575 326.615 785.884 327.597C787.196 328.58 790.144 335.892 791.561 336.33C792.982 336.765 802.041 326.394 803.133 324.32C804.224 322.247 805.206 312.97 803.133 310.892C801.059 308.819 795.929 305.98 795.382 303.58C794.838 301.177 793.091 297.03 794.182 295.391C795.273 293.756 799.312 290.7 800.185 290.479C801.059 290.261 804.445 292.665 805.536 292.553C806.627 292.444 809.136 291.57 810.448 291.353C811.757 291.135 823.329 285.458 825.729 282.619C828.132 279.781 837.956 264.718 837.63 262.315C837.63 262.315 834.732 257.95 835.416 256.638C836.1 255.329 837.637 252.055 837.637 252.055L828.567 239.284C828.567 239.284 836.697 232.077 835.416 230.768C834.135 229.459 819.016 228.803 819.697 227.165C820.381 225.526 826.932 216.684 827.915 216.684C828.897 216.684 830.532 223.561 830.532 223.561C830.532 223.561 838.721 221.596 840.03 222.579C841.342 223.561 841.342 228.803 842.321 230.768C843.307 232.733 847.237 242.231 848.872 241.901C850.51 241.575 851.819 236.989 855.423 236.663C859.026 236.336 855.423 229.459 855.423 226.509C855.423 223.561 850.51 222.579 851.167 218.979C851.819 215.376 854.766 208.825 859.352 208.172C863.938 207.516 869.833 202.604 872.78 198.674C875.727 194.745 879.331 180.99 877.692 175.749C876.054 170.51 875.727 162.977 875.727 162.977L868.742 161.23C868.742 161.23 863.721 161.886 863.721 161.23C863.721 160.577 860.443 156.865 860.443 156.865C860.443 156.865 876.548 139.616 878.103 138.96C878.685 138.714 881.324 138.378 884.436 138.086L881.896 130.234H871.577Z" fill="#F44A45"/>
<path d="M914.335 148.973L922.328 151.475L924.833 156.478L931.18 157.517V162.976L924.833 178.944L914.335 163.959L913.935 157.738L914.335 148.973Z" fill="#F44A45"/>
<path d="M804.228 360.772L807.719 362.674H812.136L816.006 363.354L819.701 360.772L823.631 355.6L827.385 351.733L827.904 349.193L831.143 346.874L833.153 345.032C833.153 345.032 829.764 343.113 828.602 343.776C827.437 344.439 825.508 345.699 825.508 345.699L818.69 352.221L816.115 353.495L811.915 358.474L808.491 359.028C808.491 359.028 804.463 360.298 804.228 360.772Z" fill="#F44A45"/>
<path d="M184.419 237.621H173.812L159.226 241.021L154.349 237.621L145.967 235.341L135.36 237.621L114.757 236.221C115.287 238.941 115.799 242.404 117.094 243.376C119.059 244.849 119.88 252.382 120.206 253.365C120.533 254.347 121.189 256.638 122.827 257.294C124.462 257.951 126.592 264.01 127.083 265.645C127.575 267.284 132.322 271.049 133.469 271.378C134.616 271.705 135.108 268.757 135.108 268.757C135.108 268.757 131.178 263.519 130.848 262.207C130.522 260.898 129.048 256.803 128.883 256.312C128.722 255.821 125.283 244.523 125.936 244.523C126.592 244.523 127.41 244.849 127.41 244.849C127.41 244.849 131.995 255.656 132.652 257.13C133.304 258.603 141.167 267.449 142.15 268.431C143.132 269.413 145.258 282.676 145.75 283.168C146.241 283.659 155.904 292.336 156.886 293.157C157.868 293.974 164.089 297.578 165.563 298.395C167.037 299.213 170.314 299.378 170.805 299.378C171.296 299.378 181.612 299.543 181.938 300.195C182.264 300.851 187.668 306.42 187.998 307.237C188.324 308.055 196.839 308.055 197.987 308.384C199.131 308.711 201.095 313.132 201.425 314.44C201.752 315.753 211.576 326.559 212.723 327.707C213.867 328.851 219.6 329.015 220.418 328.851C221.235 328.689 223.2 327.707 223.856 327.051C224.512 326.394 224.512 324.103 224.512 324.103C224.512 324.103 222.874 322.303 222.056 322.303H218.127C218.127 322.303 212.232 318.37 211.741 317.226C211.25 316.079 212.885 300.686 212.558 300.034C212.232 299.378 200.604 297.413 200.113 296.43C199.622 295.448 200.113 292.336 200.113 292.336C200.113 292.336 203.716 284.15 203.716 283.168C203.716 282.185 199.895 279.399 199.895 279.399C199.895 279.399 186.359 287.259 185.541 287.75C184.72 288.241 172.605 286.932 171.949 285.95C171.296 284.967 172.44 262.372 172.77 260.407C173.096 258.442 178.991 252.217 181.612 251.565C184.229 250.909 197.987 251.235 199.131 250.744C200.278 250.253 204.534 248.126 204.534 248.126L196.352 241.021L184.419 237.621Z" fill="#167C51"/>
<path d="M305.239 152.66L297.544 143.001C297.544 143.001 295.25 130.556 294.758 129.9C294.267 129.244 290.502 125.314 290.502 125.314C290.502 125.314 287.717 128.426 287.225 128.917L285.261 130.882L279.04 130.226C279.04 130.226 277.401 119.749 276.748 119.258C276.092 118.767 266.268 112.051 265.121 111.56C263.973 111.069 256.444 112.707 255.788 112.707C255.131 112.707 252.514 126.461 252.514 126.461C252.514 126.461 250.711 128.917 250.384 129.408C250.058 129.9 250.219 133.338 251.202 133.664C252.184 133.994 252.184 138.577 252.184 138.577L249.728 144.636C249.728 144.636 245.472 147.583 244.816 148.075C244.163 148.566 242.851 157.899 242.851 158.555C242.851 159.211 241.528 163.467 240.223 162.811C238.921 162.158 238.269 157.738 238.269 157.738L235.157 156.099C235.157 156.099 234.174 150.531 233.683 149.057C233.192 147.583 225.167 143.162 225.167 143.162C225.167 143.162 216.49 136.942 215.834 136.777C215.178 136.612 209.283 134.486 209.283 134.486L208.466 131.7C208.466 131.7 206.01 130.882 205.68 130.391C205.354 129.9 205.189 125.644 206.171 124.496C207.154 123.349 218.455 108.286 219.438 107.795C220.42 107.304 224.676 106.813 224.676 106.813C224.676 106.813 234.992 95.8409 236.3 95.0234C237.613 94.2024 242.69 93.0585 242.69 93.0585C242.69 93.0585 249.402 90.9288 250.058 90.4376C250.711 89.9463 251.858 79.4659 251.202 78.6484C250.549 77.8274 244.163 77.0098 243.507 77.3361C242.851 77.6659 242.69 81.1045 240.886 81.7606C239.086 82.4132 234.174 86.999 234.174 86.999C234.174 86.999 233.518 79.4659 233.027 79.4659C232.536 79.4659 228.441 79.301 228.441 79.301C228.441 79.301 227.132 75.7923 226.641 76.1537C226.15 76.5186 224.35 76.1291 224.35 76.1291C224.35 76.1291 224.185 69.6416 223.529 67.8416C222.876 66.0382 219.273 64.4031 219.273 64.4031C219.273 64.4031 214.196 71.2801 214.034 71.7714C213.869 72.2626 215.669 74.3888 215.669 74.3888L220.42 76.1923C220.42 76.1923 218.617 78.9747 218.455 79.7922C218.29 80.6133 215.017 81.5957 215.017 81.5957L213.543 78.8098L208.14 75.3713C208.14 75.3713 203.224 78.3186 203.554 79.301C203.88 80.2834 205.68 80.9396 205.68 80.9396L204.045 82.743C204.045 82.743 195.694 83.3956 193.73 83.3956C191.765 83.3956 182.593 80.9396 181.611 81.1045C180.628 81.2659 179.319 84.543 179.319 84.543C179.319 84.543 173.586 84.8693 172.934 84.7079C172.277 84.543 159.997 83.3956 160.162 82.9044C160.323 82.4132 161.962 80.7746 161.962 80.7746L161.306 79.301L148.86 77.8273C148.86 77.8273 147.387 76.1923 145.752 75.2099C144.113 74.2274 133.307 74.2274 133.307 74.2274C133.307 74.2274 131.998 72.424 130.686 72.0977C129.377 71.7714 115.293 72.7538 115.293 72.7538C115.293 72.7538 108.907 77.0098 107.925 77.1747C106.942 77.3361 97.2829 76.3537 97.2829 76.3537C97.2829 76.3537 91.3883 72.2626 89.7497 72.0977C88.1112 71.9328 76.322 70.789 75.3396 70.4591C74.3571 70.1328 70.7572 68.6592 70.7572 68.6592C70.7572 68.6592 67.9714 69.6416 67.4801 69.6416C66.9889 69.6416 65.0241 68.003 63.7153 67.1855C62.4031 66.368 47.014 65.2207 45.7017 65.8768C44.393 66.5294 40.7896 68.3329 40.7896 68.3329C40.7896 68.3329 32.7652 71.1152 32.1126 71.1152C31.4565 71.1152 30.1478 75.3713 28.6741 75.8625C27.2005 76.3537 21.3059 76.6835 21.141 77.3361C20.9761 77.9923 20.1585 80.4483 20.1585 80.4483C20.1585 80.4483 24.9058 83.2342 25.2356 83.8869C25.5619 84.543 24.7444 86.9991 25.8882 87.4903C27.0356 87.9815 23.1058 88.9639 22.2883 88.799C21.4673 88.6376 16.5551 90.4376 16.5551 90.4376C16.5551 90.4376 13.4464 93.8761 13.2815 94.5322C13.1166 95.1848 13.2815 96.497 13.2815 96.497C13.2815 96.497 23.762 96.3321 23.762 97.3146C23.762 98.297 23.2707 101.079 23.2707 101.079C23.2707 101.079 16.5551 103.535 16.2288 104.518C15.9025 105.5 9.5132 110.416 9.1869 111.234C8.86059 112.051 9.02199 120.567 10.0044 121.223C10.9904 121.875 12.2991 122.696 12.2991 122.696C12.2991 122.696 12.2991 125.479 12.464 126.135C12.6254 126.787 23.762 127.609 23.762 127.609C23.762 127.609 24.2532 132.029 23.2707 132.356C22.2883 132.682 14.9201 135.794 12.7903 136.285C10.6605 136.777 0.509928 145.292 0.509928 145.292C0.509928 145.292 -0.63741 146.275 0.509928 146.44C1.65376 146.601 10.6605 141.527 11.1517 141.527C11.643 141.527 18.0288 141.198 20.3234 141.036C22.6146 140.871 29.4916 135.142 30.4741 134.156C31.4565 133.173 33.7477 129.082 33.7477 129.082C33.7477 129.082 38.0072 127.444 39.151 126.952C40.2984 126.461 41.6071 123.679 41.6071 123.679L48.3227 114.672C48.3227 114.672 51.5963 115.819 51.1051 116.311C50.6139 116.802 43.9018 122.531 44.393 122.858C44.8842 123.188 42.9194 125.97 43.9018 125.644C44.8842 125.314 51.27 121.875 52.5788 121.875C53.891 121.875 55.691 121.549 55.691 121.549C55.691 121.549 57.6558 118.275 58.312 118.275C58.9646 118.275 61.5856 121.223 62.2417 121.384C62.8943 121.549 77.1431 121.058 78.6167 121.549C80.0903 122.04 83.0376 125.152 83.0376 125.152C83.0376 125.152 88.2761 125.479 89.5848 125.479C90.8971 125.479 92.8619 128.1 92.8619 128.1C92.8619 128.1 97.6092 140.054 98.7565 141.689C99.9039 143.327 101.539 159.373 102.03 160.029C102.521 160.685 104.816 161.176 105.798 161.994C106.781 162.811 107.925 167.071 108.581 167.397C109.237 167.727 111.363 171.165 111.363 171.165C111.363 171.165 107.925 174.604 107.272 175.095C106.616 175.586 107.107 190.975 106.29 192.123C105.469 193.27 102.36 196.217 102.36 197.2C102.36 198.182 101.539 210.627 102.03 213.575C102.521 216.522 108.09 231.585 109.728 231.75C111.363 231.915 112.675 231.423 113.819 233.058C114.209 233.616 114.486 234.82 114.76 236.22L135.359 237.62L145.966 235.339L154.348 237.62L159.225 241.02L173.811 237.62H184.421L196.354 241.02L204.536 248.125C204.536 248.125 213.052 248.125 214.196 248.942C215.343 249.76 218.617 261.061 219.438 262.044C220.255 263.026 224.185 266.3 224.511 265.644C224.841 264.991 226.641 261.061 226.641 261.061C226.641 261.061 225.002 250.09 225.002 249.433C225.002 248.777 225.659 244.686 225.332 243.704C225.002 242.721 235.648 234.532 237.121 233.55C238.595 232.567 240.725 229.95 240.725 229.95C240.725 229.95 243.342 220.287 244.163 219.796C244.981 219.304 252.349 209.315 253.331 208.989C254.314 208.663 259.391 205.877 260.373 205.224C261.356 204.568 261.682 201.786 262.338 200.803C262.991 199.821 268.559 195.726 268.559 195.726C268.559 195.726 273.801 196.217 274.619 195.726C275.436 195.235 279.04 195.726 279.04 195.726L288.208 189.993C288.208 189.993 280.84 183.446 279.857 183.607C278.875 183.772 278.713 177.712 279.205 176.895C279.696 176.077 281.169 173.456 281.169 173.456C281.169 173.456 281.004 170.674 281.661 170.344C282.313 170.018 289.681 169.2 289.681 169.2C289.681 169.2 293.615 170.344 294.597 170.344C295.58 170.344 308.677 160.846 308.677 160.846C308.677 160.846 308.351 155.281 308.677 154.79C309.004 154.299 305.239 152.66 305.239 152.66Z" fill="#F44A45"/>
<path d="M473.674 175.083L479.853 176.855L483.084 175.971C483.084 175.971 485.624 176.666 487.105 175.971L488.586 175.273V171.199L486.259 168.529L481.088 166.585C481.088 166.585 475.053 173.536 473.674 175.083Z" fill="#F44A45"/>
</svg>
