<svg width="695" height="825" viewBox="0 0 695 825" fill="none" xmlns="http://www.w3.org/2000/svg">
<g filter="url(#filter0_d)">
<path d="M95.0762 88H599.076V723H95.0762V88Z" fill="url(#paint0_linear)"/>
</g>
<rect x="150.076" y="407" width="49" height="35" rx="2.64865" fill="white"/>
<mask id="mask0" mask-type="alpha" maskUnits="userSpaceOnUse" x="150" y="407" width="50" height="35">
<rect x="150.076" y="407" width="49" height="35" rx="2.64865" fill="white"/>
</mask>
<g mask="url(#mask0)">
<rect x="150.076" y="407" width="49" height="35" fill="#F1361D"/>
<path fill-rule="evenodd" clip-rule="evenodd" d="M167.71 417.425L169.405 417.714L170.676 418.871L170.965 417.177L172.122 415.906L170.427 415.617L169.156 414.459L168.867 416.154L167.71 417.425ZM172.246 423.353L173.714 422.459L175.433 422.498L174.539 421.03L174.579 419.311L173.11 420.205L171.392 420.165L172.285 421.634L172.246 423.353ZM170.257 432.948L168.82 433.892L168.8 432.173L167.855 430.737L169.574 430.716L171.011 429.772L171.031 431.491L171.976 432.928L170.257 432.948ZM171.503 428.503L173.212 428.314L174.752 429.076L174.563 427.367L175.325 425.826L173.617 426.016L172.076 425.253L172.265 426.962L171.503 428.503Z" fill="#FFDC42"/>
<path fill-rule="evenodd" clip-rule="evenodd" d="M161.742 426.397L157.628 429.33L159.146 424.51L155.085 421.503L160.138 421.458L161.742 416.667L163.347 421.458L168.4 421.503L164.339 424.51L165.857 429.33L161.742 426.397Z" fill="#FFDC42"/>
</g>
<path d="M237.429 436.409C235.441 436.409 233.67 435.98 232.116 435.122C230.572 434.264 229.366 433.048 228.498 431.474C227.63 429.9 227.196 428.094 227.196 426.055C227.196 424.027 227.625 422.231 228.483 420.667C229.341 419.092 230.542 417.876 232.085 417.019C233.639 416.161 235.421 415.732 237.429 415.732C239.084 415.732 240.597 416.014 241.97 416.58C243.342 417.145 244.477 417.962 245.375 419.032C246.274 420.091 246.849 421.322 247.101 422.725H243.06C242.747 421.655 242.081 420.783 241.062 420.106C240.042 419.42 238.821 419.077 237.398 419.077C236.117 419.077 234.987 419.365 234.008 419.94C233.039 420.515 232.292 421.338 231.768 422.407C231.243 423.467 230.98 424.693 230.98 426.085C230.98 427.488 231.248 428.719 231.783 429.779C232.318 430.828 233.069 431.631 234.038 432.186C235.017 432.741 236.137 433.018 237.398 433.018C238.781 433.018 239.987 432.685 241.016 432.019C242.056 431.343 242.737 430.45 243.06 429.34H247.101C246.869 430.722 246.309 431.953 245.421 433.033C244.533 434.103 243.403 434.935 242.03 435.531C240.658 436.116 239.124 436.409 237.429 436.409ZM249.795 414.733H253.262V423.785C253.675 423.149 254.266 422.649 255.033 422.286C255.8 421.923 256.627 421.741 257.515 421.741C259.15 421.741 260.416 422.246 261.314 423.255C262.213 424.254 262.662 425.652 262.662 427.448V436H259.195V428.25C259.195 426.968 258.913 426.085 258.348 425.601C257.793 425.117 257.162 424.875 256.456 424.875C255.628 424.875 254.881 425.117 254.215 425.601C253.559 426.085 253.231 426.908 253.231 428.068V436H249.795V414.733ZM268.096 419.471C267.389 419.471 266.809 419.249 266.355 418.805C265.901 418.361 265.674 417.811 265.674 417.155C265.674 416.489 265.901 415.939 266.355 415.505C266.809 415.071 267.389 414.854 268.096 414.854C268.802 414.854 269.372 415.071 269.806 415.505C270.25 415.939 270.472 416.489 270.472 417.155C270.472 417.791 270.245 418.335 269.791 418.79C269.337 419.244 268.772 419.471 268.096 419.471ZM266.355 422.18H269.821V436H266.355V422.18ZM281.25 421.741C282.854 421.741 284.12 422.251 285.049 423.27C285.987 424.279 286.457 425.672 286.457 427.448V436H282.975V428.25C282.975 426 282.057 424.875 280.22 424.875C279.231 424.875 278.464 425.162 277.919 425.737C277.385 426.312 277.117 427.09 277.117 428.068V436H273.681V422.18H276.557L276.814 423.845C277.248 423.209 277.864 422.7 278.661 422.316C279.458 421.933 280.321 421.741 281.25 421.741ZM304.167 422.18V436H300.852V434.047C300.377 434.774 299.696 435.349 298.808 435.773C297.93 436.197 296.946 436.409 295.856 436.409C294.575 436.409 293.435 436.111 292.436 435.516C291.447 434.91 290.68 434.062 290.135 432.973C289.59 431.873 289.317 430.596 289.317 429.143C289.317 427.68 289.605 426.388 290.18 425.268C290.755 424.138 291.558 423.27 292.587 422.665C293.626 422.049 294.817 421.741 296.159 421.741C297.209 421.741 298.152 421.933 298.99 422.316C299.837 422.7 300.508 423.24 301.003 423.936L301.275 422.18H304.167ZM296.719 433.275C297.88 433.275 298.823 432.882 299.55 432.095C300.286 431.308 300.655 430.283 300.655 429.022C300.655 427.761 300.297 426.751 299.58 425.995C298.874 425.228 297.93 424.844 296.75 424.844C295.569 424.844 294.62 425.233 293.904 426.01C293.197 426.777 292.844 427.791 292.844 429.052C292.844 430.314 293.202 431.333 293.919 432.11C294.635 432.887 295.569 433.275 296.719 433.275Z" fill="#13615F"/>
<path d="M444.904 425.82C445.654 426.125 446.24 426.613 446.662 427.285C447.084 427.957 447.295 428.723 447.295 429.582C447.295 430.527 447.049 431.348 446.557 432.043C446.072 432.738 445.408 433.273 444.564 433.648C443.729 434.023 442.783 434.211 441.729 434.211C440.658 434.211 439.693 434.023 438.834 433.648C437.982 433.273 437.314 432.734 436.83 432.031C436.354 431.328 436.115 430.504 436.115 429.559C436.115 428.691 436.33 427.93 436.76 427.273C437.197 426.609 437.775 426.117 438.494 425.797C437.932 425.461 437.479 424.996 437.135 424.402C436.791 423.809 436.619 423.168 436.619 422.48C436.619 421.684 436.834 420.973 437.264 420.348C437.701 419.723 438.307 419.23 439.08 418.871C439.854 418.512 440.736 418.332 441.729 418.332C442.721 418.332 443.6 418.512 444.365 418.871C445.139 419.23 445.74 419.727 446.17 420.359C446.6 420.992 446.814 421.707 446.814 422.504C446.814 423.223 446.639 423.879 446.287 424.473C445.936 425.066 445.475 425.516 444.904 425.82ZM441.705 420.723C441.002 420.723 440.428 420.91 439.982 421.285C439.545 421.652 439.326 422.129 439.326 422.715C439.326 423.324 439.553 423.82 440.006 424.203C440.467 424.578 441.041 424.766 441.729 424.766C442.416 424.766 442.982 424.578 443.428 424.203C443.881 423.82 444.107 423.332 444.107 422.738C444.107 422.129 443.885 421.641 443.439 421.273C443.002 420.906 442.424 420.723 441.705 420.723ZM441.705 431.82C442.541 431.82 443.221 431.602 443.744 431.164C444.275 430.719 444.541 430.145 444.541 429.441C444.541 428.723 444.275 428.152 443.744 427.73C443.221 427.301 442.549 427.086 441.729 427.086C440.9 427.086 440.217 427.301 439.678 427.73C439.139 428.152 438.869 428.715 438.869 429.418C438.869 430.137 439.139 430.719 439.678 431.164C440.217 431.602 440.893 431.82 441.705 431.82ZM449.1 421.156C450.365 421.156 451.318 420.945 451.959 420.523C452.607 420.102 453.037 419.465 453.248 418.613H455.674V434H452.932V423.219H449.1V421.156ZM460.01 430.684C460.588 430.684 461.072 430.887 461.463 431.293C461.854 431.691 462.049 432.227 462.049 432.898C462.049 433.984 461.693 434.891 460.982 435.617C460.271 436.344 459.357 436.758 458.24 436.859V436.016C458.943 435.906 459.486 435.656 459.869 435.266C460.252 434.883 460.436 434.445 460.42 433.953C460.264 434.031 460.064 434.07 459.822 434.07C459.361 434.07 458.975 433.926 458.662 433.637C458.35 433.348 458.193 432.957 458.193 432.465C458.193 431.949 458.361 431.523 458.697 431.188C459.033 430.852 459.471 430.684 460.01 430.684ZM470.779 424.496C472.084 424.637 473.127 425.129 473.908 425.973C474.697 426.809 475.092 427.875 475.092 429.172C475.092 430.164 474.85 431.047 474.365 431.82C473.889 432.586 473.225 433.18 472.373 433.602C471.529 434.023 470.572 434.234 469.502 434.234C468.447 434.234 467.498 434.023 466.654 433.602C465.818 433.18 465.166 432.578 464.697 431.797C464.236 431.008 464.014 430.102 464.029 429.078H466.736C466.736 429.891 466.998 430.551 467.521 431.059C468.045 431.566 468.721 431.82 469.549 431.82C470.361 431.82 471.033 431.574 471.564 431.082C472.096 430.582 472.361 429.922 472.361 429.102C472.361 428.336 472.127 427.73 471.658 427.285C471.197 426.832 470.576 426.574 469.795 426.512C469.521 426.48 468.975 426.465 468.154 426.465H467.264V424.613L470.943 420.992H464.943V418.613H474.354V420.945L470.779 424.496ZM488.557 428.551V430.859H486.635V434H483.975V430.859H476.873V428.773L483.225 418.613H486.635V428.551H488.557ZM483.975 428.551V421.836L479.768 428.551H483.975ZM496.162 434.27C494.943 434.27 493.889 433.949 492.998 433.309C492.115 432.668 491.439 431.754 490.971 430.566C490.51 429.371 490.279 427.957 490.279 426.324C490.279 423.848 490.795 421.898 491.826 420.477C492.857 419.047 494.303 418.332 496.162 418.332C497.396 418.332 498.455 418.652 499.338 419.293C500.229 419.926 500.908 420.844 501.377 422.047C501.854 423.25 502.092 424.676 502.092 426.324C502.092 427.957 501.854 429.371 501.377 430.566C500.908 431.754 500.229 432.668 499.338 433.309C498.447 433.949 497.389 434.27 496.162 434.27ZM496.186 431.82C497.209 431.82 497.979 431.344 498.494 430.391C499.018 429.438 499.279 428.082 499.279 426.324C499.279 424.566 499.018 423.207 498.494 422.246C497.979 421.285 497.209 420.805 496.186 420.805C495.162 420.805 494.385 421.281 493.854 422.234C493.33 423.18 493.068 424.543 493.068 426.324C493.068 428.066 493.33 429.418 493.854 430.379C494.385 431.34 495.162 431.82 496.186 431.82Z" fill="#035755"/>
<path d="M533.729 430.617C533.129 431.337 532.024 431.337 531.424 430.617L523.126 420.66C522.312 419.683 523.007 418.2 524.279 418.2L540.874 418.2C542.145 418.2 542.84 419.683 542.026 420.66L533.729 430.617Z" fill="#128E5A"/>
<path d="M228.301 360V340.125H231.934V360H228.301ZM243.271 349.026H240.638V360H237.171V349.026H234.538V346.18H237.171V342.547H240.638V346.18H243.271V349.026ZM259.604 346.18V360H256.289V358.047C255.815 358.774 255.134 359.349 254.246 359.773C253.368 360.197 252.384 360.409 251.294 360.409C250.012 360.409 248.872 360.111 247.873 359.516C246.884 358.91 246.117 358.062 245.572 356.973C245.027 355.873 244.755 354.596 244.755 353.143C244.755 351.68 245.042 350.388 245.618 349.268C246.193 348.138 246.995 347.27 248.024 346.665C249.064 346.049 250.255 345.741 251.597 345.741C252.646 345.741 253.59 345.933 254.427 346.316C255.275 346.7 255.946 347.24 256.44 347.936L256.713 346.18H259.604ZM252.157 357.275C253.317 357.275 254.261 356.882 254.987 356.095C255.724 355.308 256.092 354.283 256.092 353.022C256.092 351.761 255.734 350.751 255.018 349.995C254.311 349.228 253.368 348.844 252.187 348.844C251.006 348.844 250.058 349.233 249.341 350.01C248.635 350.777 248.282 351.791 248.282 353.052C248.282 354.314 248.64 355.333 249.356 356.11C250.073 356.887 251.006 357.275 252.157 357.275ZM263.388 338.733H266.854V360H263.388V338.733ZM284.171 346.18L277.813 362.452C277.299 363.734 276.633 364.743 275.815 365.479C274.998 366.226 273.812 366.6 272.258 366.6C271.411 366.6 270.573 366.499 269.746 366.297L269.791 363.436C270.558 363.577 271.184 363.653 271.668 363.663C272.617 363.663 273.298 363.486 273.711 363.133C274.135 362.78 274.468 362.24 274.71 361.514L275.089 360.56L269.17 346.18H272.909L276.663 356.307L280.508 346.18H284.171Z" fill="#13615F"/>
<rect x="150.413" y="331.337" width="48.3269" height="34.3269" rx="2.35577" fill="white" stroke="#F5F5F5" stroke-width="0.673077"/>
<mask id="mask1" mask-type="alpha" maskUnits="userSpaceOnUse" x="150" y="331" width="50" height="35">
<rect x="150.413" y="331.337" width="48.3269" height="34.3269" rx="2.35577" fill="white" stroke="white" stroke-width="0.673077"/>
</mask>
<g mask="url(#mask1)">
<rect x="182.743" y="331" width="16.3333" height="35" fill="#E43D4C"/>
<path fill-rule="evenodd" clip-rule="evenodd" d="M150.076 366H166.41V331H150.076V366Z" fill="#1BB65D"/>
</g>
<path d="M438.576 349.82C439.326 350.125 439.912 350.613 440.334 351.285C440.756 351.957 440.967 352.723 440.967 353.582C440.967 354.527 440.721 355.348 440.229 356.043C439.744 356.738 439.08 357.273 438.236 357.648C437.4 358.023 436.455 358.211 435.4 358.211C434.33 358.211 433.365 358.023 432.506 357.648C431.654 357.273 430.986 356.734 430.502 356.031C430.025 355.328 429.787 354.504 429.787 353.559C429.787 352.691 430.002 351.93 430.432 351.273C430.869 350.609 431.447 350.117 432.166 349.797C431.604 349.461 431.15 348.996 430.807 348.402C430.463 347.809 430.291 347.168 430.291 346.48C430.291 345.684 430.506 344.973 430.936 344.348C431.373 343.723 431.979 343.23 432.752 342.871C433.525 342.512 434.408 342.332 435.4 342.332C436.393 342.332 437.271 342.512 438.037 342.871C438.811 343.23 439.412 343.727 439.842 344.359C440.271 344.992 440.486 345.707 440.486 346.504C440.486 347.223 440.311 347.879 439.959 348.473C439.607 349.066 439.146 349.516 438.576 349.82ZM435.377 344.723C434.674 344.723 434.1 344.91 433.654 345.285C433.217 345.652 432.998 346.129 432.998 346.715C432.998 347.324 433.225 347.82 433.678 348.203C434.139 348.578 434.713 348.766 435.4 348.766C436.088 348.766 436.654 348.578 437.1 348.203C437.553 347.82 437.779 347.332 437.779 346.738C437.779 346.129 437.557 345.641 437.111 345.273C436.674 344.906 436.096 344.723 435.377 344.723ZM435.377 355.82C436.213 355.82 436.893 355.602 437.416 355.164C437.947 354.719 438.213 354.145 438.213 353.441C438.213 352.723 437.947 352.152 437.416 351.73C436.893 351.301 436.221 351.086 435.4 351.086C434.572 351.086 433.889 351.301 433.35 351.73C432.811 352.152 432.541 352.715 432.541 353.418C432.541 354.137 432.811 354.719 433.35 355.164C433.889 355.602 434.564 355.82 435.377 355.82ZM449.006 347.781C450.029 347.781 450.951 347.992 451.771 348.414C452.6 348.836 453.248 349.438 453.717 350.219C454.193 350.992 454.432 351.883 454.432 352.891C454.432 353.914 454.178 354.836 453.67 355.656C453.17 356.469 452.471 357.102 451.572 357.555C450.682 358.008 449.666 358.234 448.525 358.234C447.393 358.234 446.4 358.008 445.549 357.555C444.705 357.102 444.049 356.477 443.58 355.68C443.119 354.875 442.889 353.977 442.889 352.984C442.889 352.023 443.076 351.145 443.451 350.348C443.826 349.543 444.334 348.688 444.975 347.781L448.479 342.613H451.479L447.787 347.898C448.123 347.82 448.529 347.781 449.006 347.781ZM448.631 355.82C449.49 355.82 450.213 355.555 450.799 355.023C451.385 354.492 451.678 353.797 451.678 352.938C451.678 352.086 451.393 351.406 450.822 350.898C450.252 350.383 449.545 350.125 448.701 350.125C447.834 350.125 447.107 350.383 446.521 350.898C445.943 351.406 445.654 352.094 445.654 352.961C445.654 353.828 445.936 354.523 446.498 355.047C447.068 355.562 447.779 355.82 448.631 355.82ZM457.9 354.684C458.479 354.684 458.963 354.887 459.354 355.293C459.744 355.691 459.939 356.227 459.939 356.898C459.939 357.984 459.584 358.891 458.873 359.617C458.162 360.344 457.248 360.758 456.131 360.859V360.016C456.834 359.906 457.377 359.656 457.76 359.266C458.143 358.883 458.326 358.445 458.311 357.953C458.154 358.031 457.955 358.07 457.713 358.07C457.252 358.07 456.865 357.926 456.553 357.637C456.24 357.348 456.084 356.957 456.084 356.465C456.084 355.949 456.252 355.523 456.588 355.188C456.924 354.852 457.361 354.684 457.9 354.684ZM472.619 352.551V354.859H470.697V358H468.037V354.859H460.936V352.773L467.287 342.613H470.697V352.551H472.619ZM468.037 352.551V345.836L463.83 352.551H468.037ZM480.295 342.332C481.428 342.332 482.424 342.562 483.283 343.023C484.15 343.484 484.814 344.117 485.275 344.922C485.744 345.719 485.979 346.621 485.979 347.629C485.979 348.301 485.873 348.945 485.662 349.562C485.459 350.18 485.225 350.711 484.959 351.156C484.693 351.594 484.33 352.148 483.869 352.82L480.365 358H477.365L481.057 352.738C480.611 352.816 480.205 352.859 479.838 352.867C478.814 352.867 477.893 352.652 477.072 352.223C476.26 351.785 475.615 351.176 475.139 350.395C474.67 349.605 474.436 348.715 474.436 347.723C474.436 346.684 474.686 345.754 475.186 344.934C475.693 344.105 476.393 343.465 477.283 343.012C478.174 342.559 479.178 342.332 480.295 342.332ZM477.201 347.652C477.201 348.504 477.479 349.188 478.033 349.703C478.596 350.211 479.303 350.465 480.154 350.465C481.037 350.465 481.764 350.211 482.334 349.703C482.912 349.188 483.201 348.504 483.201 347.652C483.201 346.785 482.916 346.098 482.346 345.59C481.775 345.082 481.068 344.828 480.225 344.828C479.357 344.828 478.635 345.094 478.057 345.625C477.486 346.148 477.201 346.824 477.201 347.652ZM496.701 349.82C497.451 350.125 498.037 350.613 498.459 351.285C498.881 351.957 499.092 352.723 499.092 353.582C499.092 354.527 498.846 355.348 498.354 356.043C497.869 356.738 497.205 357.273 496.361 357.648C495.525 358.023 494.58 358.211 493.525 358.211C492.455 358.211 491.49 358.023 490.631 357.648C489.779 357.273 489.111 356.734 488.627 356.031C488.15 355.328 487.912 354.504 487.912 353.559C487.912 352.691 488.127 351.93 488.557 351.273C488.994 350.609 489.572 350.117 490.291 349.797C489.729 349.461 489.275 348.996 488.932 348.402C488.588 347.809 488.416 347.168 488.416 346.48C488.416 345.684 488.631 344.973 489.061 344.348C489.498 343.723 490.104 343.23 490.877 342.871C491.65 342.512 492.533 342.332 493.525 342.332C494.518 342.332 495.396 342.512 496.162 342.871C496.936 343.23 497.537 343.727 497.967 344.359C498.396 344.992 498.611 345.707 498.611 346.504C498.611 347.223 498.436 347.879 498.084 348.473C497.732 349.066 497.271 349.516 496.701 349.82ZM493.502 344.723C492.799 344.723 492.225 344.91 491.779 345.285C491.342 345.652 491.123 346.129 491.123 346.715C491.123 347.324 491.35 347.82 491.803 348.203C492.264 348.578 492.838 348.766 493.525 348.766C494.213 348.766 494.779 348.578 495.225 348.203C495.678 347.82 495.904 347.332 495.904 346.738C495.904 346.129 495.682 345.641 495.236 345.273C494.799 344.906 494.221 344.723 493.502 344.723ZM493.502 355.82C494.338 355.82 495.018 355.602 495.541 355.164C496.072 354.719 496.338 354.145 496.338 353.441C496.338 352.723 496.072 352.152 495.541 351.73C495.018 351.301 494.346 351.086 493.525 351.086C492.697 351.086 492.014 351.301 491.475 351.73C490.936 352.152 490.666 352.715 490.666 353.418C490.666 354.137 490.936 354.719 491.475 355.164C492.014 355.602 492.689 355.82 493.502 355.82Z" fill="#035755"/>
<path d="M531.424 343.383C532.024 342.663 533.129 342.663 533.729 343.383L542.026 353.34C542.84 354.317 542.145 355.8 540.874 355.8H524.279C523.007 355.8 522.312 354.317 523.126 353.34L531.424 343.383Z" fill="#F44A45"/>
<path d="M228.15 264.125H231.783V276.689C231.783 278.223 232.217 279.338 233.084 280.034C233.952 280.73 235.057 281.079 236.399 281.079C237.822 281.079 238.952 280.71 239.79 279.974C240.628 279.227 241.046 278.132 241.046 276.689V264.125H244.679V276.84C244.679 278.475 244.321 279.863 243.604 281.003C242.888 282.133 241.904 282.986 240.653 283.561C239.412 284.126 237.994 284.409 236.399 284.409C234.785 284.409 233.357 284.121 232.116 283.546C230.875 282.961 229.901 282.103 229.194 280.973C228.498 279.832 228.15 278.455 228.15 276.84V264.125ZM248.327 269.771C248.327 268.55 248.62 267.486 249.205 266.578C249.8 265.669 250.633 264.968 251.703 264.474C252.782 263.979 254.024 263.732 255.426 263.732C256.809 263.732 258.04 263.974 259.12 264.458C260.199 264.943 261.042 265.629 261.647 266.517C262.253 267.405 262.556 268.439 262.556 269.62H258.817C258.797 268.772 258.459 268.091 257.803 267.577C257.157 267.052 256.304 266.79 255.245 266.79C254.276 266.79 253.499 267.032 252.914 267.516C252.338 267.99 252.051 268.606 252.051 269.363C252.051 270.11 252.303 270.66 252.808 271.013C253.322 271.366 254.003 271.643 254.851 271.845L258.105 272.647C259.589 273.001 260.79 273.652 261.708 274.6C262.626 275.539 263.085 276.75 263.085 278.233C263.085 279.474 262.773 280.559 262.147 281.487C261.531 282.416 260.653 283.137 259.513 283.652C258.383 284.156 257.066 284.409 255.562 284.409C253.332 284.409 251.516 283.869 250.113 282.789C248.721 281.699 247.964 280.221 247.843 278.354H251.582C251.622 279.282 252.01 280.014 252.747 280.549C253.484 281.074 254.442 281.336 255.623 281.336C256.763 281.336 257.656 281.094 258.302 280.609C258.948 280.125 259.271 279.459 259.271 278.611C259.271 277.885 259.044 277.335 258.59 276.961C258.136 276.588 257.54 276.311 256.804 276.129L253.474 275.327C251.839 274.933 250.572 274.277 249.674 273.359C248.776 272.431 248.327 271.235 248.327 269.771ZM271.456 264.125H275.149L282.521 284H278.676L277.072 279.474H269.473L267.793 284H264.039L271.456 264.125ZM276.012 276.462L274.741 272.965C274.62 272.632 274.287 271.648 273.742 270.014L273.318 268.772C273.237 269.045 273.045 269.615 272.743 270.483C272.44 271.351 272.132 272.178 271.819 272.965L270.518 276.462H276.012Z" fill="#13615F"/>
<rect x="150.076" y="255" width="49" height="35" rx="2.69231" fill="white"/>
<mask id="mask2" mask-type="alpha" maskUnits="userSpaceOnUse" x="150" y="255" width="50" height="35">
<rect x="150.076" y="255" width="49" height="35" rx="2.69231" fill="white"/>
</mask>
<g mask="url(#mask2)">
<path fill-rule="evenodd" clip-rule="evenodd" d="M199.076 255H150.076V257.333H199.076V255ZM199.076 259.667H150.076V262H199.076V259.667ZM150.076 264.333H199.076V266.666H150.076V264.333ZM199.076 269H150.076V271.333H199.076V269ZM150.076 273.667H199.076V276H150.076V273.667ZM199.076 278.334H150.076V280.667H199.076V278.334ZM150.076 283H199.076V285.333H150.076V283ZM199.076 287.667H150.076V290H199.076V287.667Z" fill="#D02F44"/>
<rect x="150.076" y="255" width="21" height="16.3333" fill="#46467F"/>
<g filter="url(#filter1_d)">
<path fill-rule="evenodd" clip-rule="evenodd" d="M159.408 258.5C159.408 259.144 158.886 259.667 158.242 259.667C157.598 259.667 157.075 259.144 157.075 258.5C157.075 257.856 157.598 257.333 158.242 257.333C158.886 257.333 159.408 257.856 159.408 258.5ZM154.742 258.5C154.742 259.145 154.22 259.667 153.575 259.667C152.931 259.667 152.409 259.145 152.409 258.5C152.409 257.856 152.931 257.334 153.575 257.334C154.22 257.334 154.742 257.856 154.742 258.5ZM162.909 259.667C163.553 259.667 164.075 259.144 164.075 258.5C164.075 257.856 163.553 257.333 162.909 257.333C162.264 257.333 161.742 257.856 161.742 258.5C161.742 259.144 162.264 259.667 162.909 259.667ZM168.742 258.5C168.742 259.144 168.22 259.667 167.576 259.667C166.931 259.667 166.409 259.144 166.409 258.5C166.409 257.856 166.931 257.333 167.576 257.333C168.22 257.333 168.742 257.856 168.742 258.5ZM155.907 262C156.551 262 157.074 261.478 157.074 260.834C157.074 260.189 156.551 259.667 155.907 259.667C155.263 259.667 154.74 260.189 154.74 260.834C154.74 261.478 155.263 262 155.907 262ZM161.741 260.834C161.741 261.478 161.218 262 160.574 262C159.93 262 159.407 261.478 159.407 260.834C159.407 260.189 159.93 259.667 160.574 259.667C161.218 259.667 161.741 260.189 161.741 260.834ZM165.241 262C165.885 262 166.407 261.478 166.407 260.834C166.407 260.189 165.885 259.667 165.241 259.667C164.596 259.667 164.074 260.189 164.074 260.834C164.074 261.478 164.596 262 165.241 262ZM168.742 263.167C168.742 263.811 168.22 264.334 167.576 264.334C166.931 264.334 166.409 263.811 166.409 263.167C166.409 262.523 166.931 262 167.576 262C168.22 262 168.742 262.523 168.742 263.167ZM162.909 264.334C163.553 264.334 164.075 263.811 164.075 263.167C164.075 262.523 163.553 262 162.909 262C162.264 262 161.742 262.523 161.742 263.167C161.742 263.811 162.264 264.334 162.909 264.334ZM159.408 263.167C159.408 263.811 158.886 264.334 158.242 264.334C157.598 264.334 157.075 263.811 157.075 263.167C157.075 262.523 157.598 262 158.242 262C158.886 262 159.408 262.523 159.408 263.167ZM153.575 264.334C154.219 264.334 154.742 263.811 154.742 263.167C154.742 262.523 154.219 262 153.575 262C152.931 262 152.408 262.523 152.408 263.167C152.408 263.811 152.931 264.334 153.575 264.334ZM157.074 265.5C157.074 266.145 156.551 266.667 155.907 266.667C155.263 266.667 154.74 266.145 154.74 265.5C154.74 264.856 155.263 264.334 155.907 264.334C156.551 264.334 157.074 264.856 157.074 265.5ZM160.574 266.667C161.218 266.667 161.741 266.145 161.741 265.5C161.741 264.856 161.218 264.334 160.574 264.334C159.93 264.334 159.407 264.856 159.407 265.5C159.407 266.145 159.93 266.667 160.574 266.667ZM166.407 265.5C166.407 266.145 165.885 266.667 165.241 266.667C164.596 266.667 164.074 266.145 164.074 265.5C164.074 264.856 164.596 264.334 165.241 264.334C165.885 264.334 166.407 264.856 166.407 265.5ZM167.576 269C168.22 269 168.742 268.478 168.742 267.833C168.742 267.189 168.22 266.667 167.576 266.667C166.931 266.667 166.409 267.189 166.409 267.833C166.409 268.478 166.931 269 167.576 269ZM164.075 267.833C164.075 268.478 163.553 269 162.909 269C162.264 269 161.742 268.478 161.742 267.833C161.742 267.189 162.264 266.667 162.909 266.667C163.553 266.667 164.075 267.189 164.075 267.833ZM158.242 269C158.886 269 159.408 268.478 159.408 267.833C159.408 267.189 158.886 266.667 158.242 266.667C157.598 266.667 157.075 267.189 157.075 267.833C157.075 268.478 157.598 269 158.242 269ZM154.742 267.833C154.742 268.478 154.219 269 153.575 269C152.931 269 152.408 268.478 152.408 267.833C152.408 267.189 152.931 266.667 153.575 266.667C154.219 266.667 154.742 267.189 154.742 267.833Z" fill="url(#paint1_linear)"/>
</g>
</g>
<path d="M419.553 269.156C420.818 269.156 421.771 268.945 422.412 268.523C423.061 268.102 423.49 267.465 423.701 266.613H426.127V282H423.385V271.219H419.553V269.156ZM434.717 282.27C433.498 282.27 432.443 281.949 431.553 281.309C430.67 280.668 429.994 279.754 429.525 278.566C429.064 277.371 428.834 275.957 428.834 274.324C428.834 271.848 429.35 269.898 430.381 268.477C431.412 267.047 432.857 266.332 434.717 266.332C435.951 266.332 437.01 266.652 437.893 267.293C438.783 267.926 439.463 268.844 439.932 270.047C440.408 271.25 440.646 272.676 440.646 274.324C440.646 275.957 440.408 277.371 439.932 278.566C439.463 279.754 438.783 280.668 437.893 281.309C437.002 281.949 435.943 282.27 434.717 282.27ZM434.74 279.82C435.764 279.82 436.533 279.344 437.049 278.391C437.572 277.438 437.834 276.082 437.834 274.324C437.834 272.566 437.572 271.207 437.049 270.246C436.533 269.285 435.764 268.805 434.74 268.805C433.717 268.805 432.939 269.281 432.408 270.234C431.885 271.18 431.623 272.543 431.623 274.324C431.623 276.066 431.885 277.418 432.408 278.379C432.939 279.34 433.717 279.82 434.74 279.82ZM448.428 282.27C447.209 282.27 446.154 281.949 445.264 281.309C444.381 280.668 443.705 279.754 443.236 278.566C442.775 277.371 442.545 275.957 442.545 274.324C442.545 271.848 443.061 269.898 444.092 268.477C445.123 267.047 446.568 266.332 448.428 266.332C449.662 266.332 450.721 266.652 451.604 267.293C452.494 267.926 453.174 268.844 453.643 270.047C454.119 271.25 454.357 272.676 454.357 274.324C454.357 275.957 454.119 277.371 453.643 278.566C453.174 279.754 452.494 280.668 451.604 281.309C450.713 281.949 449.654 282.27 448.428 282.27ZM448.451 279.82C449.475 279.82 450.244 279.344 450.76 278.391C451.283 277.438 451.545 276.082 451.545 274.324C451.545 272.566 451.283 271.207 450.76 270.246C450.244 269.285 449.475 268.805 448.451 268.805C447.428 268.805 446.65 269.281 446.119 270.234C445.596 271.18 445.334 272.543 445.334 274.324C445.334 276.066 445.596 277.418 446.119 278.379C446.65 279.34 447.428 279.82 448.451 279.82ZM457.088 278.684C457.666 278.684 458.15 278.887 458.541 279.293C458.932 279.691 459.127 280.227 459.127 280.898C459.127 281.984 458.771 282.891 458.061 283.617C457.35 284.344 456.436 284.758 455.318 284.859V284.016C456.021 283.906 456.564 283.656 456.947 283.266C457.33 282.883 457.514 282.445 457.498 281.953C457.342 282.031 457.143 282.07 456.9 282.07C456.439 282.07 456.053 281.926 455.74 281.637C455.428 281.348 455.271 280.957 455.271 280.465C455.271 279.949 455.439 279.523 455.775 279.188C456.111 278.852 456.549 278.684 457.088 278.684ZM467.857 272.496C469.162 272.637 470.205 273.129 470.986 273.973C471.775 274.809 472.17 275.875 472.17 277.172C472.17 278.164 471.928 279.047 471.443 279.82C470.967 280.586 470.303 281.18 469.451 281.602C468.607 282.023 467.65 282.234 466.58 282.234C465.525 282.234 464.576 282.023 463.732 281.602C462.896 281.18 462.244 280.578 461.775 279.797C461.314 279.008 461.092 278.102 461.107 277.078H463.814C463.814 277.891 464.076 278.551 464.6 279.059C465.123 279.566 465.799 279.82 466.627 279.82C467.439 279.82 468.111 279.574 468.643 279.082C469.174 278.582 469.439 277.922 469.439 277.102C469.439 276.336 469.205 275.73 468.736 275.285C468.275 274.832 467.654 274.574 466.873 274.512C466.6 274.48 466.053 274.465 465.232 274.465H464.342V272.613L468.021 268.992H462.021V266.613H471.432V268.945L467.857 272.496ZM480.115 266.332C481.248 266.332 482.244 266.562 483.104 267.023C483.971 267.484 484.635 268.117 485.096 268.922C485.564 269.719 485.799 270.621 485.799 271.629C485.799 272.301 485.693 272.945 485.482 273.562C485.279 274.18 485.045 274.711 484.779 275.156C484.514 275.594 484.15 276.148 483.689 276.82L480.186 282H477.186L480.877 276.738C480.432 276.816 480.025 276.859 479.658 276.867C478.635 276.867 477.713 276.652 476.893 276.223C476.08 275.785 475.436 275.176 474.959 274.395C474.49 273.605 474.256 272.715 474.256 271.723C474.256 270.684 474.506 269.754 475.006 268.934C475.514 268.105 476.213 267.465 477.104 267.012C477.994 266.559 478.998 266.332 480.115 266.332ZM477.021 271.652C477.021 272.504 477.299 273.188 477.854 273.703C478.416 274.211 479.123 274.465 479.975 274.465C480.857 274.465 481.584 274.211 482.154 273.703C482.732 273.188 483.021 272.504 483.021 271.652C483.021 270.785 482.736 270.098 482.166 269.59C481.596 269.082 480.889 268.828 480.045 268.828C479.178 268.828 478.455 269.094 477.877 269.625C477.307 270.148 477.021 270.824 477.021 271.652ZM492.361 279.527H498.057V282H488.33V280.031L493.803 274.102C494.264 273.609 494.635 273.125 494.916 272.648C495.197 272.164 495.338 271.633 495.338 271.055C495.338 270.383 495.119 269.84 494.682 269.426C494.252 269.012 493.686 268.805 492.982 268.805C492.17 268.805 491.533 269.062 491.072 269.578C490.619 270.086 490.432 270.723 490.51 271.488H487.826C487.764 270.496 487.951 269.609 488.389 268.828C488.834 268.039 489.471 267.426 490.299 266.988C491.135 266.551 492.08 266.332 493.135 266.332C494.111 266.332 494.975 266.52 495.725 266.895C496.475 267.27 497.057 267.801 497.471 268.488C497.893 269.176 498.104 269.969 498.104 270.867C498.104 271.844 497.9 272.68 497.494 273.375C497.096 274.07 496.561 274.801 495.889 275.566L492.361 279.527Z" fill="#035755"/>
<path d="M530.424 267.383C531.024 266.663 532.129 266.663 532.729 267.383L541.026 277.34C541.84 278.317 541.145 279.8 539.874 279.8H523.279C522.007 279.8 521.312 278.317 522.126 277.34L530.424 267.383Z" fill="#F44A45"/>
<path d="M227.65 497.771C227.65 496.55 227.943 495.486 228.528 494.578C229.124 493.669 229.956 492.968 231.026 492.474C232.106 491.979 233.347 491.732 234.75 491.732C236.132 491.732 237.363 491.974 238.443 492.458C239.523 492.943 240.365 493.629 240.971 494.517C241.576 495.405 241.879 496.439 241.879 497.62H238.14C238.12 496.772 237.782 496.091 237.126 495.577C236.48 495.052 235.627 494.79 234.568 494.79C233.599 494.79 232.822 495.032 232.237 495.516C231.662 495.99 231.374 496.606 231.374 497.363C231.374 498.11 231.626 498.66 232.131 499.013C232.646 499.366 233.327 499.643 234.174 499.845L237.429 500.647C238.912 501.001 240.113 501.652 241.031 502.6C241.95 503.539 242.409 504.75 242.409 506.233C242.409 507.474 242.096 508.559 241.47 509.487C240.855 510.416 239.977 511.137 238.836 511.652C237.706 512.156 236.389 512.409 234.886 512.409C232.656 512.409 230.839 511.869 229.437 510.789C228.044 509.699 227.287 508.221 227.166 506.354H230.905C230.945 507.282 231.334 508.014 232.07 508.549C232.807 509.074 233.766 509.336 234.946 509.336C236.087 509.336 236.98 509.094 237.625 508.609C238.271 508.125 238.594 507.459 238.594 506.611C238.594 505.885 238.367 505.335 237.913 504.961C237.459 504.588 236.864 504.311 236.127 504.129L232.797 503.327C231.162 502.933 229.896 502.277 228.998 501.359C228.099 500.431 227.65 499.235 227.65 497.771ZM253.353 497.741C254.654 497.741 255.815 498.049 256.834 498.665C257.853 499.27 258.65 500.128 259.226 501.238C259.811 502.338 260.104 503.609 260.104 505.052C260.104 506.495 259.811 507.777 259.226 508.897C258.65 510.017 257.853 510.885 256.834 511.5C255.815 512.106 254.639 512.409 253.307 512.409C252.318 512.409 251.42 512.242 250.613 511.909C249.806 511.576 249.165 511.102 248.69 510.486V518.357H245.254V498.18H248.1L248.357 500.163C248.852 499.416 249.538 498.826 250.416 498.392C251.294 497.958 252.273 497.741 253.353 497.741ZM252.656 509.275C253.837 509.275 254.78 508.887 255.487 508.11C256.203 507.333 256.562 506.324 256.562 505.083C256.562 503.821 256.203 502.807 255.487 502.04C254.78 501.263 253.847 500.875 252.687 500.875C251.526 500.875 250.583 501.263 249.856 502.04C249.139 502.807 248.781 503.831 248.781 505.113C248.781 506.374 249.139 507.383 249.856 508.14C250.572 508.897 251.506 509.275 252.656 509.275ZM277.193 498.18V512H273.878V510.047C273.404 510.774 272.722 511.349 271.834 511.773C270.957 512.197 269.973 512.409 268.883 512.409C267.601 512.409 266.461 512.111 265.462 511.516C264.473 510.91 263.706 510.062 263.161 508.973C262.616 507.873 262.344 506.596 262.344 505.143C262.344 503.68 262.631 502.388 263.207 501.268C263.782 500.138 264.584 499.27 265.613 498.665C266.653 498.049 267.843 497.741 269.186 497.741C270.235 497.741 271.179 497.933 272.016 498.316C272.864 498.7 273.535 499.24 274.029 499.936L274.302 498.18H277.193ZM269.746 509.275C270.906 509.275 271.85 508.882 272.576 508.095C273.313 507.308 273.681 506.283 273.681 505.022C273.681 503.761 273.323 502.751 272.606 501.995C271.9 501.228 270.957 500.844 269.776 500.844C268.595 500.844 267.647 501.233 266.93 502.01C266.224 502.777 265.871 503.791 265.871 505.052C265.871 506.314 266.229 507.333 266.945 508.11C267.662 508.887 268.595 509.275 269.746 509.275ZM282.748 495.471C282.042 495.471 281.461 495.249 281.007 494.805C280.553 494.361 280.326 493.811 280.326 493.155C280.326 492.489 280.553 491.939 281.007 491.505C281.461 491.071 282.042 490.854 282.748 490.854C283.454 490.854 284.025 491.071 284.458 491.505C284.903 491.939 285.125 492.489 285.125 493.155C285.125 493.791 284.897 494.335 284.443 494.79C283.989 495.244 283.424 495.471 282.748 495.471ZM281.007 498.18H284.474V512H281.007V498.18ZM295.902 497.741C297.506 497.741 298.773 498.251 299.701 499.27C300.64 500.279 301.109 501.672 301.109 503.448V512H297.627V504.25C297.627 502 296.709 500.875 294.873 500.875C293.884 500.875 293.117 501.162 292.572 501.737C292.037 502.312 291.77 503.09 291.77 504.068V512H288.333V498.18H291.209L291.467 499.845C291.901 499.209 292.516 498.7 293.313 498.316C294.111 497.933 294.973 497.741 295.902 497.741Z" fill="#13615F"/>
<rect x="150.076" y="483" width="49" height="35" rx="2.64865" fill="white"/>
<mask id="mask3" mask-type="alpha" maskUnits="userSpaceOnUse" x="150" y="483" width="50" height="35">
<rect x="150.076" y="483" width="49" height="35" rx="2.64865" fill="white"/>
</mask>
<g mask="url(#mask3)">
<path fill-rule="evenodd" clip-rule="evenodd" d="M150.076 492.333H199.076V483H150.076V492.333Z" fill="#DD172C"/>
<path fill-rule="evenodd" clip-rule="evenodd" d="M150.076 518H199.076V508.667H150.076V518Z" fill="#DD172C"/>
<path fill-rule="evenodd" clip-rule="evenodd" d="M150.076 508.666H199.076V492.333H150.076V508.666Z" fill="#FFD133"/>
<path fill-rule="evenodd" clip-rule="evenodd" d="M162.911 499.333H165.244V500.5H162.911V499.333Z" fill="#FFEDB1"/>
<path d="M160.513 499.087C160.491 498.829 160.694 498.608 160.953 498.608H164.867C165.125 498.608 165.328 498.829 165.307 499.087L164.938 503.511C164.881 504.198 164.307 504.726 163.618 504.726H162.201C161.512 504.726 160.939 504.198 160.881 503.511L160.513 499.087Z" stroke="#A41517" stroke-width="0.882883"/>
<path fill-rule="evenodd" clip-rule="evenodd" d="M160.575 500.5H165.242V501.667H164.075L162.908 504L161.742 501.667H160.575V500.5Z" fill="#A41517"/>
<rect x="157.075" y="497" width="2.33333" height="8.16667" rx="0.882883" fill="#A41517"/>
<rect x="166.41" y="497" width="2.33333" height="8.16667" rx="0.882883" fill="#A41517"/>
<path d="M160.575 496.433C160.575 495.457 161.366 494.667 162.341 494.667H163.476C164.451 494.667 165.242 495.457 165.242 496.433V496.559C165.242 496.802 165.044 497 164.8 497H161.017C160.773 497 160.575 496.802 160.575 496.559V496.433Z" fill="#A41517"/>
</g>
<path d="M433.451 499.781C434.475 499.781 435.396 499.992 436.217 500.414C437.045 500.836 437.693 501.438 438.162 502.219C438.639 502.992 438.877 503.883 438.877 504.891C438.877 505.914 438.623 506.836 438.115 507.656C437.615 508.469 436.916 509.102 436.018 509.555C435.127 510.008 434.111 510.234 432.971 510.234C431.838 510.234 430.846 510.008 429.994 509.555C429.15 509.102 428.494 508.477 428.025 507.68C427.564 506.875 427.334 505.977 427.334 504.984C427.334 504.023 427.521 503.145 427.896 502.348C428.271 501.543 428.779 500.688 429.42 499.781L432.924 494.613H435.924L432.232 499.898C432.568 499.82 432.975 499.781 433.451 499.781ZM433.076 507.82C433.936 507.82 434.658 507.555 435.244 507.023C435.83 506.492 436.123 505.797 436.123 504.938C436.123 504.086 435.838 503.406 435.268 502.898C434.697 502.383 433.99 502.125 433.146 502.125C432.279 502.125 431.553 502.383 430.967 502.898C430.389 503.406 430.1 504.094 430.1 504.961C430.1 505.828 430.381 506.523 430.943 507.047C431.514 507.562 432.225 507.82 433.076 507.82ZM452.307 504.551V506.859H450.385V510H447.725V506.859H440.623V504.773L446.975 494.613H450.385V504.551H452.307ZM447.725 504.551V497.836L443.518 504.551H447.725ZM455.658 506.684C456.236 506.684 456.721 506.887 457.111 507.293C457.502 507.691 457.697 508.227 457.697 508.898C457.697 509.984 457.342 510.891 456.631 511.617C455.92 512.344 455.006 512.758 453.889 512.859V512.016C454.592 511.906 455.135 511.656 455.518 511.266C455.9 510.883 456.084 510.445 456.068 509.953C455.912 510.031 455.713 510.07 455.471 510.07C455.01 510.07 454.623 509.926 454.311 509.637C453.998 509.348 453.842 508.957 453.842 508.465C453.842 507.949 454.01 507.523 454.346 507.188C454.682 506.852 455.119 506.684 455.658 506.684ZM465.092 510.27C463.873 510.27 462.818 509.949 461.928 509.309C461.045 508.668 460.369 507.754 459.9 506.566C459.439 505.371 459.209 503.957 459.209 502.324C459.209 499.848 459.725 497.898 460.756 496.477C461.787 495.047 463.232 494.332 465.092 494.332C466.326 494.332 467.385 494.652 468.268 495.293C469.158 495.926 469.838 496.844 470.307 498.047C470.783 499.25 471.021 500.676 471.021 502.324C471.021 503.957 470.783 505.371 470.307 506.566C469.838 507.754 469.158 508.668 468.268 509.309C467.377 509.949 466.318 510.27 465.092 510.27ZM465.115 507.82C466.139 507.82 466.908 507.344 467.424 506.391C467.947 505.438 468.209 504.082 468.209 502.324C468.209 500.566 467.947 499.207 467.424 498.246C466.908 497.285 466.139 496.805 465.115 496.805C464.092 496.805 463.314 497.281 462.783 498.234C462.26 499.18 461.998 500.543 461.998 502.324C461.998 504.066 462.26 505.418 462.783 506.379C463.314 507.34 464.092 507.82 465.115 507.82ZM479.061 499.875C480.068 499.875 480.967 500.094 481.756 500.531C482.553 500.969 483.174 501.578 483.619 502.359C484.072 503.133 484.299 504.008 484.299 504.984C484.299 506.008 484.045 506.918 483.537 507.715C483.037 508.504 482.354 509.117 481.486 509.555C480.627 509.992 479.658 510.211 478.58 510.211C477.51 510.211 476.553 509.996 475.709 509.566C474.873 509.137 474.217 508.535 473.74 507.762C473.271 506.98 473.037 506.086 473.037 505.078H475.756C475.756 505.875 476.018 506.531 476.541 507.047C477.072 507.562 477.744 507.82 478.557 507.82C479.408 507.82 480.111 507.555 480.666 507.023C481.229 506.492 481.51 505.805 481.51 504.961C481.51 504.133 481.24 503.457 480.701 502.934C480.17 502.41 479.463 502.148 478.58 502.148C478.033 502.148 477.525 502.258 477.057 502.477C476.588 502.695 476.225 502.988 475.967 503.355L473.354 503.039L475.346 494.613H483.385V496.992H477.408L476.518 500.473C477.205 500.074 478.053 499.875 479.061 499.875ZM492.326 494.332C493.459 494.332 494.455 494.562 495.314 495.023C496.182 495.484 496.846 496.117 497.307 496.922C497.775 497.719 498.01 498.621 498.01 499.629C498.01 500.301 497.904 500.945 497.693 501.562C497.49 502.18 497.256 502.711 496.99 503.156C496.725 503.594 496.361 504.148 495.9 504.82L492.396 510H489.396L493.088 504.738C492.643 504.816 492.236 504.859 491.869 504.867C490.846 504.867 489.924 504.652 489.104 504.223C488.291 503.785 487.646 503.176 487.17 502.395C486.701 501.605 486.467 500.715 486.467 499.723C486.467 498.684 486.717 497.754 487.217 496.934C487.725 496.105 488.424 495.465 489.314 495.012C490.205 494.559 491.209 494.332 492.326 494.332ZM489.232 499.652C489.232 500.504 489.51 501.188 490.064 501.703C490.627 502.211 491.334 502.465 492.186 502.465C493.068 502.465 493.795 502.211 494.365 501.703C494.943 501.188 495.232 500.504 495.232 499.652C495.232 498.785 494.947 498.098 494.377 497.59C493.807 497.082 493.1 496.828 492.256 496.828C491.389 496.828 490.666 497.094 490.088 497.625C489.518 498.148 489.232 498.824 489.232 499.652Z" fill="#035755"/>
<path d="M530.424 495.383C531.024 494.663 532.129 494.663 532.729 495.383L541.026 505.34C541.84 506.317 541.145 507.8 539.874 507.8H523.279C522.007 507.8 521.312 506.317 522.126 505.34L530.424 495.383Z" fill="#F44A45"/>
<path d="M247.222 577.208V579.1C247.222 580.936 246.798 582.561 245.951 583.974C245.103 585.376 243.922 586.466 242.409 587.243C240.905 588.02 239.19 588.409 237.262 588.409C235.254 588.409 233.493 587.985 231.979 587.137C230.466 586.29 229.29 585.099 228.453 583.565C227.615 582.021 227.196 580.235 227.196 578.207C227.196 576.138 227.625 574.316 228.483 572.742C229.341 571.158 230.542 569.927 232.085 569.049C233.639 568.171 235.421 567.732 237.429 567.732C239.043 567.732 240.507 568.014 241.818 568.58C243.14 569.145 244.235 569.942 245.103 570.971C245.971 571.99 246.541 573.161 246.813 574.483H242.938C242.545 573.413 241.849 572.581 240.85 571.985C239.851 571.38 238.675 571.077 237.323 571.077C235.355 571.077 233.801 571.723 232.661 573.015C231.52 574.306 230.95 576.017 230.95 578.146C230.95 580.275 231.525 581.955 232.676 583.187C233.836 584.408 235.395 585.018 237.353 585.018C238.988 585.018 240.34 584.609 241.41 583.792C242.489 582.965 243.135 581.804 243.347 580.311H237.05V577.208H247.222ZM263.388 583.686C263.085 585.099 262.313 586.239 261.072 587.107C259.831 587.975 258.353 588.409 256.637 588.409C255.214 588.409 253.958 588.101 252.868 587.485C251.788 586.86 250.946 585.992 250.34 584.882C249.745 583.762 249.447 582.475 249.447 581.022C249.447 579.559 249.75 578.282 250.355 577.192C250.971 576.092 251.814 575.245 252.883 574.649C253.963 574.044 255.184 573.741 256.546 573.741C257.889 573.741 259.074 574.029 260.104 574.604C261.143 575.169 261.945 575.946 262.51 576.935C263.075 577.924 263.358 579.059 263.358 580.341C263.358 581.027 263.307 581.597 263.207 582.051H252.853C252.893 583.101 253.257 583.948 253.943 584.594C254.639 585.23 255.537 585.548 256.637 585.548C257.465 585.548 258.176 585.386 258.771 585.063C259.377 584.73 259.791 584.271 260.013 583.686H263.388ZM259.831 579.72C259.811 578.751 259.488 577.99 258.862 577.435C258.247 576.869 257.444 576.587 256.456 576.587C255.446 576.587 254.614 576.875 253.958 577.45C253.302 578.015 252.954 578.772 252.914 579.72H259.831ZM273.091 574.044C273.545 574.054 273.979 574.099 274.393 574.18V577.147C274.019 577.107 273.747 577.086 273.575 577.086C272.334 577.086 271.375 577.435 270.699 578.131C270.033 578.817 269.7 579.791 269.7 581.052V588H266.234V574.18H269.367L269.67 576.163C269.872 575.477 270.28 574.952 270.896 574.589C271.512 574.226 272.243 574.044 273.091 574.044ZM293.102 573.741C294.595 573.741 295.801 574.2 296.719 575.119C297.638 576.037 298.097 577.293 298.097 578.888V588H294.661V579.72C294.661 578.731 294.424 577.99 293.949 577.495C293.485 577.001 292.864 576.753 292.087 576.753C291.179 576.753 290.468 577.046 289.953 577.631C289.449 578.217 289.196 578.963 289.196 579.872V588H285.791V579.72C285.791 578.792 285.553 578.065 285.079 577.541C284.605 577.016 283.954 576.753 283.126 576.753C282.279 576.753 281.598 577.051 281.083 577.646C280.578 578.242 280.326 578.984 280.326 579.872V588H276.86V574.18H280.023L280.205 575.664C280.619 575.068 281.179 574.599 281.885 574.256C282.602 573.913 283.364 573.741 284.171 573.741C285.18 573.741 286.083 573.973 286.88 574.438C287.678 574.902 288.253 575.537 288.606 576.345C289.02 575.517 289.615 574.876 290.392 574.422C291.169 573.968 292.072 573.741 293.102 573.741ZM315.822 574.18V588H312.507V586.047C312.033 586.774 311.351 587.349 310.463 587.773C309.585 588.197 308.602 588.409 307.512 588.409C306.23 588.409 305.09 588.111 304.091 587.516C303.102 586.91 302.335 586.062 301.79 584.973C301.245 583.873 300.973 582.596 300.973 581.143C300.973 579.68 301.26 578.388 301.835 577.268C302.411 576.138 303.213 575.27 304.242 574.665C305.282 574.049 306.472 573.741 307.814 573.741C308.864 573.741 309.807 573.933 310.645 574.316C311.493 574.7 312.164 575.24 312.658 575.936L312.931 574.18H315.822ZM308.375 585.275C309.535 585.275 310.479 584.882 311.205 584.095C311.942 583.308 312.31 582.283 312.31 581.022C312.31 579.761 311.952 578.751 311.235 577.995C310.529 577.228 309.585 576.844 308.405 576.844C307.224 576.844 306.276 577.233 305.559 578.01C304.853 578.777 304.5 579.791 304.5 581.052C304.5 582.314 304.858 583.333 305.574 584.11C306.291 584.887 307.224 585.275 308.375 585.275ZM327.174 573.741C328.779 573.741 330.045 574.251 330.974 575.27C331.912 576.279 332.381 577.672 332.381 579.448V588H328.9V580.25C328.9 578 327.982 576.875 326.145 576.875C325.156 576.875 324.389 577.162 323.844 577.737C323.309 578.312 323.042 579.09 323.042 580.068V588H319.606V574.18H322.482L322.739 575.845C323.173 575.209 323.789 574.7 324.586 574.316C325.383 573.933 326.246 573.741 327.174 573.741ZM349.229 574.18L342.871 590.452C342.356 591.734 341.69 592.743 340.873 593.479C340.056 594.226 338.87 594.6 337.316 594.6C336.468 594.6 335.631 594.499 334.803 594.297L334.849 591.436C335.616 591.577 336.241 591.653 336.726 591.663C337.674 591.663 338.355 591.486 338.769 591.133C339.193 590.78 339.526 590.24 339.768 589.514L340.146 588.56L334.228 574.18H337.967L341.721 584.307L345.565 574.18H349.229Z" fill="#13615F"/>
<rect x="150.076" y="559" width="49" height="35" rx="2.69231" fill="white"/>
<mask id="mask4" mask-type="alpha" maskUnits="userSpaceOnUse" x="150" y="559" width="50" height="35">
<rect x="150.076" y="559" width="49" height="35" rx="2.69231" fill="white"/>
</mask>
<g mask="url(#mask4)">
<path fill-rule="evenodd" clip-rule="evenodd" d="M150.076 570.667H199.076V559H150.076V570.667Z" fill="#262626"/>
<g filter="url(#filter2_d)">
<path fill-rule="evenodd" clip-rule="evenodd" d="M150.076 582.333H199.076V570.667H150.076V582.333Z" fill="#F01515"/>
</g>
<g filter="url(#filter3_d)">
<path fill-rule="evenodd" clip-rule="evenodd" d="M150.076 594H199.076V582.333H150.076V594Z" fill="#FFD521"/>
</g>
</g>
<path d="M441.068 575.875C442.076 575.875 442.975 576.094 443.764 576.531C444.561 576.969 445.182 577.578 445.627 578.359C446.08 579.133 446.307 580.008 446.307 580.984C446.307 582.008 446.053 582.918 445.545 583.715C445.045 584.504 444.361 585.117 443.494 585.555C442.635 585.992 441.666 586.211 440.588 586.211C439.518 586.211 438.561 585.996 437.717 585.566C436.881 585.137 436.225 584.535 435.748 583.762C435.279 582.98 435.045 582.086 435.045 581.078H437.764C437.764 581.875 438.025 582.531 438.549 583.047C439.08 583.562 439.752 583.82 440.564 583.82C441.416 583.82 442.119 583.555 442.674 583.023C443.236 582.492 443.518 581.805 443.518 580.961C443.518 580.133 443.248 579.457 442.709 578.934C442.178 578.41 441.471 578.148 440.588 578.148C440.041 578.148 439.533 578.258 439.064 578.477C438.596 578.695 438.232 578.988 437.975 579.355L435.361 579.039L437.354 570.613H445.393V572.992H439.416L438.525 576.473C439.213 576.074 440.061 575.875 441.068 575.875ZM454.193 586.27C452.975 586.27 451.92 585.949 451.029 585.309C450.146 584.668 449.471 583.754 449.002 582.566C448.541 581.371 448.311 579.957 448.311 578.324C448.311 575.848 448.826 573.898 449.857 572.477C450.889 571.047 452.334 570.332 454.193 570.332C455.428 570.332 456.486 570.652 457.369 571.293C458.26 571.926 458.939 572.844 459.408 574.047C459.885 575.25 460.123 576.676 460.123 578.324C460.123 579.957 459.885 581.371 459.408 582.566C458.939 583.754 458.26 584.668 457.369 585.309C456.479 585.949 455.42 586.27 454.193 586.27ZM454.217 583.82C455.24 583.82 456.01 583.344 456.525 582.391C457.049 581.438 457.311 580.082 457.311 578.324C457.311 576.566 457.049 575.207 456.525 574.246C456.01 573.285 455.24 572.805 454.217 572.805C453.193 572.805 452.416 573.281 451.885 574.234C451.361 575.18 451.1 576.543 451.1 578.324C451.1 580.066 451.361 581.418 451.885 582.379C452.416 583.34 453.193 583.82 454.217 583.82ZM462.854 582.684C463.432 582.684 463.916 582.887 464.307 583.293C464.697 583.691 464.893 584.227 464.893 584.898C464.893 585.984 464.537 586.891 463.826 587.617C463.115 588.344 462.201 588.758 461.084 588.859V588.016C461.787 587.906 462.33 587.656 462.713 587.266C463.096 586.883 463.279 586.445 463.264 585.953C463.107 586.031 462.908 586.07 462.666 586.07C462.205 586.07 461.818 585.926 461.506 585.637C461.193 585.348 461.037 584.957 461.037 584.465C461.037 583.949 461.205 583.523 461.541 583.188C461.877 582.852 462.314 582.684 462.854 582.684ZM475.521 577.82C476.271 578.125 476.857 578.613 477.279 579.285C477.701 579.957 477.912 580.723 477.912 581.582C477.912 582.527 477.666 583.348 477.174 584.043C476.689 584.738 476.025 585.273 475.182 585.648C474.346 586.023 473.4 586.211 472.346 586.211C471.275 586.211 470.311 586.023 469.451 585.648C468.6 585.273 467.932 584.734 467.447 584.031C466.971 583.328 466.732 582.504 466.732 581.559C466.732 580.691 466.947 579.93 467.377 579.273C467.814 578.609 468.393 578.117 469.111 577.797C468.549 577.461 468.096 576.996 467.752 576.402C467.408 575.809 467.236 575.168 467.236 574.48C467.236 573.684 467.451 572.973 467.881 572.348C468.318 571.723 468.924 571.23 469.697 570.871C470.471 570.512 471.354 570.332 472.346 570.332C473.338 570.332 474.217 570.512 474.982 570.871C475.756 571.23 476.357 571.727 476.787 572.359C477.217 572.992 477.432 573.707 477.432 574.504C477.432 575.223 477.256 575.879 476.904 576.473C476.553 577.066 476.092 577.516 475.521 577.82ZM472.322 572.723C471.619 572.723 471.045 572.91 470.6 573.285C470.162 573.652 469.943 574.129 469.943 574.715C469.943 575.324 470.17 575.82 470.623 576.203C471.084 576.578 471.658 576.766 472.346 576.766C473.033 576.766 473.6 576.578 474.045 576.203C474.498 575.82 474.725 575.332 474.725 574.738C474.725 574.129 474.502 573.641 474.057 573.273C473.619 572.906 473.041 572.723 472.322 572.723ZM472.322 583.82C473.158 583.82 473.838 583.602 474.361 583.164C474.893 582.719 475.158 582.145 475.158 581.441C475.158 580.723 474.893 580.152 474.361 579.73C473.838 579.301 473.166 579.086 472.346 579.086C471.518 579.086 470.834 579.301 470.295 579.73C469.756 580.152 469.486 580.715 469.486 581.418C469.486 582.137 469.756 582.719 470.295 583.164C470.834 583.602 471.51 583.82 472.322 583.82ZM489.479 570.613V572.758L483.408 586H480.502L486.432 572.992H479.377V570.613H489.479ZM490.779 573.156C492.045 573.156 492.998 572.945 493.639 572.523C494.287 572.102 494.717 571.465 494.928 570.613H497.354V586H494.611V575.219H490.779V573.156Z" fill="#035755"/>
<path d="M530.424 571.383C531.024 570.663 532.129 570.663 532.729 571.383L541.026 581.34C541.84 582.317 541.145 583.8 539.874 583.8H523.279C522.007 583.8 521.312 582.317 522.126 581.34L530.424 571.383Z" fill="#F44A45"/>
<path d="M228.301 664V644.125H231.934V664H228.301ZM242.757 650.044C243.211 650.054 243.645 650.099 244.059 650.18V653.147C243.685 653.107 243.413 653.086 243.241 653.086C242 653.086 241.041 653.435 240.365 654.131C239.699 654.817 239.366 655.791 239.366 657.052V664H235.9V650.18H239.033L239.336 652.163C239.538 651.477 239.946 650.952 240.562 650.589C241.178 650.226 241.909 650.044 242.757 650.044ZM260.391 650.18V664H257.076V662.047C256.602 662.774 255.921 663.349 255.033 663.773C254.155 664.197 253.171 664.409 252.081 664.409C250.799 664.409 249.659 664.111 248.66 663.516C247.671 662.91 246.904 662.062 246.359 660.973C245.814 659.873 245.542 658.596 245.542 657.143C245.542 655.68 245.83 654.388 246.405 653.268C246.98 652.138 247.782 651.27 248.812 650.665C249.851 650.049 251.042 649.741 252.384 649.741C253.433 649.741 254.377 649.933 255.214 650.316C256.062 650.7 256.733 651.24 257.228 651.936L257.5 650.18H260.391ZM252.944 661.275C254.104 661.275 255.048 660.882 255.774 660.095C256.511 659.308 256.879 658.283 256.879 657.022C256.879 655.761 256.521 654.751 255.805 653.995C255.098 653.228 254.155 652.844 252.974 652.844C251.793 652.844 250.845 653.233 250.128 654.01C249.422 654.777 249.069 655.791 249.069 657.052C249.069 658.314 249.427 659.333 250.144 660.11C250.86 660.887 251.793 661.275 252.944 661.275ZM271.744 649.741C273.348 649.741 274.615 650.251 275.543 651.27C276.481 652.279 276.951 653.672 276.951 655.448V664H273.469V656.25C273.469 654 272.551 652.875 270.714 652.875C269.725 652.875 268.958 653.162 268.414 653.737C267.879 654.312 267.611 655.09 267.611 656.068V664H264.175V650.18H267.051L267.309 651.845C267.743 651.209 268.358 650.7 269.155 650.316C269.952 649.933 270.815 649.741 271.744 649.741Z" fill="#13615F"/>
<rect x="150.413" y="635.337" width="48.3269" height="34.3269" rx="2.35577" fill="white" stroke="#F5F5F5" stroke-width="0.673077"/>
<mask id="mask5" mask-type="alpha" maskUnits="userSpaceOnUse" x="150" y="635" width="50" height="35">
<rect x="150.413" y="635.337" width="48.3269" height="34.3269" rx="2.35577" fill="white" stroke="white" stroke-width="0.673077"/>
</mask>
<g mask="url(#mask5)">
<path fill-rule="evenodd" clip-rule="evenodd" d="M150.076 646.667H199.076V635H150.076V646.667Z" fill="#38BB56"/>
<path fill-rule="evenodd" clip-rule="evenodd" d="M150.076 670H199.076V658.333H150.076V670Z" fill="#DE1B27"/>
<path fill-rule="evenodd" clip-rule="evenodd" d="M152.857 644.333C152.609 644.333 152.408 644.534 152.408 644.782V646.218C152.408 646.465 152.609 646.666 152.857 646.666H154.293C154.541 646.666 154.742 646.465 154.742 646.218V644.782C154.742 644.534 154.541 644.333 154.293 644.333H152.857ZM157.524 644.333C157.276 644.333 157.075 644.534 157.075 644.782V646.218C157.075 646.465 157.276 646.666 157.524 646.666H158.96C159.208 646.666 159.408 646.465 159.408 646.218V644.782C159.408 644.534 159.208 644.333 158.96 644.333H157.524ZM161.742 644.782C161.742 644.534 161.943 644.333 162.191 644.333H163.627C163.874 644.333 164.075 644.534 164.075 644.782V646.218C164.075 646.465 163.874 646.666 163.627 646.666H162.191C161.943 646.666 161.742 646.465 161.742 646.218V644.782ZM166.858 644.333C166.61 644.333 166.409 644.534 166.409 644.782V646.218C166.409 646.465 166.61 646.666 166.858 646.666H168.293C168.541 646.666 168.742 646.465 168.742 646.218V644.782C168.742 644.534 168.541 644.333 168.293 644.333H166.858ZM171.076 644.782C171.076 644.534 171.277 644.333 171.524 644.333H172.96C173.208 644.333 173.409 644.534 173.409 644.782V646.218C173.409 646.465 173.208 646.666 172.96 646.666H171.524C171.277 646.666 171.076 646.465 171.076 646.218V644.782ZM176.191 644.333C175.943 644.333 175.743 644.534 175.743 644.782V646.218C175.743 646.465 175.943 646.666 176.191 646.666H177.627C177.875 646.666 178.076 646.465 178.076 646.218V644.782C178.076 644.534 177.875 644.333 177.627 644.333H176.191ZM180.409 644.782C180.409 644.534 180.61 644.333 180.858 644.333H182.294C182.542 644.333 182.743 644.534 182.743 644.782V646.218C182.743 646.465 182.542 646.666 182.294 646.666H180.858C180.61 646.666 180.409 646.465 180.409 646.218V644.782ZM185.525 644.333C185.277 644.333 185.076 644.534 185.076 644.782V646.218C185.076 646.465 185.277 646.666 185.525 646.666H186.961C187.209 646.666 187.41 646.465 187.41 646.218V644.782C187.41 644.534 187.209 644.333 186.961 644.333H185.525ZM189.74 644.782C189.74 644.534 189.941 644.333 190.189 644.333H191.625C191.873 644.333 192.074 644.534 192.074 644.782V646.218C192.074 646.465 191.873 646.666 191.625 646.666H190.189C189.941 646.666 189.74 646.465 189.74 646.218V644.782ZM194.856 644.333C194.608 644.333 194.407 644.534 194.407 644.782V646.218C194.407 646.465 194.608 646.666 194.856 646.666H196.292C196.54 646.666 196.741 646.465 196.741 646.218V644.782C196.741 644.534 196.54 644.333 196.292 644.333H194.856ZM152.408 658.782C152.408 658.534 152.609 658.333 152.857 658.333H154.293C154.541 658.333 154.742 658.534 154.742 658.782V660.217C154.742 660.465 154.541 660.666 154.293 660.666H152.857C152.609 660.666 152.408 660.465 152.408 660.217V658.782ZM157.524 658.333C157.276 658.333 157.075 658.534 157.075 658.782V660.217C157.075 660.465 157.276 660.666 157.524 660.666H158.96C159.208 660.666 159.408 660.465 159.408 660.217V658.782C159.408 658.534 159.208 658.333 158.96 658.333H157.524ZM161.742 658.782C161.742 658.534 161.943 658.333 162.191 658.333H163.627C163.874 658.333 164.075 658.534 164.075 658.782V660.217C164.075 660.465 163.874 660.666 163.627 660.666H162.191C161.943 660.666 161.742 660.465 161.742 660.217V658.782ZM166.858 658.333C166.61 658.333 166.409 658.534 166.409 658.782V660.217C166.409 660.465 166.61 660.666 166.858 660.666H168.293C168.541 660.666 168.742 660.465 168.742 660.217V658.782C168.742 658.534 168.541 658.333 168.293 658.333H166.858ZM171.076 658.782C171.076 658.534 171.277 658.333 171.524 658.333H172.96C173.208 658.333 173.409 658.534 173.409 658.782V660.217C173.409 660.465 173.208 660.666 172.96 660.666H171.524C171.277 660.666 171.076 660.465 171.076 660.217V658.782ZM176.191 658.333C175.943 658.333 175.743 658.534 175.743 658.782V660.217C175.743 660.465 175.943 660.666 176.191 660.666H177.627C177.875 660.666 178.076 660.465 178.076 660.217V658.782C178.076 658.534 177.875 658.333 177.627 658.333H176.191ZM180.409 658.782C180.409 658.534 180.61 658.333 180.858 658.333H182.294C182.542 658.333 182.743 658.534 182.743 658.782V660.217C182.743 660.465 182.542 660.666 182.294 660.666H180.858C180.61 660.666 180.409 660.465 180.409 660.217V658.782ZM185.525 658.333C185.277 658.333 185.076 658.534 185.076 658.782V660.217C185.076 660.465 185.277 660.666 185.525 660.666H186.961C187.209 660.666 187.41 660.465 187.41 660.217V658.782C187.41 658.534 187.209 658.333 186.961 658.333H185.525ZM189.74 658.782C189.74 658.534 189.941 658.333 190.189 658.333H191.625C191.873 658.333 192.074 658.534 192.074 658.782V660.217C192.074 660.465 191.873 660.666 191.625 660.666H190.189C189.941 660.666 189.74 660.465 189.74 660.217V658.782ZM194.856 658.333C194.608 658.333 194.407 658.534 194.407 658.782V660.217C194.407 660.465 194.608 660.666 194.856 660.666H196.292C196.54 660.666 196.741 660.465 196.741 660.217V658.782C196.741 658.534 196.54 658.333 196.292 658.333H194.856Z" fill="white" fill-opacity="0.5"/>
<mask id="path-53-inside-1" fill="white">
<path fill-rule="evenodd" clip-rule="evenodd" d="M172.219 649.912C171.517 650.552 171.076 651.475 171.076 652.5C171.076 654.433 172.643 656 174.576 656C176.509 656 178.076 654.433 178.076 652.5C178.076 651.494 177.651 650.587 176.972 649.949"/>
</mask>
<path d="M171.615 649.249C170.733 650.052 170.178 651.212 170.178 652.5H171.973C171.973 651.738 172.3 651.053 172.824 650.576L171.615 649.249ZM170.178 652.5C170.178 654.929 172.147 656.898 174.576 656.898V655.103C173.138 655.103 171.973 653.937 171.973 652.5H170.178ZM174.576 656.898C177.004 656.898 178.973 654.929 178.973 652.5H177.178C177.178 653.937 176.013 655.103 174.576 655.103V656.898ZM178.973 652.5C178.973 651.236 178.439 650.096 177.586 649.295L176.357 650.603C176.864 651.079 177.178 651.752 177.178 652.5H178.973Z" fill="#D80915" mask="url(#path-53-inside-1)"/>
<rect x="173.41" y="651.333" width="2.33333" height="4.66667" rx="0.897436" fill="#D80915"/>
</g>
<path d="M437.553 652.496C438.857 652.637 439.9 653.129 440.682 653.973C441.471 654.809 441.865 655.875 441.865 657.172C441.865 658.164 441.623 659.047 441.139 659.82C440.662 660.586 439.998 661.18 439.146 661.602C438.303 662.023 437.346 662.234 436.275 662.234C435.221 662.234 434.271 662.023 433.428 661.602C432.592 661.18 431.939 660.578 431.471 659.797C431.01 659.008 430.787 658.102 430.803 657.078H433.51C433.51 657.891 433.771 658.551 434.295 659.059C434.818 659.566 435.494 659.82 436.322 659.82C437.135 659.82 437.807 659.574 438.338 659.082C438.869 658.582 439.135 657.922 439.135 657.102C439.135 656.336 438.9 655.73 438.432 655.285C437.971 654.832 437.35 654.574 436.568 654.512C436.295 654.48 435.748 654.465 434.928 654.465H434.037V652.613L437.717 648.992H431.717V646.613H441.127V648.945L437.553 652.496ZM448.369 659.527H454.064V662H444.338V660.031L449.811 654.102C450.271 653.609 450.643 653.125 450.924 652.648C451.205 652.164 451.346 651.633 451.346 651.055C451.346 650.383 451.127 649.84 450.689 649.426C450.26 649.012 449.693 648.805 448.99 648.805C448.178 648.805 447.541 649.062 447.08 649.578C446.627 650.086 446.439 650.723 446.518 651.488H443.834C443.771 650.496 443.959 649.609 444.396 648.828C444.842 648.039 445.479 647.426 446.307 646.988C447.143 646.551 448.088 646.332 449.143 646.332C450.119 646.332 450.982 646.52 451.732 646.895C452.482 647.27 453.064 647.801 453.479 648.488C453.9 649.176 454.111 649.969 454.111 650.867C454.111 651.844 453.908 652.68 453.502 653.375C453.104 654.07 452.568 654.801 451.896 655.566L448.369 659.527ZM457.697 658.684C458.275 658.684 458.76 658.887 459.15 659.293C459.541 659.691 459.736 660.227 459.736 660.898C459.736 661.984 459.381 662.891 458.67 663.617C457.959 664.344 457.045 664.758 455.928 664.859V664.016C456.631 663.906 457.174 663.656 457.557 663.266C457.939 662.883 458.123 662.445 458.107 661.953C457.951 662.031 457.752 662.07 457.51 662.07C457.049 662.07 456.662 661.926 456.35 661.637C456.037 661.348 455.881 660.957 455.881 660.465C455.881 659.949 456.049 659.523 456.385 659.188C456.721 658.852 457.158 658.684 457.697 658.684ZM468.467 652.496C469.771 652.637 470.814 653.129 471.596 653.973C472.385 654.809 472.779 655.875 472.779 657.172C472.779 658.164 472.537 659.047 472.053 659.82C471.576 660.586 470.912 661.18 470.061 661.602C469.217 662.023 468.26 662.234 467.189 662.234C466.135 662.234 465.186 662.023 464.342 661.602C463.506 661.18 462.854 660.578 462.385 659.797C461.924 659.008 461.701 658.102 461.717 657.078H464.424C464.424 657.891 464.686 658.551 465.209 659.059C465.732 659.566 466.408 659.82 467.236 659.82C468.049 659.82 468.721 659.574 469.252 659.082C469.783 658.582 470.049 657.922 470.049 657.102C470.049 656.336 469.814 655.73 469.346 655.285C468.885 654.832 468.264 654.574 467.482 654.512C467.209 654.48 466.662 654.465 465.842 654.465H464.951V652.613L468.631 648.992H462.631V646.613H472.041V648.945L468.467 652.496ZM481.545 652.496C482.85 652.637 483.893 653.129 484.674 653.973C485.463 654.809 485.857 655.875 485.857 657.172C485.857 658.164 485.615 659.047 485.131 659.82C484.654 660.586 483.99 661.18 483.139 661.602C482.295 662.023 481.338 662.234 480.268 662.234C479.213 662.234 478.264 662.023 477.42 661.602C476.584 661.18 475.932 660.578 475.463 659.797C475.002 659.008 474.779 658.102 474.795 657.078H477.502C477.502 657.891 477.764 658.551 478.287 659.059C478.811 659.566 479.486 659.82 480.314 659.82C481.127 659.82 481.799 659.574 482.33 659.082C482.861 658.582 483.127 657.922 483.127 657.102C483.127 656.336 482.893 655.73 482.424 655.285C481.963 654.832 481.342 654.574 480.561 654.512C480.287 654.48 479.74 654.465 478.92 654.465H478.029V652.613L481.709 648.992H475.709V646.613H485.119V648.945L481.545 652.496ZM492.361 659.527H498.057V662H488.33V660.031L493.803 654.102C494.264 653.609 494.635 653.125 494.916 652.648C495.197 652.164 495.338 651.633 495.338 651.055C495.338 650.383 495.119 649.84 494.682 649.426C494.252 649.012 493.686 648.805 492.982 648.805C492.17 648.805 491.533 649.062 491.072 649.578C490.619 650.086 490.432 650.723 490.51 651.488H487.826C487.764 650.496 487.951 649.609 488.389 648.828C488.834 648.039 489.471 647.426 490.299 646.988C491.135 646.551 492.08 646.332 493.135 646.332C494.111 646.332 494.975 646.52 495.725 646.895C496.475 647.27 497.057 647.801 497.471 648.488C497.893 649.176 498.104 649.969 498.104 650.867C498.104 651.844 497.9 652.68 497.494 653.375C497.096 654.07 496.561 654.801 495.889 655.566L492.361 659.527Z" fill="#035755"/>
<path d="M530.424 647.383C531.024 646.663 532.129 646.663 532.729 647.383L541.026 657.34C541.84 658.317 541.145 659.8 539.874 659.8H523.279C522.007 659.8 521.312 658.317 522.126 657.34L530.424 647.383Z" fill="#F44A45"/>
<path d="M171.92 183.914V189H153.521V158.227H159.193V183.914H171.92ZM178.717 163.406C177.623 163.406 176.725 163.062 176.021 162.375C175.318 161.688 174.967 160.836 174.967 159.82C174.967 158.789 175.318 157.938 176.021 157.266C176.725 156.594 177.623 156.258 178.717 156.258C179.811 156.258 180.693 156.594 181.365 157.266C182.053 157.938 182.396 158.789 182.396 159.82C182.396 160.805 182.045 161.648 181.342 162.352C180.639 163.055 179.764 163.406 178.717 163.406ZM176.021 167.602H181.389V189H176.021V167.602ZM190.717 167.602L193.131 174.117C193.803 176.07 194.443 177.93 195.053 179.695C195.662 181.445 196.061 182.641 196.248 183.281C196.467 182.641 196.943 181.297 197.678 179.25C198.412 177.203 199.053 175.492 199.6 174.117L202.154 167.602H207.709L198.779 189H193.459L184.975 167.602H190.717ZM230.631 182.32C230.162 184.508 228.967 186.273 227.045 187.617C225.123 188.961 222.834 189.633 220.178 189.633C217.975 189.633 216.029 189.156 214.342 188.203C212.67 187.234 211.365 185.891 210.428 184.172C209.506 182.438 209.045 180.445 209.045 178.195C209.045 175.93 209.514 173.953 210.451 172.266C211.404 170.562 212.709 169.25 214.365 168.328C216.037 167.391 217.928 166.922 220.037 166.922C222.115 166.922 223.951 167.367 225.545 168.258C227.154 169.133 228.396 170.336 229.271 171.867C230.146 173.398 230.584 175.156 230.584 177.141C230.584 178.203 230.506 179.086 230.35 179.789H214.318C214.381 181.414 214.943 182.727 216.006 183.727C217.084 184.711 218.475 185.203 220.178 185.203C221.459 185.203 222.561 184.953 223.482 184.453C224.42 183.938 225.061 183.227 225.404 182.32H230.631ZM225.123 176.18C225.092 174.68 224.592 173.5 223.623 172.641C222.67 171.766 221.428 171.328 219.896 171.328C218.334 171.328 217.045 171.773 216.029 172.664C215.014 173.539 214.475 174.711 214.412 176.18H225.123ZM246.943 158.227H259.154C262.904 158.227 265.748 159.062 267.686 160.734C269.639 162.391 270.615 164.758 270.615 167.836C270.615 169.977 270.115 171.805 269.115 173.32C268.131 174.82 266.74 175.906 264.943 176.578L270.803 189H264.521L259.342 177.539H252.568V189H246.943V158.227ZM259.154 172.641C260.982 172.641 262.365 172.203 263.303 171.328C264.24 170.438 264.709 169.289 264.709 167.883C264.709 166.477 264.232 165.344 263.279 164.484C262.342 163.609 260.967 163.172 259.154 163.172H252.568V172.641H259.154ZM295.225 182.32C294.756 184.508 293.561 186.273 291.639 187.617C289.717 188.961 287.428 189.633 284.771 189.633C282.568 189.633 280.623 189.156 278.936 188.203C277.264 187.234 275.959 185.891 275.021 184.172C274.1 182.438 273.639 180.445 273.639 178.195C273.639 175.93 274.107 173.953 275.045 172.266C275.998 170.562 277.303 169.25 278.959 168.328C280.631 167.391 282.521 166.922 284.631 166.922C286.709 166.922 288.545 167.367 290.139 168.258C291.748 169.133 292.99 170.336 293.865 171.867C294.74 173.398 295.178 175.156 295.178 177.141C295.178 178.203 295.1 179.086 294.943 179.789H278.912C278.975 181.414 279.537 182.727 280.6 183.727C281.678 184.711 283.068 185.203 284.771 185.203C286.053 185.203 287.154 184.953 288.076 184.453C289.014 183.938 289.654 183.227 289.998 182.32H295.225ZM289.717 176.18C289.686 174.68 289.186 173.5 288.217 172.641C287.264 171.766 286.021 171.328 284.49 171.328C282.928 171.328 281.639 171.773 280.623 172.664C279.607 173.539 279.068 174.711 279.006 176.18H289.717ZM312.17 166.922C314.186 166.922 315.982 167.398 317.561 168.352C319.139 169.289 320.373 170.617 321.264 172.336C322.17 174.039 322.623 176.008 322.623 178.242C322.623 180.477 322.17 182.461 321.264 184.195C320.373 185.93 319.139 187.273 317.561 188.227C315.982 189.164 314.162 189.633 312.1 189.633C310.568 189.633 309.178 189.375 307.928 188.859C306.678 188.344 305.686 187.609 304.951 186.656V198.844H299.631V167.602H304.037L304.436 170.672C305.201 169.516 306.264 168.602 307.623 167.93C308.982 167.258 310.498 166.922 312.17 166.922ZM311.092 184.781C312.92 184.781 314.381 184.18 315.475 182.977C316.584 181.773 317.139 180.211 317.139 178.289C317.139 176.336 316.584 174.766 315.475 173.578C314.381 172.375 312.936 171.773 311.139 171.773C309.342 171.773 307.881 172.375 306.756 173.578C305.646 174.766 305.092 176.352 305.092 178.336C305.092 180.289 305.646 181.852 306.756 183.023C307.865 184.195 309.311 184.781 311.092 184.781ZM326.092 178.289C326.092 176.117 326.584 174.172 327.568 172.453C328.568 170.719 329.951 169.367 331.717 168.398C333.498 167.414 335.521 166.922 337.787 166.922C340.053 166.922 342.076 167.414 343.857 168.398C345.639 169.367 347.021 170.719 348.006 172.453C349.006 174.172 349.506 176.117 349.506 178.289C349.506 180.43 349.006 182.367 348.006 184.102C347.021 185.836 345.639 187.195 343.857 188.18C342.092 189.148 340.068 189.633 337.787 189.633C335.521 189.633 333.498 189.148 331.717 188.18C329.951 187.195 328.568 185.844 327.568 184.125C326.584 182.391 326.092 180.445 326.092 178.289ZM331.6 178.242C331.6 180.164 332.178 181.742 333.334 182.977C334.49 184.211 335.975 184.828 337.787 184.828C339.646 184.828 341.154 184.211 342.311 182.977C343.467 181.742 344.045 180.164 344.045 178.242C344.045 176.32 343.467 174.75 342.311 173.531C341.154 172.297 339.646 171.68 337.787 171.68C335.959 171.68 334.467 172.297 333.311 173.531C332.17 174.75 331.6 176.32 331.6 178.242ZM364.717 167.391C365.42 167.406 366.092 167.477 366.732 167.602V172.195C366.154 172.133 365.732 172.102 365.467 172.102C363.545 172.102 362.061 172.641 361.014 173.719C359.982 174.781 359.467 176.289 359.467 178.242V189H354.1V167.602H358.951L359.42 170.672C359.732 169.609 360.365 168.797 361.318 168.234C362.271 167.672 363.404 167.391 364.717 167.391ZM382.857 172.008H378.779V189H373.412V172.008H369.334V167.602H373.412V161.977H378.779V167.602H382.857V172.008ZM395.256 189.633C392.6 189.633 390.436 189.008 388.764 187.758C387.107 186.508 386.217 184.828 386.092 182.719H391.365C391.428 183.641 391.811 184.352 392.514 184.852C393.217 185.352 394.115 185.602 395.209 185.602C396.303 185.602 397.146 185.391 397.74 184.969C398.35 184.547 398.654 183.938 398.654 183.141C398.654 182.406 398.412 181.875 397.928 181.547C397.459 181.203 396.842 180.953 396.076 180.797L392.467 179.93C390.451 179.477 388.967 178.719 388.014 177.656C387.076 176.578 386.607 175.289 386.607 173.789C386.607 171.711 387.396 170.047 388.975 168.797C390.568 167.547 392.631 166.922 395.162 166.922C397.693 166.922 399.74 167.547 401.303 168.797C402.865 170.047 403.678 171.695 403.74 173.742H398.467C398.467 172.883 398.154 172.203 397.529 171.703C396.904 171.203 396.084 170.953 395.068 170.953C394.146 170.953 393.412 171.156 392.865 171.562C392.318 171.953 392.045 172.516 392.045 173.25C392.045 173.984 392.256 174.5 392.678 174.797C393.115 175.078 393.748 175.32 394.576 175.523L398.701 176.461C400.561 176.914 401.936 177.688 402.826 178.781C403.732 179.859 404.186 181.156 404.186 182.672C404.186 184.781 403.373 186.469 401.748 187.734C400.139 189 397.975 189.633 395.256 189.633Z" fill="#035755"/>
<g filter="url(#filter4_d)">
<rect x="457.076" y="151" width="86.0003" height="48.954" rx="6.16667" fill="white"/>
</g>
<path d="M480.298 182.887L472.955 175.544L480.298 168.201" stroke="#A2A5B2" stroke-width="2.85" stroke-linecap="round" stroke-linejoin="round"/>
<path d="M519.261 168.068L526.604 175.411L519.261 182.754" stroke="#F44A45" stroke-width="2.85" stroke-linecap="round" stroke-linejoin="round"/>
<line x1="500.531" y1="166.669" x2="500.531" y2="184.021" stroke="#DEE1ED" stroke-width="2.23" stroke-linecap="round"/>
<defs>
<filter id="filter0_d" x="0.0761719" y="0" width="694" height="825" filterUnits="userSpaceOnUse" color-interpolation-filters="sRGB">
<feFlood flood-opacity="0" result="BackgroundImageFix"/>
<feColorMatrix in="SourceAlpha" type="matrix" values="0 0 0 0 0 0 0 0 0 0 0 0 0 0 0 0 0 0 127 0"/>
<feOffset dy="7"/>
<feGaussianBlur stdDeviation="47.5"/>
<feColorMatrix type="matrix" values="0 0 0 0 0 0 0 0 0 0 0 0 0 0 0 0 0 0 0.07 0"/>
<feBlend mode="normal" in2="BackgroundImageFix" result="effect1_dropShadow"/>
<feBlend mode="normal" in="SourceGraphic" in2="effect1_dropShadow" result="shape"/>
</filter>
<filter id="filter1_d" x="152.408" y="257.333" width="16.3339" height="13.0125" filterUnits="userSpaceOnUse" color-interpolation-filters="sRGB">
<feFlood flood-opacity="0" result="BackgroundImageFix"/>
<feColorMatrix in="SourceAlpha" type="matrix" values="0 0 0 0 0 0 0 0 0 0 0 0 0 0 0 0 0 0 127 0"/>
<feOffset dy="1.34615"/>
<feColorMatrix type="matrix" values="0 0 0 0 0 0 0 0 0 0 0 0 0 0 0 0 0 0 0.06 0"/>
<feBlend mode="normal" in2="BackgroundImageFix" result="effect1_dropShadow"/>
<feBlend mode="normal" in="SourceGraphic" in2="effect1_dropShadow" result="shape"/>
</filter>
<filter id="filter2_d" x="150.076" y="570.667" width="49" height="11.6667" filterUnits="userSpaceOnUse" color-interpolation-filters="sRGB">
<feFlood flood-opacity="0" result="BackgroundImageFix"/>
<feColorMatrix in="SourceAlpha" type="matrix" values="0 0 0 0 0 0 0 0 0 0 0 0 0 0 0 0 0 0 127 0"/>
<feOffset/>
<feColorMatrix type="matrix" values="0 0 0 0 0 0 0 0 0 0 0 0 0 0 0 0 0 0 0.06 0"/>
<feBlend mode="normal" in2="BackgroundImageFix" result="effect1_dropShadow"/>
<feBlend mode="normal" in="SourceGraphic" in2="effect1_dropShadow" result="shape"/>
</filter>
<filter id="filter3_d" x="150.076" y="582.333" width="49" height="11.6667" filterUnits="userSpaceOnUse" color-interpolation-filters="sRGB">
<feFlood flood-opacity="0" result="BackgroundImageFix"/>
<feColorMatrix in="SourceAlpha" type="matrix" values="0 0 0 0 0 0 0 0 0 0 0 0 0 0 0 0 0 0 127 0"/>
<feOffset/>
<feColorMatrix type="matrix" values="0 0 0 0 0 0 0 0 0 0 0 0 0 0 0 0 0 0 0.06 0"/>
<feBlend mode="normal" in2="BackgroundImageFix" result="effect1_dropShadow"/>
<feBlend mode="normal" in="SourceGraphic" in2="effect1_dropShadow" result="shape"/>
</filter>
<filter id="filter4_d" x="407.076" y="106" width="186" height="148.954" filterUnits="userSpaceOnUse" color-interpolation-filters="sRGB">
<feFlood flood-opacity="0" result="BackgroundImageFix"/>
<feColorMatrix in="SourceAlpha" type="matrix" values="0 0 0 0 0 0 0 0 0 0 0 0 0 0 0 0 0 0 127 0"/>
<feOffset dy="5"/>
<feGaussianBlur stdDeviation="25"/>
<feColorMatrix type="matrix" values="0 0 0 0 0.341667 0 0 0 0 0.00333333 0 0 0 0 0 0 0 0 0.1 0"/>
<feBlend mode="normal" in2="BackgroundImageFix" result="effect1_dropShadow"/>
<feBlend mode="normal" in="SourceGraphic" in2="effect1_dropShadow" result="shape"/>
</filter>
<linearGradient id="paint0_linear" x1="330.076" y1="1227.5" x2="330.076" y2="54" gradientUnits="userSpaceOnUse">
<stop stop-color="#FFFBFB"/>
<stop offset="1" stop-color="#FDFDFD"/>
</linearGradient>
<linearGradient id="paint1_linear" x1="152.408" y1="257.333" x2="152.408" y2="269" gradientUnits="userSpaceOnUse">
<stop stop-color="white"/>
<stop offset="1" stop-color="#F0F0F0"/>
</linearGradient>
</defs>
</svg>
