<svg width="158" height="388" viewBox="0 0 158 388" fill="none" xmlns="http://www.w3.org/2000/svg">
<path opacity="0.1" d="M364.204 186.633C358.205 186.382 352.977 190.978 351.43 197.364C342.131 197.98 331.514 198.098 319.872 197.212C313.397 196.708 307.244 195.948 301.493 195.029C301.538 193.909 301.568 192.777 301.582 191.645C301.65 186.138 301.317 180.72 300.648 175.415C303.613 173.174 307.313 170.825 311.791 168.829C319.544 165.338 326.774 164.153 332.349 163.855C335.002 170.174 341.229 173.908 347.25 172.389C354.04 170.68 358.013 162.977 356.097 155.182C354.197 147.385 347.17 142.439 340.381 144.148C334.2 145.712 330.353 152.247 331.16 159.299C326.257 162.046 318.974 165 310.001 165.114C305.578 165.178 301.707 164.528 298.572 163.713C296.678 155.467 293.918 147.554 290.354 140.08C294.26 136.589 298.87 132.894 304.262 129.338C312.067 124.174 319.583 120.504 326.176 117.882C330.392 123.007 337.186 124.777 342.491 121.753C348.584 118.287 350.38 109.781 346.523 102.774C342.666 95.7686 334.576 92.9089 328.483 96.3845C323.194 99.3981 321.131 106.214 323.225 112.539C317.536 116.904 310.552 121.501 302.185 125.574C296.5 128.359 291.062 130.463 286.142 132.053C282.219 125.2 277.621 118.797 272.424 112.941C274.543 105.513 278.065 96.8514 283.998 88.195C289.573 80.1019 295.711 74.2199 300.918 70.0959C306.556 73.7398 313.713 73.2729 317.841 68.6168C322.535 63.3431 321.587 54.7094 315.699 49.3303C309.842 43.9386 301.287 43.8434 296.609 49.1189C292.481 53.775 292.712 61.0326 296.877 66.3776C293.472 71.9282 288.343 78.8007 280.856 85.315C272.595 92.5026 264.338 96.7658 258.049 99.2838C250.998 93.665 243.299 88.8751 235.061 85.0599C236.299 81.6886 237.937 78.301 240.069 74.9779C241.778 72.3438 243.61 70.0308 245.454 68.013C251.727 70.6964 258.821 68.9084 262.064 63.4872C265.714 57.4335 263.198 49.1212 256.449 44.935C249.7 40.7472 241.284 42.2593 237.634 48.3243C234.44 53.6537 235.998 60.7249 241.003 65.1979C239.915 68.0164 238.602 70.9376 237.033 73.9124C235.251 77.3355 233.329 80.4861 231.298 83.3968C230.456 83.0443 229.63 82.7048 228.788 82.388C218.97 78.5161 208.481 76.0178 197.525 75.0806C195.782 70.1286 194.285 64.6461 193.257 58.6324C191.173 46.3615 191.719 35.7106 192.854 27.7204C199.318 26.5443 204.201 21.4628 204.277 15.3021C204.364 8.20239 198.034 2.36852 190.133 2.27165C182.217 2.17458 175.73 7.85129 175.643 14.951C175.566 21.2171 180.498 26.4903 187.092 27.7098C188.431 35.6152 189.238 46.667 186.878 59.4382C185.82 65.0597 184.304 70.1762 182.555 74.8032C172.03 75.2758 161.901 77.213 152.316 80.4171C151.017 78.257 149.848 75.9915 148.811 73.3238C146.768 68.0405 145.919 63.1027 145.602 58.997C151.819 55.8051 155.08 48.9892 152.983 42.8991C150.671 36.2015 142.745 32.9303 135.274 35.5959C127.818 38.2618 123.638 45.8512 125.967 52.5507C127.971 58.3298 134.141 61.5471 140.586 60.6092C142.421 64.5584 144.169 69.1066 145.511 74.2661C146.244 76.9983 146.77 79.668 147.169 82.2777C138.459 85.6596 130.279 90.1087 122.743 95.4611C118.852 92.5248 114.871 89.1234 110.944 85.147C101.91 75.9908 95.9263 66.6401 92.0111 59.1621C96.5095 54.2283 97.3792 47.0961 93.7206 42.1303C89.528 36.4477 80.9962 35.7494 74.6635 40.5683C68.3468 45.389 66.6141 53.9007 70.7908 59.5816C74.5125 64.6016 81.5865 65.7231 87.5633 62.5915C93.2766 67.9279 100.692 76.3246 106.356 88.3346C108.954 93.8274 110.741 99.1595 111.989 104.127C110.778 105.231 109.551 106.37 108.371 107.533C102.473 113.402 97.1727 119.916 92.6163 126.978C89.9922 126.176 87.2744 125.21 84.4952 124.034C75.4589 120.207 68.4782 115.384 63.4213 111.195C65.6707 104.803 63.6328 97.8519 58.2748 94.7825C52.2036 91.2939 44.1232 94.1403 40.2381 101.14C36.337 108.136 38.1165 116.637 44.2197 120.124C49.5618 123.191 56.4484 121.358 60.6792 116.116C66.8453 118.368 74.5276 121.954 82.4218 127.784C84.779 129.526 86.9281 131.314 88.9335 133.11C82.4874 144.575 77.9257 157.279 75.6687 170.797C70.2202 171.203 64.3439 171.358 58.0417 171.082C49.0432 170.692 40.9321 169.52 33.8465 168.038C33.7738 160.953 29.1859 154.967 22.8736 154.215C15.9237 153.387 9.54711 159.186 8.61917 167.166C7.70719 175.146 12.5843 182.284 19.5182 183.109C25.703 183.845 31.4094 179.328 33.2626 172.702C40.5389 172.941 48.7028 173.703 57.5422 175.36C63.674 176.507 69.3235 177.944 74.556 179.528C74.2629 182.601 74.1131 185.71 74.0745 188.856C73.9829 196.327 74.5797 203.641 75.8335 210.741C69.7506 214.719 61.3944 219.213 50.7727 222.311C41.4647 225.027 33.1054 225.888 26.4471 226.014C24.1302 219.686 18.2408 215.684 12.2091 216.789C5.3453 218.051 0.896215 225.481 2.29983 233.388C3.70343 241.295 10.4218 246.681 17.2856 245.419C23.2373 244.328 27.3461 238.625 27.4434 231.993C34.2863 229.826 42.3564 227.811 51.5189 226.548C62.0406 225.097 71.4764 224.986 79.4207 225.434C82.477 235.248 86.8336 244.485 92.2371 252.957C89.6098 255.016 86.6955 257.043 83.3999 258.931C77.1138 262.549 71.1002 264.773 65.8787 266.195C62.4373 260.445 55.8943 257.686 50.1836 259.948C43.6867 262.535 40.7292 270.696 43.6067 278.174C45.4169 282.867 49.0955 286.192 53.1997 287.363C55.6176 288.064 58.1883 288.014 60.6106 287.053C61.3165 286.767 62.0072 286.408 62.6351 285.98C67.3985 282.856 69.4905 276.284 67.5726 269.966C72.5202 267.449 78.2974 264.967 84.9311 262.943C89.2092 261.646 93.2754 260.71 97.0991 260.024C100.522 264.639 104.301 268.977 108.354 272.988C108.732 273.37 109.127 273.753 109.505 274.11C106.651 280.374 102.375 287.977 95.9756 295.66C89.7055 303.18 83.2214 308.631 77.7628 312.471C72.3999 308.498 65.2962 308.495 60.8852 312.817C55.8442 317.744 56.2166 326.431 61.7169 332.219C67.1854 337.994 75.7333 338.69 80.7583 333.761C85.1368 329.485 85.4315 322.366 81.8283 316.79C86.143 311.215 91.7593 304.939 98.9068 298.763C106.603 292.134 114.165 287.249 120.754 283.661C129.329 290.017 138.827 295.194 148.982 298.94C148.535 302.839 147.797 307.04 146.609 311.45C144.033 321.056 140.268 328.735 136.862 334.38C130.318 332.965 123.801 335.929 121.511 341.728C118.924 348.314 122.772 356.075 130.11 359.067C137.432 362.058 145.482 359.137 148.101 352.54C150.358 346.812 147.757 340.198 142.198 336.614C143.862 329.781 146.468 321.709 150.533 313.054C152.532 308.834 154.638 304.99 156.788 301.49C164.631 303.745 172.802 305.167 181.257 305.635C182.548 312.376 183.573 319.912 184.014 328.139C184.678 340.378 183.891 351.198 182.633 360.123C176.201 361.307 171.333 366.389 171.258 372.535C171.171 379.635 177.501 385.467 185.434 385.564C193.334 385.661 199.805 379.986 199.892 372.886C199.967 366.764 195.258 361.575 188.889 360.211C187.932 351.058 187.49 340.249 188.244 328.191C188.759 320.057 189.761 312.557 190.993 305.778C199.84 305.544 208.428 304.27 216.644 302.07C217.331 303.304 218.002 304.587 218.656 305.906C223.003 314.604 225.298 322.737 226.512 329.238C220.772 332.53 217.787 339.028 219.775 344.88C222.023 351.594 229.932 354.924 237.419 352.325C244.89 349.716 249.133 342.16 246.869 335.445C244.866 329.487 238.409 326.198 231.755 327.344C228.771 321.988 225.326 313.912 224.224 303.614C224.08 302.338 223.983 301.088 223.934 299.859C233.088 296.763 241.728 292.493 249.695 287.235C254.735 291.508 260.036 296.597 265.293 302.631C273.385 311.907 279.243 321.027 283.459 328.768C279.024 333.691 278.187 340.771 281.814 345.71C286.023 351.388 294.539 352.083 300.871 347.264C307.188 342.448 308.921 333.941 304.744 328.252C301.117 323.347 294.251 322.153 288.373 325.043C282.164 318.49 275.29 310.209 268.693 300.054C264.432 293.49 260.918 287.127 258.038 281.157C261.246 278.59 264.313 275.855 267.254 272.954C272.037 268.201 276.427 263.029 280.326 257.486C287.372 259.578 295.492 262.615 304.089 267.131C312.384 271.469 319.286 276.212 324.835 280.62C322.635 286.892 324.563 293.733 329.793 296.84C335.815 300.441 343.941 297.733 347.953 290.812C351.965 283.878 350.314 275.353 344.292 271.751C339.03 268.61 332.13 270.284 327.821 275.397C321.594 272.9 314.041 269.141 306.241 263.418C298.141 257.48 292.041 251.142 287.638 245.685C290.725 239.968 293.353 233.949 295.473 227.676C298.856 227.836 302.443 228.186 306.139 228.798C315.682 230.378 323.613 233.222 329.708 236.033C329.099 242.75 332.759 248.952 338.661 250.57C345.407 252.422 352.553 247.637 354.628 239.879C356.686 232.119 352.903 224.335 346.141 222.483C340.223 220.851 333.97 224.362 331.133 230.518C324.643 229.897 316.313 228.343 307.244 224.648C303.813 223.237 300.639 221.676 297.754 220.048C299.278 214.23 300.373 208.237 300.975 202.088C306.871 201.677 313.131 201.447 319.723 201.515C331.343 201.623 341.899 202.601 351.157 203.965C352.195 210.454 357.035 215.444 363.018 215.707C370.006 215.992 375.941 209.719 376.247 201.691C376.569 193.663 371.177 186.919 364.204 186.633Z" fill="#FA5652"/>
</svg>
