<svg width="153" height="157" viewBox="0 0 153 157" fill="none" xmlns="http://www.w3.org/2000/svg">
<path opacity="0.1" d="M146.515 75.0752C144.102 74.9745 141.999 76.8232 141.376 79.392C137.636 79.6398 133.365 79.6872 128.682 79.3309C126.077 79.1281 123.602 78.8224 121.289 78.4528C121.307 78.0022 121.319 77.547 121.325 77.0916C121.352 74.8763 121.218 72.6968 120.949 70.5627C122.141 69.6613 123.63 68.7165 125.431 67.9133C128.55 66.509 131.458 66.0325 133.701 65.9126C134.768 68.4545 137.273 69.9565 139.695 69.3455C142.426 68.658 144.025 65.5596 143.254 62.4237C142.49 59.2872 139.663 57.2978 136.932 57.9853C134.445 58.6144 132.898 61.243 133.223 64.0799C131.25 65.1851 128.321 66.3731 124.711 66.4189C122.932 66.4447 121.375 66.1835 120.114 65.8556C119.352 62.5384 118.241 59.3552 116.808 56.3489C118.379 54.9445 120.234 53.4582 122.402 52.0279C125.542 49.9505 128.566 48.474 131.218 47.4196C132.914 49.4812 135.647 50.1932 137.781 48.9765C140.232 47.5823 140.954 44.1606 139.403 41.342C137.851 38.524 134.597 37.3737 132.146 38.7718C130.018 39.984 129.188 42.7258 130.031 45.2702C127.742 47.0259 124.933 48.875 121.567 50.5138C119.28 51.634 117.093 52.4802 115.114 53.1201C113.536 50.3631 111.686 47.7875 109.595 45.432C110.448 42.4439 111.865 38.9596 114.251 35.4775C116.494 32.2219 118.963 29.8558 121.057 28.1969C123.325 29.6627 126.204 29.4749 127.865 27.6019C129.753 25.4805 129.372 22.0075 127.003 19.8437C124.647 17.6748 121.206 17.6365 119.324 19.7586C117.664 21.6316 117.756 24.5511 119.432 26.7011C118.062 28.9339 115.999 31.6985 112.987 34.3189C109.664 37.2102 106.342 38.9252 103.813 39.938C100.977 37.6778 97.8794 35.7511 94.5655 34.2164C95.0637 32.8602 95.7226 31.4975 96.5802 30.1607C97.2674 29.1011 98.0045 28.1707 98.7465 27.359C101.27 28.4384 104.123 27.7192 105.428 25.5384C106.896 23.1033 105.884 19.7595 103.169 18.0756C100.454 16.391 97.0691 16.9993 95.6007 19.439C94.3158 21.5828 94.9424 24.4273 96.9559 26.2266C96.5182 27.3604 95.9901 28.5355 95.3589 29.7321C94.6421 31.1091 93.8688 32.3764 93.0518 33.5473C92.7132 33.4055 92.381 33.269 92.0422 33.1415C88.0928 31.584 83.8734 30.579 79.4664 30.2021C78.7652 28.2101 78.163 26.0046 77.7496 23.5856C76.9111 18.6494 77.1306 14.365 77.5874 11.1508C80.1875 10.6777 82.1518 8.63359 82.1822 6.15537C82.2172 3.29945 79.671 0.952697 76.4929 0.913728C73.3083 0.87468 70.6988 3.15822 70.6638 6.01413C70.6329 8.53476 72.6168 10.656 75.2693 11.1465C75.8082 14.3266 76.1326 18.7723 75.1835 23.9097C74.7576 26.171 74.148 28.2292 73.4445 30.0904C69.2104 30.2806 65.1361 31.0598 61.2802 32.3487C60.7579 31.4798 60.2875 30.5685 59.8704 29.4953C59.0488 27.3701 58.7071 25.3838 58.5797 23.7322C61.0805 22.4482 62.392 19.7064 61.5488 17.2566C60.6186 14.5624 57.4304 13.2466 54.4248 14.3188C51.4257 15.3912 49.7444 18.4442 50.681 21.1391C51.4873 23.4638 53.9694 24.758 56.5618 24.3807C57.3001 25.9693 58.0033 27.7989 58.543 29.8744C58.8377 30.9734 59.0493 32.0474 59.2098 33.0971C55.7063 34.4576 52.4158 36.2473 49.3841 38.4003C47.8189 37.2192 46.2175 35.8509 44.6382 34.2514C41.0038 30.5682 38.5969 26.8067 37.022 23.7986C38.8315 21.8139 39.1814 18.9449 37.7097 16.9474C36.0232 14.6615 32.5911 14.3806 30.0437 16.319C27.5027 18.2582 26.8058 21.6822 28.4858 23.9674C29.983 25.9867 32.8286 26.4379 35.2328 25.1781C37.531 27.3248 40.5142 30.7025 42.7923 35.5336C43.8376 37.7432 44.5562 39.8881 45.0583 41.8861C44.5712 42.3303 44.0775 42.7888 43.603 43.2566C41.2303 45.6174 39.0983 48.2375 37.2654 51.0786C36.2099 50.7557 35.1166 50.3672 33.9986 49.8941C30.3637 48.3548 27.5556 46.4147 25.5214 44.7293C26.4262 42.1581 25.6065 39.3621 23.4512 38.1273C21.0089 36.724 17.7585 37.869 16.1957 40.6847C14.6264 43.499 15.3422 46.9187 17.7973 48.3215C19.9462 49.5548 22.7165 48.8176 24.4183 46.709C26.8988 47.6149 29.989 49.0575 33.1646 51.4028C34.1128 52.1034 34.9773 52.8225 35.784 53.5449C33.1909 58.1571 31.3559 63.2673 30.4481 68.7053C28.2563 68.8683 25.8925 68.9306 23.3574 68.82C19.7376 68.6627 16.4748 68.1915 13.6246 67.5954C13.5953 64.7452 11.7498 62.3373 9.21058 62.0347C6.41491 61.7017 3.84983 64.0346 3.47656 67.2446C3.1097 70.4546 5.07157 73.3259 7.86084 73.6576C10.3487 73.9537 12.6442 72.1367 13.3897 69.4716C16.3167 69.5675 19.6007 69.8739 23.1564 70.5406C25.623 71.0021 27.8956 71.58 30.0005 72.2171C29.8826 73.4533 29.8223 74.7039 29.8068 75.9695C29.7699 78.9748 30.01 81.917 30.5144 84.773C28.0674 86.3734 24.7061 88.1812 20.4333 89.4271C16.6891 90.5197 13.3264 90.866 10.6481 90.9167C9.71605 88.3712 7.34698 86.7613 4.92064 87.2059C2.1596 87.7136 0.369904 90.7026 0.934525 93.883C1.49914 97.064 4.20168 99.2306 6.96272 98.7229C9.35689 98.2838 11.0097 95.9899 11.0488 93.3219C13.8015 92.4501 17.0478 91.6398 20.7335 91.1317C24.966 90.5481 28.7617 90.5033 31.9573 90.6835C33.1868 94.6314 34.9393 98.347 37.1129 101.755C36.056 102.583 34.8837 103.399 33.558 104.158C31.0294 105.613 28.6103 106.508 26.5099 107.08C25.1256 104.767 22.4935 103.657 20.1963 104.567C17.5829 105.608 16.3932 108.891 17.5507 111.899C18.2789 113.787 19.7587 115.124 21.4096 115.595C22.3822 115.877 23.4164 115.857 24.3908 115.471C24.6747 115.355 24.9526 115.211 25.2051 115.039C27.1213 113.782 27.9628 111.139 27.1913 108.597C29.1815 107.585 31.5055 106.586 34.174 105.772C35.8949 105.25 37.5306 104.874 39.0687 104.598C40.4458 106.454 41.9656 108.199 43.5961 109.813C43.7483 109.967 43.907 110.12 44.0593 110.264C42.9111 112.784 41.1911 115.842 38.6168 118.933C36.0946 121.958 33.4862 124.151 31.2904 125.695C29.1331 124.097 26.2756 124.096 24.5012 125.835C22.4734 127.817 22.6232 131.311 24.8358 133.639C27.0355 135.962 30.474 136.242 32.4954 134.26C34.2567 132.539 34.3753 129.676 32.9259 127.433C34.6615 125.19 36.9207 122.665 39.7959 120.181C42.8916 117.514 45.9338 115.549 48.5843 114.106C52.0334 116.663 55.8543 118.745 59.9392 120.252C59.7594 121.821 59.4625 123.511 58.9848 125.285C57.9486 129.149 56.4338 132.238 55.0638 134.508C52.4316 133.939 49.8098 135.131 48.8886 137.464C47.848 140.114 49.3958 143.236 52.3478 144.439C55.2933 145.642 58.5313 144.467 59.5849 141.814C60.4928 139.509 59.4467 136.849 57.2104 135.407C57.8798 132.659 58.9278 129.411 60.563 125.93C61.3673 124.232 62.2146 122.686 63.0795 121.278C66.2342 122.185 69.5213 122.757 72.9224 122.946C73.4414 125.657 73.8537 128.689 74.0315 131.998C74.2986 136.921 73.982 141.274 73.4756 144.864C70.8884 145.34 68.9304 147.384 68.9001 149.857C68.8651 152.713 71.4113 155.059 74.6023 155.098C77.7805 155.137 80.3835 152.854 80.4185 149.998C80.4487 147.535 78.5542 145.448 75.9924 144.899C75.6073 141.217 75.4294 136.869 75.7329 132.019C75.94 128.747 76.343 125.73 76.8388 123.003C80.3974 122.909 83.8521 122.396 87.1571 121.511C87.4336 122.008 87.7034 122.524 87.9666 123.054C89.7153 126.553 90.6384 129.825 91.1265 132.44C88.8178 133.764 87.617 136.378 88.4165 138.732C89.3209 141.433 92.5024 142.772 95.514 141.727C98.5193 140.677 100.226 137.638 99.3153 134.937C98.5099 132.54 95.9126 131.217 93.2356 131.678C92.0355 129.524 90.6498 126.275 90.2061 122.133C90.1482 121.619 90.1094 121.116 90.0898 120.622C93.7717 119.377 97.2476 117.659 100.452 115.544C102.479 117.263 104.612 119.31 106.727 121.737C109.982 125.468 112.338 129.137 114.034 132.251C112.25 134.231 111.914 137.079 113.373 139.066C115.066 141.35 118.491 141.63 121.039 139.691C123.58 137.754 124.277 134.332 122.597 132.043C121.137 130.07 118.376 129.59 116.011 130.752C113.513 128.117 110.748 124.785 108.095 120.701C106.38 118.06 104.967 115.5 103.808 113.099C105.099 112.066 106.332 110.966 107.516 109.799C109.44 107.887 111.205 105.806 112.774 103.577C115.608 104.419 118.875 105.64 122.333 107.457C125.67 109.202 128.446 111.109 130.678 112.883C129.793 115.406 130.569 118.158 132.673 119.407C135.095 120.856 138.364 119.767 139.978 116.982C141.592 114.194 140.927 110.764 138.505 109.315C136.389 108.052 133.613 108.725 131.879 110.782C129.374 109.777 126.336 108.265 123.199 105.963C119.94 103.575 117.487 101.025 115.715 98.8298C116.957 96.5302 118.014 94.1089 118.867 91.5854C120.228 91.6497 121.671 91.7907 123.158 92.0366C126.996 92.6721 130.187 93.8165 132.639 94.9472C132.394 97.6492 133.866 100.144 136.24 100.795C138.954 101.54 141.828 99.6152 142.663 96.4944C143.491 93.3728 141.969 90.2414 139.249 89.4963C136.868 88.8401 134.353 90.2524 133.212 92.7288C130.601 92.4788 127.25 91.8539 123.602 90.3672C122.222 89.7997 120.945 89.172 119.785 88.5171C120.398 86.1765 120.838 83.7659 121.08 81.2923C123.452 81.1269 125.97 81.0345 128.622 81.0618C133.296 81.1054 137.543 81.4987 141.267 82.0474C141.684 84.6577 143.631 86.6649 146.038 86.7708C148.849 86.8855 151.237 84.3618 151.36 81.1325C151.489 77.9032 149.32 75.1905 146.515 75.0752Z" fill="#FA5652"/>
</svg>
