<svg width="1054" height="812" viewBox="0 0 1054 812" fill="none" xmlns="http://www.w3.org/2000/svg">
<g opacity="0.67">
<path d="M321.055 365.954L302.92 371.999L320.718 360.812C320.573 359.105 320.393 357.384 320.176 355.65L310.6 357.492L319.663 351.882C317.59 338.514 312.975 321.736 306.643 304.611L271.345 318.235L305.076 300.45C296.219 277.441 284.385 254.264 271.542 238.28L252.57 251.671L267.697 233.742C256.01 220.744 243.668 214.127 232.088 219.242C218.019 225.459 213.987 255.602 218.319 291.95L227.821 291.781L218.53 293.64C220.529 309.547 224.109 326.572 229.133 343.267L265.371 331.036L230.772 348.549C238.425 372.41 249.029 395.244 262.176 412.742L276.464 398.455L264.856 416.19C275.926 429.947 288.684 439.921 302.92 443.684C302.92 443.684 323.064 409.831 321.055 365.954Z" fill="#03673D"/>
<path d="M304.996 443.684C304.996 443.684 325.14 409.831 323.131 365.954L304.996 371.999L322.794 360.812C322.648 359.105 322.469 357.384 322.252 355.65L312.676 357.492L321.739 351.882C319.666 338.514 315.051 321.736 308.719 304.613L273.421 318.235L307.152 300.452C298.295 277.441 286.46 254.264 273.618 238.28L254.645 251.673L269.773 233.742C258.086 220.744 245.744 214.127 234.164 219.242C234.164 219.242 286.839 344.815 303.972 443.385C304.314 443.481 304.653 443.593 304.996 443.684Z" fill="#04AD66"/>
<path d="M293.668 471.274L280.248 474.406L292.504 467.766C291.243 464.165 289.738 460.409 287.928 456.484C284.201 448.411 278.869 439.174 272.692 430.242L260.619 439.416L269.124 425.243C250.399 399.862 225.785 379.341 213.684 399.308C208.71 407.513 208.382 420.576 211.816 435.261L239.284 434.297L212.803 439.151C215.545 449.172 219.947 459.79 225.749 470.042L235.019 465.872L227.032 472.261C233.146 482.642 240.694 492.561 249.398 500.998L268.299 480.381L252.011 503.455C263.46 513.883 276.759 521.709 291.342 524.756C291.342 524.756 304.614 506.14 293.668 471.274Z" fill="#10794D"/>
<path d="M290.26 524.506C290.622 524.588 290.981 524.68 291.345 524.755C291.345 524.755 304.618 506.139 293.671 471.275L280.25 474.406L292.507 467.766C291.246 464.165 289.741 460.409 287.93 456.485C284.205 448.412 278.872 439.175 272.695 430.241L260.622 439.417L269.126 425.244C251.477 401.317 228.597 381.727 215.893 396.28C226.068 410.001 268.941 469.438 290.26 524.506Z" fill="#04AD66"/>
<path d="M252.343 509.605C244.851 502.528 231.483 493.84 215.964 485.854C209.234 495.798 201.721 507.028 200.428 509.488C200.243 509.927 200.174 510.078 200.258 509.852C200.287 509.768 200.346 509.644 200.428 509.488C201.516 506.909 206.783 493.924 211.05 483.387C201.74 478.818 191.829 474.574 182.052 471.112L176.73 496.361L179.182 470.117C148.692 459.774 120.263 457.54 116.643 477.567C115.642 483.102 117.583 489.252 121.742 495.689C133.429 495.005 150.334 493.908 150.334 493.908L125.688 501.07C134.727 512.208 149.576 523.914 166.794 534.611L181.585 505.904L169.495 536.264C187.63 547.266 208.102 557.081 227.034 563.944C228.64 556.864 229.814 551.734 229.814 551.734L230.053 565.015C233.697 566.288 237.273 567.442 240.756 568.471L242.322 562.348L243.349 569.216C260.69 574.079 275.435 575.595 283.883 572.069C283.883 572.069 290.601 545.745 252.343 509.605Z" fill="#007248"/>
<path d="M357.356 320.595C375.626 275.59 400.616 266.195 410.828 267.123C427.762 264.896 428.652 294.416 426.98 309.455H401.358L426.98 314.468C426.534 338.531 420.11 364.227 416.954 374.067L385.205 367.94L416.954 378.523C408.933 408.824 396.902 436.823 391.889 447.034L359.583 431.995L390.218 450.376L386.319 457.06L377.407 455.389L385.205 459.288C371.392 487.361 345.658 498.835 334.518 501.063C325.161 489.923 322.45 468.572 322.264 459.288L338.974 455.389H322.264C320.482 439.348 325.977 411.572 328.948 399.689L341.759 405.259L329.505 396.904L331.176 391.334L358.469 399.689L333.404 384.093C336.078 368.497 349 337.862 355.127 324.494L372.394 326.722L357.356 320.595Z" fill="#096B42"/>
<path d="M385.474 460.233C371.372 488.021 345.726 499.807 334.666 502.227C351.256 387.754 395.152 297.958 415.025 267.37C428.712 269.859 429.024 297.094 427.468 310.401L402.064 309.364L427.468 314.03C425.809 341.404 420.556 365.875 418.136 374.689L383.919 367.43L416.581 378.318C408.7 412.328 396.707 438.458 391.695 447.271L360.07 431.718L390.658 450.382L386.511 457.64L377.697 455.567L385.474 460.233Z" fill="#0EA867"/>
<path fill-rule="evenodd" clip-rule="evenodd" d="M317.606 662.193C317.606 662.195 317.606 662.196 316.941 662.151L317.606 662.196C317.583 662.547 317.291 662.819 316.939 662.818C316.587 662.817 316.297 662.542 316.276 662.191C313.708 619.115 296.724 586.149 274.662 561.094C252.941 537.505 227.316 520.137 202.027 507.374C202.056 507.328 202.085 507.281 202.114 507.234C185.342 498.894 170.932 493.651 162.601 490.62L162.6 490.619C160.694 489.926 159.106 489.348 157.881 488.875C142.749 483.856 128.84 480.367 117.33 477.964C117.343 477.86 117.353 477.755 117.363 477.65C117.379 477.48 117.394 477.31 117.425 477.143C121.013 457.832 149.309 460.012 179.663 470.014L177.304 494.74C177.325 494.748 177.347 494.757 177.369 494.766L182.521 470.975C192.255 474.324 202.123 478.426 211.395 482.839C207.949 491.096 203.852 500.901 201.859 505.621C202.182 505.781 202.506 505.941 202.831 506.103C205.664 501.697 211.556 493.091 216.953 485.282C232.6 493.168 246.078 501.744 253.632 508.729C292.208 544.398 285.454 570.355 285.454 570.355C285.08 570.508 284.689 570.649 284.287 570.779C300.626 592.429 313.004 619.249 316.762 652.325C316.997 646.493 317.255 638.212 317.376 627.913C317.628 606.413 317.284 576.12 314.901 540.953C310.132 470.609 297.203 380.811 264.582 302.882C264.44 302.543 264.6 302.152 264.94 302.01C265.279 301.868 265.67 302.028 265.812 302.367C298.515 380.492 311.458 470.457 316.231 540.863C318.617 576.071 318.962 606.4 318.709 627.928C318.583 638.692 318.307 647.257 318.063 653.131C317.941 656.069 317.827 658.333 317.743 659.865C317.701 660.63 317.667 661.212 317.643 661.604C317.636 661.735 317.629 661.844 317.623 661.932L317.616 662.046L317.609 662.158L317.607 662.186L317.606 662.193Z" fill="#128E5A"/>
<path d="M243.549 435.15C243.549 435.15 316.94 537.556 316.94 662.151C328.035 444.538 384.437 325.955 384.437 325.955" stroke="#014D2D" stroke-miterlimit="10" stroke-linecap="round" stroke-linejoin="round"/>
<path d="M340.91 627.692H282.044C282.044 627.692 266.195 753.176 317.137 767.741C368.078 782.306 340.91 627.692 340.91 627.692Z" fill="#F52D29"/>
<path d="M351.259 627.692H296.067C296.067 627.692 283.579 753.176 323.716 767.741C387.55 774.931 351.259 627.692 351.259 627.692Z" fill="#F80700"/>
</g>
<g opacity="0.76">
<path d="M363.782 40.1785H344.743V115.1H363.782V40.1785Z" fill="#FF1F55"/>
<path d="M386.347 40.1785H367.309V115.1H386.347V40.1785Z" fill="#FFC702"/>
<path d="M400.418 41.5193L384.292 51.6431L424.17 115.101L440.297 104.978L400.418 41.5193Z" fill="#3D99EE"/>
<path d="M548.976 131.616H343.524C339.142 131.616 334.939 129.876 331.84 126.778C328.741 123.681 327 119.48 327 115.1H565.498C565.498 119.48 563.758 123.68 560.659 126.778C557.561 129.875 553.358 131.615 548.976 131.616Z" fill="#6F2A1A"/>
<path d="M552.884 42.9529H461.925V115.099H552.884V42.9529Z" fill="#BDD8F5"/>
<path d="M546.804 50.0396H468.012V107.998H546.804V50.0396Z" fill="#FB4C47"/>
<path d="M507.407 97.6165C517.679 97.6165 526.006 89.2934 526.006 79.0263C526.006 68.7592 517.679 60.436 507.407 60.436C497.134 60.436 488.807 68.7592 488.807 79.0263C488.807 89.2934 497.134 97.6165 507.407 97.6165Z" fill="#FFC700"/>
<path d="M529.856 107.998H468.012V80.2463C478.688 79.8422 494.457 81.14 509.356 89.7005C517.385 94.3123 524.367 100.544 529.856 107.998Z" fill="#1DB776"/>
<path d="M546.801 69.8809V107.999H497.217C500.394 101.367 504.478 95.2086 509.353 89.7012C517.817 80.1872 529.893 71.9911 546.801 69.8809Z" fill="#11915B"/>
<path d="M375.235 145.954H360.409L362.457 115.099H373.187L375.235 145.954Z" fill="#592A3C"/>
<path d="M532.094 145.954H517.268L519.316 115.099H530.046L532.094 145.954Z" fill="#592A3C"/>
<path d="M843.914 98.9117H632.482V0.000244141H843.914V98.9117ZM641.548 89.8525H834.85V9.06189H641.545L641.548 89.8525Z" fill="#925C50"/>
<path d="M834.85 9.06201H641.546V89.8526H834.85V9.06201Z" fill="white"/>
<path d="M684.531 68.8182C700.82 65.0038 710.931 48.7135 707.114 32.4327C703.298 16.152 686.999 6.04606 670.71 9.86048C654.421 13.6749 644.31 29.9652 648.127 46.246C651.943 62.5267 668.242 72.6327 684.531 68.8182Z" fill="#FFC700"/>
<path d="M641.546 64.3461L699.01 38.697C703.588 36.6531 708.637 35.8977 713.614 36.512C718.59 37.1264 723.303 39.0873 727.246 42.1831L787.975 89.8518H641.548L641.546 64.3461Z" fill="#11915B"/>
<path d="M741.877 53.6689L785.161 39.3659C789.79 37.8363 794.742 37.5623 799.511 38.5718C804.28 39.5812 808.696 41.838 812.306 45.1115L834.849 65.5485V89.8575H787.973L741.877 53.6689Z" fill="#1DB776"/>
</g>
<path opacity="0.89" d="M528.971 238.419C527.001 238.362 525.298 239.881 524.816 241.969C521.758 242.208 518.268 242.289 514.439 242.046C512.298 241.908 510.273 241.685 508.374 241.408C508.384 241.042 508.391 240.673 508.391 240.304C508.391 238.508 508.265 236.743 508.02 235.016C508.985 234.273 510.195 233.493 511.656 232.823C514.194 231.654 516.573 231.239 518.401 231.119C519.301 233.17 521.36 234.361 523.341 233.843C525.567 233.258 526.837 230.731 526.182 228.196C525.526 225.662 523.192 224.077 520.966 224.662C518.938 225.196 517.701 227.343 517.993 229.639C516.389 230.554 514.007 231.546 511.058 231.62C509.597 231.658 508.323 231.462 507.29 231.208C506.634 228.527 505.689 225.958 504.49 223.535C505.761 222.381 507.263 221.158 509.023 219.977C511.571 218.262 514.028 217.035 516.185 216.154C517.592 217.808 519.838 218.358 521.567 217.35C523.555 216.196 524.119 213.415 522.821 211.147C521.52 208.877 518.846 207.977 516.858 209.135C515.125 210.139 514.48 212.37 515.193 214.423C513.341 215.87 511.061 217.396 508.326 218.758C506.464 219.689 504.684 220.396 503.073 220.935C501.758 218.715 500.212 216.646 498.483 214.758C499.149 212.327 500.273 209.488 502.19 206.643C503.987 203.981 505.988 202.039 507.687 200.673C509.556 201.839 511.907 201.658 513.246 200.123C514.768 198.385 514.418 195.573 512.465 193.842C510.514 192.108 507.697 192.112 506.182 193.85C504.837 195.385 504.949 197.75 506.338 199.477C505.241 201.3 503.583 203.562 501.143 205.715C498.455 208.093 495.751 209.516 493.695 210.362C491.357 208.558 488.806 207.027 486.077 205.816C486.475 204.712 486.998 203.6 487.684 202.508C488.235 201.643 488.826 200.881 489.427 200.216C491.507 201.066 493.828 200.454 494.874 198.673C496.053 196.685 495.193 193.985 492.954 192.646C490.719 191.308 487.953 191.835 486.777 193.827C485.747 195.577 486.291 197.877 487.953 199.315C487.606 200.238 487.185 201.197 486.685 202.173C486.114 203.296 485.489 204.331 484.833 205.289C484.558 205.177 484.28 205.069 484.004 204.97C480.753 203.747 477.294 202.974 473.689 202.712C473.097 201.104 472.581 199.323 472.221 197.366C471.483 193.373 471.619 189.897 471.959 187.287C474.079 186.878 475.67 185.202 475.67 183.192C475.67 180.877 473.559 179 470.957 179C468.357 179 466.247 180.877 466.247 183.192C466.247 185.236 467.895 186.936 470.066 187.308C470.539 189.879 470.848 193.48 470.117 197.654C469.795 199.491 469.319 201.166 468.762 202.681C465.306 202.878 461.98 203.55 458.837 204.632C458.398 203.933 458.008 203.2 457.658 202.334C456.961 200.62 456.659 199.013 456.54 197.675C458.572 196.61 459.622 194.374 458.901 192.396C458.116 190.221 455.493 189.187 453.05 190.086C450.607 190.985 449.265 193.476 450.053 195.651C450.733 197.528 452.778 198.552 454.899 198.221C455.517 199.501 456.108 200.978 456.577 202.654C456.822 203.542 457.009 204.41 457.151 205.26C454.301 206.397 451.623 207.881 449.166 209.656C447.872 208.714 446.55 207.621 445.245 206.34C442.238 203.391 440.23 200.366 438.912 197.943C440.373 196.316 440.628 193.987 439.404 192.382C438.001 190.547 435.195 190.353 433.132 191.95C431.07 193.546 430.533 196.329 431.936 198.164C433.173 199.787 435.511 200.124 437.457 199.079C439.364 200.796 441.834 203.505 443.75 207.398C444.624 209.178 445.235 210.91 445.66 212.525C445.266 212.89 444.872 213.266 444.491 213.65C442.568 215.587 440.855 217.732 439.384 220.054C438.518 219.802 437.621 219.499 436.703 219.126C433.71 217.914 431.392 216.37 429.714 215.024C430.427 212.931 429.734 210.672 427.957 209.693C425.942 208.58 423.295 209.54 422.045 211.837C420.795 214.135 421.413 216.9 423.431 218.012C425.205 218.991 427.461 218.365 428.834 216.639C430.872 217.349 433.407 218.488 436.03 220.357C436.812 220.916 437.532 221.49 438.198 222.068C436.122 225.832 434.675 229.992 433.985 234.409C432.191 234.564 430.257 234.637 428.185 234.573C425.225 234.481 422.551 234.132 420.217 233.677C420.163 231.367 418.627 229.433 416.544 229.213C414.26 228.972 412.184 230.888 411.916 233.494C411.641 236.099 413.278 238.407 415.562 238.649C417.597 238.864 419.459 237.368 420.037 235.2C422.436 235.249 425.127 235.465 428.042 235.97C430.057 236.319 431.929 236.765 433.652 237.261C433.57 238.264 433.53 239.278 433.53 240.304C433.53 242.741 433.757 245.124 434.199 247.433C432.218 248.754 429.479 250.253 426 251.306C422.949 252.229 420.2 252.543 418.012 252.61C417.227 250.556 415.273 249.275 413.292 249.66C411.036 250.099 409.602 252.54 410.098 255.112C410.591 257.685 412.82 259.414 415.079 258.975C417.03 258.596 418.358 256.72 418.365 254.556C420.608 253.822 423.251 253.134 426.262 252.684C429.724 252.169 432.826 252.096 435.436 252.21C436.486 255.397 437.954 258.392 439.765 261.134C438.912 261.815 437.954 262.488 436.887 263.117C434.831 264.321 432.86 265.071 431.151 265.555C429.989 263.694 427.828 262.821 425.963 263.581C423.832 264.45 422.891 267.123 423.873 269.55C424.485 271.073 425.708 272.142 427.06 272.508C427.859 272.727 428.705 272.7 429.496 272.377C429.734 272.281 429.955 272.162 430.159 272.019C431.719 270.981 432.378 268.83 431.719 266.778C433.336 265.937 435.225 265.105 437.407 264.419C438.803 263.978 440.138 263.658 441.396 263.418C442.541 264.909 443.798 266.309 445.15 267.601C445.279 267.723 445.405 267.846 445.534 267.962C444.62 270.016 443.244 272.512 441.168 275.043C439.136 277.519 437.023 279.323 435.246 280.596C433.462 279.323 431.127 279.35 429.69 280.777C428.056 282.404 428.212 285.235 430.043 287.1C431.868 288.962 434.681 289.154 436.316 287.527C437.733 286.116 437.804 283.793 436.594 281.988C437.994 280.154 439.819 278.085 442.15 276.042C444.651 273.85 447.121 272.227 449.272 271.031C452.119 273.069 455.266 274.719 458.626 275.9C458.49 277.173 458.262 278.546 457.892 279.988C457.087 283.131 455.874 285.65 454.773 287.504C452.619 287.069 450.488 288.061 449.758 289.961C448.929 292.119 450.223 294.635 452.649 295.581C455.075 296.528 457.715 295.543 458.544 293.381C459.268 291.504 458.381 289.358 456.543 288.212C457.063 285.977 457.882 283.335 459.187 280.497C459.825 279.112 460.505 277.85 461.202 276.7C463.787 277.404 466.485 277.835 469.265 277.954C469.72 280.146 470.087 282.6 470.264 285.281C470.529 289.269 470.315 292.8 469.937 295.716C467.824 296.129 466.247 297.805 466.247 299.808C466.247 302.122 468.357 304 470.96 304C473.563 304 475.67 302.122 475.67 299.808C475.67 297.812 474.1 296.139 472 295.719C471.646 292.738 471.453 289.216 471.653 285.281C471.793 282.627 472.092 280.177 472.472 277.962C475.377 277.85 478.197 277.4 480.892 276.65C481.123 277.05 481.354 277.465 481.572 277.892C483.033 280.712 483.821 283.354 484.249 285.47C482.373 286.565 481.422 288.696 482.091 290.596C482.866 292.777 485.476 293.831 487.932 292.954C490.382 292.073 491.741 289.592 490.97 287.411C490.287 285.477 488.15 284.431 485.965 284.831C484.963 283.096 483.797 280.477 483.393 277.123C483.342 276.708 483.304 276.3 483.281 275.9C486.284 274.854 489.108 273.427 491.704 271.681C493.382 273.054 495.149 274.693 496.906 276.639C499.604 279.631 501.564 282.581 502.981 285.088C501.544 286.712 501.293 289.023 502.512 290.619C503.916 292.454 506.719 292.646 508.785 291.05C510.847 289.454 511.388 286.673 509.984 284.834C508.771 283.25 506.508 282.889 504.585 283.854C502.516 281.742 500.222 279.069 498.01 275.785C496.58 273.662 495.401 271.6 494.426 269.666C495.472 268.816 496.474 267.912 497.422 266.954C498.982 265.385 500.406 263.681 501.663 261.858C503.987 262.512 506.675 263.469 509.522 264.908C512.268 266.289 514.554 267.808 516.399 269.223C515.699 271.277 516.365 273.5 518.095 274.492C520.093 275.643 522.753 274.727 524.048 272.454C525.339 270.177 524.765 267.404 522.767 266.254C521.02 265.25 518.764 265.823 517.361 267.508C515.302 266.719 512.804 265.523 510.215 263.689C507.524 261.785 505.496 259.743 504.021 257.981C505.017 256.104 505.856 254.131 506.525 252.077C507.643 252.116 508.819 252.216 510.045 252.4C513.188 252.877 515.808 253.774 517.823 254.666C517.65 256.858 518.88 258.866 520.834 259.369C523.056 259.946 525.39 258.358 526.039 255.819C526.685 253.281 525.404 250.758 523.181 250.181C521.217 249.673 519.175 250.843 518.275 252.862C516.131 252.685 513.392 252.212 510.395 251.042C509.254 250.597 508.204 250.1 507.246 249.581C507.725 247.677 508.061 245.719 508.234 243.712C510.171 243.554 512.234 243.454 514.398 243.45C518.227 243.439 521.7 243.715 524.751 244.123C525.118 246.235 526.732 247.843 528.703 247.904C531 247.969 532.926 245.9 532.998 243.281C533.073 240.662 531.272 238.485 528.971 238.419Z" fill="#FA5752" fill-opacity="0.82"/>
<path opacity="0.93" d="M182.81 134.743C179.781 134.654 177.166 137 176.424 140.224C171.725 140.593 166.363 140.717 160.479 140.343C157.19 140.13 154.078 139.785 151.16 139.357C151.175 138.793 151.186 138.223 151.186 137.653C151.186 134.88 150.992 132.154 150.617 129.488C152.099 128.342 153.958 127.136 156.203 126.102C160.103 124.298 163.758 123.656 166.567 123.472C167.95 126.638 171.114 128.478 174.158 127.677C177.578 126.774 179.531 122.872 178.523 118.959C177.515 115.046 173.929 112.599 170.509 113.502C167.392 114.327 165.491 117.641 165.94 121.186C163.476 122.599 159.816 124.131 155.284 124.244C153.039 124.304 151.081 124 149.494 123.608C148.486 119.47 147.035 115.502 145.192 111.761C147.145 109.98 149.452 108.091 152.157 106.268C156.073 103.62 159.847 101.725 163.163 100.366C165.324 102.919 168.775 103.768 171.433 102.212C174.487 100.431 175.354 96.137 173.359 92.6339C171.36 89.1297 167.251 87.7403 164.197 89.5275C161.534 91.0775 160.542 94.5225 161.638 97.6933C158.793 99.9265 155.289 102.284 151.086 104.386C148.225 105.823 145.489 106.916 143.015 107.747C140.994 104.32 138.619 101.126 135.961 98.21C136.984 94.457 138.713 90.0737 141.657 85.6799C144.419 81.5703 147.494 78.5717 150.105 76.4627C152.976 78.2626 156.589 77.9832 158.647 75.6138C160.986 72.93 160.448 68.589 157.446 65.9164C154.449 63.2385 150.121 63.2443 147.792 65.928C145.724 68.298 145.897 71.9501 148.032 74.6164C146.346 77.4311 143.798 80.9226 140.049 84.2482C135.919 87.9188 131.763 90.116 128.605 91.4225C125.012 88.6368 121.091 86.2732 116.899 84.403C117.51 82.6987 118.314 80.9823 119.368 79.296C120.214 77.9599 121.123 76.7834 122.047 75.7569C125.242 77.0692 128.808 76.1241 130.416 73.3749C132.228 70.3049 130.907 66.1362 127.466 64.0695C124.031 62.0028 119.781 62.8164 117.974 65.8926C116.392 68.5949 117.228 72.1455 119.781 74.3665C119.248 75.7918 118.601 77.271 117.833 78.7788C116.956 80.5132 115.996 82.1108 114.988 83.5895C114.565 83.4173 114.137 83.2508 113.714 83.0971C108.718 81.2084 103.402 80.015 97.8629 79.6103C96.9545 77.1284 96.1609 74.3776 95.6074 71.3563C94.4745 65.1911 94.6833 59.8251 95.2054 55.7953C98.4634 55.164 100.907 52.5748 100.907 49.4727C100.907 45.8982 97.6646 43 93.6652 43C89.6711 43 86.4288 45.8982 86.4288 49.4727C86.4288 52.6287 88.961 55.2533 92.2973 55.8265C93.023 59.7971 93.4981 65.3569 92.3756 71.8011C91.8796 74.638 91.1486 77.2235 90.2924 79.5633C84.9826 79.8666 79.8712 80.9041 75.0417 82.5762C74.3682 81.4969 73.7677 80.3637 73.23 79.0271C72.1597 76.3809 71.695 73.8989 71.5122 71.8338C74.6344 70.1887 76.2477 66.7374 75.1409 63.6838C73.9348 60.3255 69.9042 58.7284 66.1502 60.1162C62.3963 61.5041 60.334 65.3511 61.5453 68.7089C62.5895 71.6072 65.7325 73.1884 68.9905 72.677C69.9407 74.6533 70.8492 76.9329 71.5697 79.5216C71.9456 80.893 72.2327 82.2333 72.452 83.5446C68.0715 85.3011 63.9574 87.5913 60.1825 90.3321C58.1933 88.8787 56.1623 87.1908 54.1574 85.2124C49.5368 80.659 46.4511 75.9889 44.4254 72.2475C46.6704 69.7355 47.062 66.1399 45.1824 63.6622C43.0261 60.8279 38.7136 60.5283 35.5444 62.9939C32.3752 65.4589 31.5502 69.7555 33.7065 72.5893C35.607 75.0945 39.1991 75.6154 42.1908 74.002C45.1198 76.6524 48.9155 80.8349 51.8602 86.8459C53.202 89.5951 54.1418 92.2688 54.7944 94.7624C54.1888 95.3255 53.5831 95.9066 52.9984 96.4994C50.0432 99.4906 47.4118 102.802 45.1511 106.387C43.8198 105.998 42.4414 105.53 41.0317 104.954C36.4319 103.083 32.8712 100.698 30.292 98.6205C31.3884 95.3884 30.3233 91.9006 27.5927 90.3892C24.4966 88.6711 20.4294 90.1535 18.5081 93.7005C16.5867 97.248 17.5369 101.517 20.6382 103.234C23.3636 104.746 26.8304 103.78 28.9397 101.115C32.0724 102.21 35.9673 103.968 39.9979 106.855C41.1988 107.717 42.3056 108.604 43.329 109.497C40.1389 115.308 37.9147 121.732 36.8548 128.552C34.0981 128.79 31.1273 128.903 27.9425 128.805C23.3949 128.663 19.286 128.123 15.6991 127.421C15.6156 123.855 13.2557 120.869 10.0551 120.529C6.54659 120.156 3.35651 123.114 2.94405 127.138C2.52114 131.16 5.03768 134.724 8.54624 135.097C11.6737 135.429 14.5348 133.12 15.4224 129.773C19.1085 129.849 23.2436 130.181 27.7232 130.961C30.8193 131.501 33.6961 132.189 36.3432 132.954C36.2179 134.503 36.1552 136.069 36.1552 137.653C36.1552 141.415 36.505 145.095 37.1838 148.661C34.1399 150.7 29.9317 153.015 24.5853 154.639C19.8968 156.065 15.673 156.55 12.3107 156.654C11.1046 153.482 8.10246 151.504 5.05858 152.098C1.59179 152.777 -0.611493 156.545 0.150782 160.517C0.907836 164.489 4.33288 167.159 7.80489 166.481C10.8018 165.895 12.8432 162.999 12.8536 159.659C16.2995 158.525 20.3615 157.462 24.9874 156.768C30.3076 155.973 35.0745 155.86 39.0842 156.036C40.6975 160.957 42.9531 165.581 45.7359 169.814C44.4254 170.866 42.9531 171.905 41.3136 172.876C38.1549 174.736 35.1267 175.893 32.5005 176.64C30.7149 173.768 27.3943 172.419 24.5279 173.592C21.2543 174.935 19.8081 179.062 21.317 182.809C22.2568 185.161 24.1363 186.811 26.2143 187.376C27.4413 187.714 28.7413 187.673 29.9578 187.173C30.3233 187.025 30.6627 186.841 30.9759 186.621C33.3724 185.019 34.3853 181.698 33.3724 178.528C35.8576 177.231 38.7605 175.946 42.1125 174.886C44.2583 174.206 46.3102 173.711 48.242 173.341C50.0015 175.644 51.9333 177.804 54.0113 179.799C54.2097 179.988 54.4028 180.178 54.6012 180.356C53.1968 183.528 51.0822 187.382 47.8922 191.289C44.77 195.113 41.5225 197.899 38.7919 199.864C36.0508 197.899 32.464 197.94 30.2554 200.143C27.7441 202.656 27.9843 207.026 30.7984 209.906C33.6021 212.78 37.9252 213.077 40.4365 210.565C42.6137 208.386 42.7233 204.799 40.8646 202.014C43.0157 199.182 45.8194 195.986 49.401 192.833C53.2437 189.448 57.0395 186.942 60.3444 185.096C64.7197 188.243 69.5543 190.79 74.718 192.614C74.5091 194.579 74.1593 196.699 73.5903 198.926C72.3529 203.778 70.4889 207.668 68.7973 210.53C65.4871 209.859 62.2135 211.39 61.091 214.324C59.8171 217.656 61.8063 221.54 65.5341 223C69.262 224.463 73.3187 222.942 74.5927 219.604C75.7047 216.706 74.3421 213.392 71.5175 211.623C72.3163 208.172 73.5746 204.093 75.5795 199.71C76.561 197.572 77.6052 195.625 78.6755 193.848C82.6488 194.935 86.7943 195.601 91.0651 195.785C91.7647 199.169 92.3286 202.958 92.6001 207.097C93.0074 213.255 92.6784 218.707 92.0989 223.209C88.8514 223.846 86.4288 226.435 86.4288 229.527C86.4288 233.1 89.6711 236 93.6704 236C97.6698 236 100.907 233.1 100.907 229.527C100.907 226.446 98.4947 223.862 95.2681 223.214C94.7251 218.612 94.4275 213.172 94.7355 207.097C94.9496 203 95.409 199.217 95.9938 195.797C100.458 195.625 104.791 194.929 108.932 193.772C109.287 194.389 109.642 195.03 109.976 195.689C112.221 200.043 113.432 204.123 114.09 207.389C111.208 209.081 109.746 212.37 110.775 215.304C111.965 218.671 115.975 220.299 119.75 218.945C123.514 217.585 125.602 213.754 124.417 210.387C123.368 207.401 120.084 205.785 116.727 206.403C115.186 203.724 113.396 199.68 112.774 194.501C112.696 193.861 112.639 193.231 112.602 192.614C117.217 190.998 121.556 188.795 125.545 186.099C128.124 188.219 130.839 190.749 133.538 193.754C137.684 198.374 140.697 202.929 142.874 206.8C140.665 209.307 140.279 212.875 142.153 215.34C144.309 218.172 148.617 218.47 151.791 216.005C154.96 213.54 155.791 209.247 153.634 206.408C151.77 203.962 148.293 203.404 145.338 204.894C142.158 201.634 138.634 197.507 135.235 192.435C133.037 189.157 131.225 185.975 129.727 182.987C131.335 181.675 132.875 180.279 134.332 178.801C136.728 176.378 138.916 173.747 140.848 170.933C144.419 171.942 148.549 173.42 152.924 175.641C157.143 177.773 160.657 180.119 163.492 182.304C162.416 185.475 163.439 188.908 166.097 190.44C169.167 192.216 173.255 190.802 175.244 187.293C177.228 183.777 176.346 179.495 173.276 177.72C170.592 176.17 167.126 177.055 164.969 179.656C161.805 178.438 157.968 176.592 153.989 173.759C149.854 170.819 146.737 167.666 144.471 164.946C146.001 162.048 147.291 159.002 148.319 155.831C150.037 155.89 151.843 156.045 153.728 156.329C158.558 157.066 162.583 158.45 165.679 159.828C165.413 163.212 167.303 166.312 170.305 167.09C173.72 167.98 177.307 165.528 178.304 161.609C179.296 157.689 177.328 153.794 173.913 152.903C170.895 152.119 167.757 153.925 166.374 157.042C163.079 156.769 158.871 156.039 154.266 154.233C152.512 153.545 150.899 152.778 149.426 151.977C150.162 149.037 150.679 146.014 150.945 142.915C153.921 142.671 157.091 142.517 160.416 142.511C166.301 142.493 171.637 142.92 176.325 143.55C176.889 146.811 179.369 149.292 182.397 149.388C185.927 149.488 188.887 146.293 188.997 142.249C189.111 138.205 186.344 134.844 182.81 134.743Z" fill="#FA5752" fill-opacity="0.9"/>
<path d="M1046.3 62.6161C1044.49 62.562 1042.92 63.984 1042.48 65.9388C1039.67 66.1621 1036.47 66.2376 1032.95 66.0109C1030.98 65.8815 1029.12 65.6724 1027.38 65.4133C1027.39 65.0712 1027.39 64.7257 1027.39 64.3801C1027.39 62.6987 1027.28 61.0465 1027.05 59.4302C1027.94 58.7355 1029.05 58.0047 1030.39 57.3779C1032.72 56.2839 1034.91 55.8948 1036.59 55.7833C1037.41 57.7023 1039.31 58.8178 1041.13 58.3323C1043.17 57.785 1044.34 55.4198 1043.74 53.0473C1043.13 50.6752 1040.99 49.1917 1038.94 49.739C1037.08 50.2393 1035.94 52.2483 1036.21 54.3972C1034.74 55.2543 1032.55 56.183 1029.84 56.2516C1028.5 56.2874 1027.33 56.1036 1026.38 55.866C1025.78 53.357 1024.91 50.9519 1023.81 48.6841C1024.98 47.6042 1026.36 46.4592 1027.97 45.354C1030.31 43.7485 1032.57 42.6001 1034.55 41.776C1035.84 43.3235 1037.91 43.8385 1039.5 42.895C1041.32 41.8154 1041.84 39.2123 1040.65 37.0887C1039.45 34.9644 1037 34.1221 1035.17 35.2055C1033.58 36.1452 1032.99 38.2336 1033.64 40.1558C1031.94 41.5096 1029.84 42.9386 1027.33 44.2132C1025.62 45.0843 1023.99 45.7466 1022.51 46.2504C1021.3 44.1732 1019.88 42.2366 1018.29 40.4691C1018.9 38.1939 1019.93 35.5367 1021.69 32.8731C1023.35 30.3818 1025.18 28.5639 1026.75 27.2855C1028.46 28.3766 1030.62 28.2072 1031.85 26.7708C1033.25 25.1439 1032.93 22.5123 1031.13 20.8921C1029.34 19.2687 1026.75 19.2722 1025.36 20.8991C1024.13 22.3358 1024.23 24.5498 1025.51 26.1661C1024.5 27.8725 1022.97 29.9891 1020.73 32.0052C1018.26 34.2303 1015.78 35.5623 1013.89 36.3543C1011.74 34.6656 1009.4 33.2327 1006.89 32.099C1007.26 31.0658 1007.74 30.0253 1008.37 29.003C1008.87 28.1931 1009.42 27.4799 1009.97 26.8576C1011.88 27.6531 1014.01 27.0802 1014.97 25.4135C1016.06 23.5525 1015.27 21.0253 1013.21 19.7724C1011.16 18.5196 1008.62 19.0128 1007.53 20.8777C1006.59 22.5158 1007.09 24.6683 1008.62 26.0147C1008.3 26.8787 1007.91 27.7755 1007.45 28.6895C1006.93 29.7409 1006.35 30.7094 1005.75 31.6058C1005.5 31.5014 1005.24 31.4005 1004.99 31.3073C1002 30.1624 998.823 29.4389 995.511 29.1936C994.967 27.689 994.493 26.0214 994.162 24.1898C993.485 20.4524 993.61 17.1994 993.922 14.7565C995.87 14.3738 997.331 12.8042 997.331 10.9236C997.331 8.75671 995.392 6.99976 993.001 6.99976C990.613 6.99976 988.674 8.75671 988.674 10.9236C988.674 12.8368 990.188 14.4279 992.183 14.7754C992.617 17.1825 992.901 20.5529 992.23 24.4595C991.933 26.1793 991.496 27.7466 990.984 29.1651C987.81 29.3489 984.754 29.9779 981.866 30.9915C981.464 30.3372 981.105 29.6503 980.783 28.84C980.143 27.2358 979.865 25.7312 979.756 24.4793C981.623 23.482 982.587 21.3898 981.925 19.5387C981.204 17.5027 978.795 16.5346 976.55 17.3759C974.306 18.2172 973.073 20.5494 973.797 22.585C974.421 24.3419 976.3 25.3005 978.248 24.9905C978.816 26.1886 979.36 27.5705 979.79 29.1398C980.015 29.9712 980.187 30.7837 980.318 31.5786C977.699 32.6434 975.239 34.0318 972.982 35.6933C971.793 34.8123 970.579 33.789 969.38 32.5896C966.617 29.8293 964.772 26.9982 963.561 24.7301C964.903 23.2073 965.138 21.0275 964.014 19.5255C962.725 17.8073 960.146 17.6257 958.251 19.1204C956.357 20.6147 955.863 23.2194 957.153 24.9373C958.289 26.456 960.437 26.7718 962.225 25.7937C963.976 27.4004 966.246 29.9359 968.006 33.5799C968.809 35.2465 969.37 36.8674 969.761 38.379C969.399 38.7204 969.036 39.0727 968.687 39.432C966.92 41.2454 965.347 43.2531 963.995 45.4261C963.199 45.1903 962.375 44.9063 961.532 44.5575C958.782 43.4231 956.653 41.9775 955.111 40.7179C955.767 38.7585 955.13 36.6442 953.497 35.7279C951.646 34.6864 949.214 35.585 948.066 37.7353C946.917 39.8858 947.485 42.4736 949.339 43.5147C950.969 44.431 953.041 43.8456 954.303 42.2298C956.176 42.8941 958.504 43.9599 960.914 45.7098C961.632 46.2325 962.294 46.7702 962.906 47.3111C960.998 50.8343 959.669 54.7284 959.035 58.8626C957.387 59.0074 955.611 59.0759 953.706 59.016C950.987 58.9299 948.531 58.6029 946.386 58.1773C946.336 56.0152 944.925 54.2051 943.012 53.9991C940.914 53.773 939.007 55.5665 938.76 58.0056C938.507 60.4441 940.012 62.6046 942.11 62.8307C943.979 63.0318 945.69 61.632 946.221 59.6031C948.425 59.6489 950.897 59.8507 953.575 60.3234C955.426 60.6504 957.146 61.068 958.729 61.5314C958.654 62.4704 958.617 63.42 958.617 64.3801C958.617 66.6607 958.826 68.8913 959.232 71.0531C957.412 72.2896 954.896 73.6927 951.699 74.6775C948.896 75.5416 946.371 75.8356 944.36 75.8987C943.639 73.9761 941.844 72.7771 940.024 73.1371C937.952 73.5483 936.634 75.8327 937.09 78.2404C937.543 80.6485 939.591 82.2671 941.666 81.8558C943.458 81.501 944.679 79.745 944.685 77.7203C946.745 77.033 949.174 76.3887 951.94 75.9682C955.12 75.4862 957.97 75.4173 960.368 75.5243C961.332 78.5075 962.681 81.3108 964.345 83.8767C963.561 84.5143 962.681 85.1443 961.701 85.7329C959.812 86.8603 958.002 87.5616 956.432 88.0148C955.364 86.2735 953.379 85.4556 951.665 86.1672C949.708 86.981 948.843 89.4829 949.745 91.7545C950.307 93.18 951.431 94.1808 952.673 94.5229C953.407 94.7281 954.184 94.7028 954.911 94.4002C955.13 94.3105 955.333 94.1988 955.52 94.0655C956.953 93.0942 957.558 91.0807 956.953 89.1594C958.439 88.3729 960.174 87.594 962.178 86.9515C963.461 86.5394 964.688 86.2389 965.843 86.0148C966.895 87.4108 968.05 88.7203 969.292 89.9297C969.411 90.0443 969.527 90.1596 969.645 90.2675C968.805 92.1901 967.541 94.5264 965.634 96.8954C963.767 99.2134 961.826 100.902 960.193 102.094C958.554 100.902 956.41 100.927 955.089 102.263C953.588 103.786 953.731 106.435 955.414 108.181C957.09 109.924 959.675 110.104 961.176 108.581C962.478 107.26 962.544 105.085 961.432 103.397C962.718 101.68 964.395 99.7428 966.536 97.8312C968.834 95.7792 971.103 94.2599 973.079 93.1406C975.695 95.0484 978.585 96.5927 981.673 97.6982C981.548 98.8896 981.339 100.175 980.998 101.525C980.259 104.466 979.144 106.824 978.133 108.559C976.154 108.153 974.196 109.081 973.525 110.859C972.764 112.879 973.953 115.234 976.182 116.119C978.411 117.006 980.836 116.084 981.598 114.06C982.263 112.303 981.448 110.294 979.759 109.222C980.237 107.13 980.989 104.657 982.188 102C982.775 100.704 983.399 99.5234 984.039 98.4467C986.414 99.1055 988.893 99.509 991.446 99.6205C991.865 101.672 992.202 103.969 992.364 106.479C992.608 110.212 992.411 113.516 992.064 116.246C990.123 116.632 988.674 118.201 988.674 120.076C988.674 122.242 990.613 124 993.004 124C995.395 124 997.331 122.242 997.331 120.076C997.331 118.208 995.888 116.641 993.959 116.249C993.635 113.459 993.457 110.161 993.641 106.479C993.769 103.994 994.044 101.702 994.393 99.6278C997.062 99.5234 999.653 99.102 1002.13 98.4003C1002.34 98.7743 1002.55 99.1631 1002.75 99.5628C1004.1 102.202 1004.82 104.675 1005.21 106.655C1003.49 107.681 1002.62 109.675 1003.23 111.453C1003.94 113.495 1006.34 114.482 1008.6 113.66C1010.85 112.836 1012.1 110.514 1011.39 108.472C1010.76 106.662 1008.8 105.683 1006.79 106.057C1005.87 104.434 1004.8 101.982 1004.43 98.8425C1004.38 98.4541 1004.34 98.0723 1004.32 97.6982C1007.08 96.7189 1009.68 95.3834 1012.06 93.7488C1013.6 95.034 1015.23 96.5677 1016.84 98.3894C1019.32 101.19 1021.12 103.951 1022.42 106.298C1021.1 107.818 1020.87 109.981 1021.99 111.475C1023.28 113.192 1025.86 113.373 1027.75 111.878C1029.65 110.384 1030.14 107.782 1028.86 106.061C1027.74 104.578 1025.66 104.239 1023.9 105.143C1021.99 103.166 1019.89 100.665 1017.85 97.59C1016.54 95.6028 1015.46 93.6735 1014.56 91.8624C1015.52 91.0669 1016.44 90.2208 1017.31 89.3247C1018.75 87.8556 1020.06 86.2607 1021.21 84.5547C1023.35 85.1664 1025.82 86.0628 1028.43 87.4092C1030.95 88.7018 1033.05 90.1234 1034.75 91.4483C1034.11 93.3709 1034.72 95.4516 1036.31 96.3804C1038.14 97.4571 1040.59 96.6001 1041.78 94.4726C1042.96 92.3416 1042.43 89.7455 1040.6 88.6694C1038.99 87.7298 1036.92 88.2662 1035.63 89.8429C1033.74 89.1047 1031.45 87.9853 1029.07 86.2681C1026.6 84.4862 1024.73 82.5745 1023.38 80.9255C1024.29 79.1689 1025.06 77.3222 1025.68 75.3997C1026.7 75.4359 1027.78 75.5294 1028.91 75.702C1031.8 76.1488 1034.21 76.9875 1036.06 77.8228C1035.9 79.8744 1037.03 81.7537 1038.82 82.2251C1040.86 82.7651 1043.01 81.2784 1043.6 78.9024C1044.2 76.5264 1043.02 74.1651 1040.98 73.6251C1039.18 73.1495 1037.3 74.2445 1036.47 76.134C1034.5 75.9685 1031.99 75.5259 1029.23 74.4312C1028.18 74.0139 1027.22 73.5492 1026.34 73.0634C1026.78 71.2814 1027.09 69.4486 1027.25 67.5699C1029.03 67.4223 1030.92 67.3288 1032.91 67.3249C1036.43 67.314 1039.62 67.5731 1042.42 67.9549C1042.76 69.9315 1044.24 71.4361 1046.05 71.4938C1048.16 71.555 1049.93 69.618 1050 67.1664C1050.07 64.7148 1048.41 62.6773 1046.3 62.6161Z" fill="#FA5752" fill-opacity="0.75"/>
<path d="M1168.66 417.493C1164.56 417.371 1161.03 420.58 1160.03 424.991C1153.69 425.494 1146.45 425.665 1138.51 425.153C1134.09 424.86 1129.88 424.389 1125.95 423.805C1125.97 423.033 1125.98 422.253 1125.98 421.474C1125.98 417.681 1125.71 413.952 1125.21 410.304C1127.21 408.736 1129.72 407.087 1132.76 405.674C1138.02 403.205 1142.94 402.328 1146.74 402.076C1148.6 406.405 1152.88 408.924 1156.97 407.827C1161.59 406.593 1164.23 401.255 1162.86 395.902C1161.5 390.549 1156.67 387.202 1152.05 388.436C1147.85 389.566 1145.28 394.098 1145.89 398.948C1142.57 400.882 1137.62 402.977 1131.5 403.131C1128.49 403.213 1125.84 402.798 1123.7 402.263C1122.34 396.6 1120.39 391.174 1117.89 386.057C1120.53 383.62 1123.64 381.037 1127.29 378.542C1132.57 374.92 1137.67 372.329 1142.14 370.468C1145.06 373.962 1149.71 375.124 1153.3 372.996C1157.43 370.557 1158.58 364.684 1155.89 359.892C1153.2 355.1 1147.66 353.199 1143.54 355.644C1139.95 357.764 1138.6 362.475 1140.08 366.813C1136.24 369.867 1131.52 373.092 1125.84 375.968C1121.99 377.934 1118.3 379.428 1114.95 380.565C1112.22 375.879 1109.03 371.508 1105.44 367.519C1106.82 362.386 1109.15 356.391 1113.13 350.38C1116.86 344.759 1121 340.657 1124.51 337.773C1128.39 340.234 1133.27 339.852 1136.05 336.611C1139.2 332.94 1138.48 327.002 1134.42 323.347C1130.38 319.684 1124.55 319.69 1121.4 323.363C1118.62 326.604 1118.84 331.6 1121.73 335.246C1119.45 339.097 1116.01 343.873 1110.96 348.423C1105.38 353.442 1099.79 356.448 1095.52 358.235C1090.66 354.425 1085.37 351.192 1079.72 348.634C1080.54 346.302 1081.63 343.955 1083.05 341.648C1084.2 339.82 1085.43 338.212 1086.67 336.806C1090.97 338.601 1095.79 337.31 1097.96 333.549C1100.4 329.35 1098.61 323.646 1093.97 320.821C1089.33 317.994 1083.61 319.106 1081.17 323.314C1079.03 327.011 1080.16 331.867 1083.61 334.905C1082.89 336.856 1082.02 338.878 1080.97 340.94C1079.79 343.313 1078.5 345.499 1077.14 347.52C1076.56 347.285 1076 347.058 1075.42 346.847C1068.69 344.263 1061.52 342.631 1054.04 342.078C1052.81 338.683 1051.74 334.92 1050.99 330.787C1049.46 322.354 1049.75 315.015 1050.45 309.502C1054.85 308.638 1058.14 305.097 1058.14 300.854C1058.14 295.964 1053.77 292 1048.38 292C1042.98 292 1038.61 295.964 1038.61 300.854C1038.61 305.17 1042.02 308.76 1046.52 309.544C1047.5 314.977 1048.15 322.581 1046.64 331.396C1045.97 335.276 1044.98 338.812 1043.82 342.014C1036.65 342.428 1029.75 343.848 1023.24 346.135C1022.34 344.659 1021.52 343.108 1020.79 341.28C1019.36 337.659 1018.74 334.265 1018.49 331.441C1022.7 329.19 1024.87 324.468 1023.39 320.292C1021.75 315.699 1016.32 313.513 1011.25 315.412C1006.18 317.311 1003.39 322.573 1005.04 327.167C1006.45 331.13 1010.69 333.294 1015.08 332.593C1016.36 335.297 1017.59 338.415 1018.55 341.957C1019.07 343.832 1019.45 345.666 1019.75 347.46C1013.84 349.862 1008.29 352.996 1003.2 356.745C1000.52 354.756 997.776 352.447 995.065 349.742C988.826 343.513 984.667 337.124 981.934 332.007C984.961 328.571 985.495 323.652 982.958 320.263C980.051 316.385 974.225 315.976 969.946 319.348C965.678 322.722 964.568 328.598 967.464 332.475C970.044 335.901 974.879 336.613 978.929 334.406C982.871 338.033 987.999 343.753 991.962 351.976C993.781 355.737 995.044 359.393 995.936 362.804C995.12 363.574 994.292 364.369 993.497 365.18C989.523 369.272 985.963 373.802 982.914 378.704C981.118 378.174 979.256 377.532 977.35 376.745C971.155 374.186 966.353 370.924 962.869 368.081C964.35 363.66 962.902 358.891 959.221 356.822C955.051 354.471 949.564 356.499 946.972 361.353C944.37 366.204 945.655 372.043 949.847 374.393C953.516 376.459 958.198 375.139 961.04 371.493C965.264 372.992 970.534 375.397 975.967 379.346C977.59 380.525 979.071 381.738 980.453 382.958C976.153 390.908 973.147 399.695 971.721 409.024C968.008 409.349 964.001 409.506 959.701 409.369C953.56 409.176 948.018 408.438 943.172 407.477C943.063 402.598 939.884 398.515 935.572 398.05C930.825 397.539 926.524 401.586 925.958 407.09C925.403 412.593 928.789 417.467 933.525 417.977C937.75 418.431 941.604 415.272 942.813 410.694C947.778 410.797 953.353 411.253 959.396 412.319C963.588 413.058 967.453 413.999 971.035 415.046C970.861 417.165 970.785 419.307 970.785 421.474C970.785 426.62 971.253 431.651 972.168 436.53C968.052 439.322 962.39 442.487 955.171 444.71C948.845 446.659 943.151 447.322 938.61 447.465C936.977 443.127 932.927 440.421 928.822 441.233C924.151 442.16 921.178 447.315 922.202 452.747C923.225 458.181 927.853 461.834 932.524 460.907C936.574 460.105 939.329 456.143 939.34 451.575C943.989 450.024 949.477 448.569 955.715 447.622C962.88 446.534 969.315 446.377 974.737 446.619C976.904 453.352 979.953 459.676 983.709 465.465C981.934 466.905 979.963 468.326 977.731 469.654C973.474 472.198 969.391 473.781 965.841 474.804C963.446 470.873 958.96 469.028 955.084 470.634C950.674 472.471 948.725 478.116 950.75 483.241C952.024 486.458 954.561 488.717 957.37 489.488C959.025 489.951 960.779 489.895 962.423 489.213C962.902 489.009 963.37 488.757 963.794 488.456C967.017 486.265 968.389 481.721 967.028 477.386C970.382 475.611 974.302 473.853 978.809 472.404C981.716 471.474 984.482 470.795 987.084 470.29C989.458 473.44 992.071 476.396 994.869 479.123C995.131 479.383 995.403 479.644 995.664 479.886C993.77 484.224 990.917 489.496 986.616 494.841C982.402 500.073 978.025 503.882 974.334 506.572C970.643 503.882 965.798 503.94 962.825 506.953C959.428 510.389 959.755 516.368 963.555 520.307C967.333 524.238 973.169 524.646 976.555 521.209C979.506 518.227 979.648 513.322 977.143 509.512C980.04 505.636 983.818 501.267 988.641 496.953C993.835 492.323 998.952 488.895 1003.42 486.369C1009.32 490.674 1015.84 494.158 1022.8 496.653C1022.53 499.341 1022.06 502.241 1021.28 505.288C1019.61 511.925 1017.1 517.245 1014.83 521.161C1010.35 520.242 1005.93 522.338 1004.42 526.351C1002.71 530.908 1005.4 536.221 1010.43 538.219C1015.45 540.217 1020.91 538.137 1022.64 533.572C1024.14 529.608 1022.31 525.076 1018.49 522.654C1019.56 517.935 1021.27 512.354 1023.97 506.359C1025.3 503.436 1026.71 500.771 1028.14 498.343C1033.51 499.829 1039.1 500.74 1044.87 500.991C1045.8 505.622 1046.57 510.803 1046.94 516.465C1047.49 524.888 1047.05 532.346 1046.26 538.503C1041.88 539.373 1038.61 542.914 1038.61 547.147C1038.61 552.037 1042.97 556 1048.38 556C1053.77 556 1058.14 552.037 1058.14 547.147C1058.14 542.93 1054.88 539.396 1050.53 538.511C1049.8 532.215 1049.41 524.775 1049.82 516.465C1050.1 510.859 1050.73 505.685 1051.51 501.007C1057.54 500.771 1063.39 499.821 1068.97 498.236C1069.45 499.081 1069.92 499.959 1070.38 500.861C1073.42 506.815 1075.05 512.396 1075.93 516.863C1072.04 519.178 1070.06 523.678 1071.47 527.692C1073.06 532.297 1078.48 534.523 1083.56 532.67C1088.64 530.81 1091.47 525.571 1089.87 520.965C1088.45 516.88 1084.02 514.669 1079.49 515.515C1077.41 511.851 1075 506.319 1074.16 499.236C1074.05 498.358 1073.97 497.498 1073.93 496.653C1080.15 494.443 1086 491.43 1091.39 487.742C1094.87 490.641 1098.52 494.102 1102.16 498.212C1107.76 504.532 1111.83 510.763 1114.77 516.059C1111.79 519.487 1111.27 524.369 1113.79 527.74C1116.71 531.614 1122.52 532.021 1126.8 528.649C1131.07 525.279 1132.18 519.406 1129.28 515.524C1126.77 512.176 1122.08 511.412 1118.09 513.452C1113.8 508.992 1109.04 503.347 1104.46 496.409C1101.5 491.925 1099.05 487.572 1097.03 483.485C1099.2 481.69 1101.27 479.781 1103.25 477.758C1106.47 474.444 1109.42 470.845 1112.04 466.995C1116.86 468.377 1122.42 470.4 1128.33 473.437C1134.02 476.354 1138.77 479.562 1142.59 482.551C1141.14 486.889 1142.51 491.584 1146.11 493.679C1150.24 496.109 1155.76 494.175 1158.44 489.375C1161.12 484.566 1159.92 478.709 1155.79 476.279C1152.17 474.16 1147.48 475.371 1144.58 478.929C1140.31 477.262 1135.13 474.737 1129.76 470.862C1124.19 466.841 1119.97 462.527 1116.93 458.807C1118.98 454.844 1120.73 450.677 1122.12 446.338C1124.43 446.42 1126.88 446.631 1129.4 447.021C1135.93 448.028 1141.36 449.92 1145.54 451.805C1145.18 456.436 1147.73 460.676 1151.77 461.74C1156.38 462.959 1161.22 459.603 1162.57 454.243C1163.91 448.882 1161.26 443.553 1156.63 442.334C1152.58 441.261 1148.35 443.731 1146.47 447.995C1142.03 447.622 1136.34 446.622 1130.12 444.154C1127.77 443.211 1125.59 442.163 1123.61 441.066C1124.6 437.046 1125.3 432.91 1125.66 428.67C1129.68 428.337 1133.94 428.126 1138.44 428.117C1146.37 428.094 1153.58 428.678 1159.9 429.539C1160.66 433.999 1164.01 437.395 1168.09 437.526C1172.86 437.663 1176.85 433.292 1177 427.761C1177.15 422.23 1173.41 417.631 1168.66 417.493Z" fill="#FA5752" fill-opacity="0.92"/>
<path d="M890.349 286.798V698.903" stroke="#925D51" stroke-width="5.81" stroke-miterlimit="10"/>
<path d="M809.958 285.333C809.958 285.333 880.096 315.068 970.015 281.834L921.456 171.64L849.527 169.89L809.958 285.333Z" fill="#AC6352"/>
<path d="M940.493 214.839C912.232 246.847 866.334 260.325 818.173 261.365L809.958 285.333C809.958 285.333 880.096 315.068 970.017 281.834L940.493 214.839Z" fill="#984B39"/>
<rect x="266.703" y="762.272" width="726.385" height="16.939" rx="8.46951" fill="#925D51"/>
<path fill-rule="evenodd" clip-rule="evenodd" d="M630.526 393.656C629.719 393.53 628.899 393.469 628.069 393.469H443.466H443.306C430.555 393.468 420.245 393.468 420.245 440.304V691.357C420.245 685.047 423.505 686.815 428.626 689.594C432.65 691.777 437.823 694.584 443.466 694.584H628.069C629.838 694.584 631.561 694.308 633.216 693.862H814.076C821.921 693.862 829.112 691.064 834.706 688.887C841.824 686.117 846.355 684.353 846.355 690.644V440.35C846.355 393.654 832.023 393.655 814.298 393.656H814.076H630.526Z" fill="#F5C827"/>
<g opacity="0.699997">
<g opacity="0.699997">
<path d="M435.084 524.238V690.898C435.084 678.92 444.42 694.329 455.935 694.329H621.7C630.091 694.329 637.319 686.159 640.627 686.353V690.898C640.627 688.619 640.964 687.336 641.584 686.745C642.211 687.336 642.551 688.619 642.551 690.898V686.351C645.836 686.189 652.985 694.329 661.282 694.329H825.481C836.889 694.329 846.136 678.92 846.136 690.898V424.073C846.136 421.404 846.105 418.906 846.053 416.514L435.084 524.238Z" fill="#DCB21D"/>
</g>
</g>
<path d="M453.511 648.111C453.511 665.026 443.841 678.737 431.913 678.737H384.396C372.467 678.737 362.796 665.026 362.796 648.111V537.856C362.796 520.941 372.467 507.229 384.396 507.229H431.913C443.841 507.229 453.511 520.941 453.511 537.856V648.111Z" fill="#EBAFB2"/>
<path d="M473.267 660.326C473.267 678.723 459.237 693.637 441.929 693.637H372.986C355.678 693.637 341.647 678.723 341.647 660.326V540.408C341.647 522.01 355.678 507.097 372.986 507.097H441.929C459.237 507.097 473.267 522.01 473.267 540.408V660.326Z" fill="#CAA41E"/>
<path d="M957.102 660.611C957.102 679.066 943.266 694.026 926.198 694.026H858.209C841.141 694.026 827.305 679.066 827.305 660.611V540.318C827.305 521.863 841.141 506.903 858.209 506.903H926.198C943.266 506.903 957.102 521.863 957.102 540.318V660.611Z" fill="#CAA41E"/>
<path d="M392.78 801.411C392.78 807.258 388.964 812 384.259 812C379.551 812 375.735 807.258 375.735 801.411V764.827C375.735 758.98 379.551 754.239 384.259 754.239C388.964 754.239 392.78 758.98 392.78 764.827V801.411Z" fill="#925D51"/>
<path d="M922.095 799.517C922.095 805.364 918.28 810.106 913.572 810.106C908.867 810.106 905.051 805.364 905.051 799.517V762.933C905.051 757.086 908.867 752.345 913.572 752.345C918.28 752.345 922.095 757.086 922.095 762.933V799.517Z" fill="#925D51"/>
<path d="M936.358 507.097H912.461C900.463 507.097 890.737 520.816 890.737 537.739V690.946H405.205V537.739C405.205 520.816 395.479 507.097 383.481 507.097H359.586C347.588 507.097 337.862 520.816 337.862 537.739V747.632C337.862 756.489 340.542 764.444 344.801 770.039C348.766 776.034 354.401 779.805 360.673 779.805L936.358 778.274C948.356 778.274 958.082 764.555 958.082 747.632V537.739C958.082 520.816 948.356 507.097 936.358 507.097Z" fill="#F5C827"/>
<path d="M528.952 523.195H440.537C437.173 523.195 434.446 526.376 434.446 530.3V633.451C434.446 637.376 437.173 640.557 440.537 640.557H528.952C532.316 640.557 535.042 637.376 535.042 633.451V530.3C535.042 526.376 532.316 523.195 528.952 523.195Z" fill="white"/>
<path d="M871.098 534.406L790.695 520.374C787.636 519.84 784.608 522.547 783.931 526.421L766.141 628.247C765.465 632.121 767.396 635.694 770.454 636.228L850.858 650.261C853.916 650.795 856.945 648.087 857.622 644.213L875.411 542.387C876.088 538.513 874.157 534.94 871.098 534.406Z" fill="white"/>
<path fill-rule="evenodd" clip-rule="evenodd" d="M861.963 714.351C878.288 714.351 891.522 699.584 891.522 681.366V651.681C891.522 633.463 878.288 618.696 861.963 618.696H633.667C632.027 618.045 630.311 617.699 628.544 617.699H425.645C414.032 617.699 404.619 632.621 404.619 651.028V681.023C404.619 699.43 414.032 714.351 425.645 714.351H581.093C581.112 714.351 581.131 714.351 581.15 714.351H861.963Z" fill="#FFE792"/>
<path d="M574.735 355.499C571.707 355.256 568.885 353.873 566.812 351.652C561.395 345.841 553.637 332.331 564.748 308.335C585.433 263.649 661.079 270.353 679.121 302.824C691.959 325.923 704.73 330.507 697.839 337.456C691.191 344.164 612.405 358.54 574.735 355.499Z" fill="#FF504A"/>
<path d="M708.064 623.965C707.982 623.977 707.895 623.988 707.813 624C691.453 626.383 674.863 628.572 658.226 629.857C657.273 629.928 656.318 630.002 655.362 630.061C637.756 631.312 620.103 631.501 602.633 629.781C596.903 629.218 591.188 628.441 585.533 627.406C572.892 625.097 564.372 613.15 566.418 600.466C568.346 588.559 569.605 577.277 570.435 566.672C570.558 565.096 570.678 563.538 570.777 561.996C571.616 549.617 571.888 538.217 571.977 527.861C571.981 526.981 571.988 526.11 571.992 525.248C571.992 524.858 572 524.47 572 524.09C572.004 523.498 572.004 522.913 572.004 522.334C572.011 521.939 572.011 521.549 572.011 521.169C572.011 520.36 572.015 519.573 572.011 518.786C572.023 516.365 572.015 514.012 572.023 511.73V511.123C572.027 503.221 572.059 496.146 572.376 489.944C572.388 489.661 572.399 489.385 572.422 489.107C572.492 487.82 572.557 486.542 572.62 485.283C572.675 484.062 572.736 482.852 572.78 481.656C572.911 478.297 573 475.06 573.054 471.97C573.086 469.37 573.086 466.878 573.046 464.514C572.996 461.892 572.903 459.435 572.755 457.158C572.698 456.405 572.647 455.627 572.586 454.828C572.492 453.619 572.392 452.364 572.287 451.074C572.224 450.291 572.158 449.501 572.078 448.699C572.044 448.349 572.015 447.993 571.981 447.634C571.977 447.544 571.966 447.459 571.96 447.377C571.914 446.881 571.869 446.386 571.825 445.882C571.775 445.393 571.726 444.905 571.678 444.41C571.6 443.548 571.515 442.67 571.42 441.784C571.013 437.649 570.539 433.309 570.058 428.861C569.9 427.466 569.746 426.051 569.59 424.635C569.341 422.44 569.09 420.22 568.847 418.012C568.679 416.586 568.518 415.16 568.358 413.735C565.918 392.284 563.622 371.746 564.438 365.228C565.851 353.943 620.51 324.154 620.51 324.154L653.319 323.123C653.319 323.123 699.372 341.674 707.868 352.872C707.914 352.927 707.952 352.984 707.993 353.036C709.92 355.674 711.133 359.338 711.828 363.869C712.45 367.851 712.67 372.497 712.624 377.708C712.604 381.417 712.442 385.415 712.202 389.654C711.949 394.148 711.605 398.918 711.227 403.912C711.118 405.365 711.004 406.837 710.89 408.326C710.772 409.84 710.66 411.367 710.544 412.914C710.47 413.912 710.396 414.92 710.321 415.932C710.122 418.6 709.926 421.318 709.749 424.072C709.692 424.96 709.629 425.857 709.572 426.757C709.534 427.324 709.502 427.9 709.471 428.471C709.435 429.054 709.401 429.636 709.369 430.224V430.236C709.338 430.776 709.304 431.31 709.279 431.848C709.239 432.434 709.213 433.022 709.184 433.611C709.129 434.692 709.072 435.774 709.028 436.865C708.982 437.765 708.946 438.674 708.912 439.581C708.899 439.741 708.893 439.91 708.893 440.074C708.863 440.66 708.84 441.247 708.825 441.829L708.815 442.135L708.807 442.282C708.785 443.048 708.758 443.828 708.737 444.6C708.707 445.528 708.684 446.455 708.661 447.377C708.652 447.803 708.648 448.242 708.64 448.676C708.629 449.058 708.625 449.454 708.617 449.842C708.617 450.04 708.613 450.23 708.613 450.431C708.602 450.966 708.594 451.5 708.589 452.05C708.581 452.961 708.579 453.883 708.579 454.828V456.323C708.581 458.938 708.61 461.671 708.661 464.514C708.68 465.688 708.707 466.878 708.733 468.086C708.762 469.366 708.796 470.659 708.828 471.97C708.912 474.724 709.001 477.536 709.114 480.401C709.125 480.819 709.138 481.234 709.157 481.656C709.165 481.827 709.169 481.996 709.176 482.167C709.211 483.101 709.247 484.039 709.291 484.988C709.35 486.352 709.412 487.73 709.467 489.107C709.53 490.598 709.633 492.179 709.764 493.845C709.926 495.929 710.133 498.139 710.384 500.475C710.439 501.02 710.502 501.574 710.569 502.129C710.671 503.025 710.772 503.938 710.898 504.864C710.966 505.446 711.035 506.024 711.113 506.616C711.16 506.988 711.208 507.363 711.259 507.74C711.44 509.143 711.636 510.587 711.843 512.055C711.866 512.219 711.888 512.38 711.909 512.544C712.016 513.287 712.132 514.035 712.235 514.796C712.446 516.245 712.674 517.724 712.904 519.223C712.973 519.643 713.035 520.071 713.102 520.495C713.501 523.048 713.931 525.665 714.38 528.341C714.458 528.806 714.543 529.286 714.623 529.763C714.802 530.817 714.987 531.878 715.171 532.947C715.818 536.671 716.502 540.48 717.217 544.35C718.052 548.825 718.922 553.378 719.823 557.966C720.561 561.739 721.325 565.533 722.098 569.327C723.904 578.203 725.783 587.075 727.638 595.636C730.53 608.964 721.559 621.997 708.064 623.965Z" fill="white"/>
<path d="M711.83 363.869C687.861 369.006 665.625 370.472 648.061 370.472C644.87 370.472 641.835 370.425 638.968 370.343C611.835 369.55 594.186 365.617 593.446 365.453L594.724 359.805L595.998 354.158H596.002C596.348 354.236 613.659 358.045 639.615 358.778C657.146 359.27 681.372 358.394 707.871 352.872C707.914 352.928 707.954 352.983 707.994 353.036C709.921 355.674 711.136 359.339 711.83 363.869Z" fill="#1DB776" fill-opacity="0.56"/>
<path d="M712.624 377.708C712.601 381.417 712.439 385.415 712.2 389.654C688.757 394.637 666.901 396.105 649.307 396.105C644.95 396.105 640.856 396.016 637.061 395.865C609.945 394.804 592.341 390.696 591.605 390.521L594.272 379.251C594.445 379.293 611.75 383.311 637.822 384.304C656.765 385.031 683.546 384.23 712.624 377.708Z" fill="#1DB776" fill-opacity="0.56"/>
<path d="M711.228 403.912C711.12 405.365 711.006 406.837 710.892 408.326C710.774 409.84 710.662 411.367 710.546 412.913C710.471 413.912 710.397 414.92 710.321 415.932C688.235 420.395 667.581 421.763 650.575 421.763C645.019 421.763 639.862 421.618 635.162 421.39C608.066 420.057 590.507 415.772 589.771 415.593L592.549 404.349C592.72 404.389 609.983 408.581 636.037 409.836C655.042 410.751 681.959 410.213 711.228 403.912Z" fill="#1DB776" fill-opacity="0.56"/>
<path d="M709.371 430.224V430.235C709.341 430.777 709.309 431.31 709.282 431.848C709.244 432.436 709.217 433.021 709.187 433.611C709.132 434.691 709.077 435.773 709.031 436.865C708.987 437.765 708.949 438.674 708.917 439.581C708.903 439.741 708.896 439.91 708.896 440.074C708.865 440.659 708.845 441.247 708.829 441.829L708.818 442.135C687.915 446.173 668.308 447.455 651.84 447.455C645.074 447.455 638.841 447.242 633.259 446.909C606.183 445.307 588.667 440.846 587.934 440.659L590.825 429.446H590.829C590.987 429.488 595.361 430.589 602.936 431.871C610.511 433.153 621.283 434.613 634.248 435.368C653.217 436.473 680.09 436.205 709.371 430.224Z" fill="#1DB776" fill-opacity="0.56"/>
<path d="M589.101 454.545L587.602 460.136L589.105 454.545H589.101ZM708.666 464.514C708.615 461.671 708.586 458.938 708.583 456.323C678.874 462.194 651.624 462.209 632.465 460.899C606.552 459.132 589.418 454.626 589.105 454.545L587.602 460.136L586.102 465.728C586.83 465.922 604.297 470.558 631.356 472.43C637.796 472.878 645.105 473.179 653.106 473.179C669.374 473.179 688.465 471.929 708.737 468.086C708.712 466.878 708.685 465.688 708.666 464.514Z" fill="#1DB776" fill-opacity="0.56"/>
<path d="M709.767 493.844C689.689 497.665 670.706 498.935 654.364 498.935C645.119 498.935 636.722 498.528 629.45 497.954C602.413 495.805 584.992 490.997 584.262 490.795L585.821 485.219L587.375 479.643H587.377C587.655 479.721 604.75 484.401 630.674 486.434C650.322 487.973 678.502 488.203 709.179 482.166C709.213 483.102 709.251 484.04 709.293 484.987C709.352 486.351 709.415 487.729 709.472 489.108C709.535 490.597 709.637 492.178 709.767 493.844Z" fill="#1DB776" fill-opacity="0.56"/>
<path d="M712.907 519.222C692.235 523.346 672.595 524.721 655.612 524.721C645.113 524.721 635.634 524.194 627.548 523.473C600.526 521.056 583.153 516.073 582.425 515.864L585.652 504.744V504.74C585.819 504.789 602.898 509.668 628.885 511.965C649.324 513.776 679.038 514.259 711.262 507.739C711.442 509.145 711.638 510.586 711.845 512.054C711.868 512.218 711.891 512.38 711.914 512.543C712.018 513.287 712.134 514.034 712.237 514.795C712.448 516.246 712.676 517.724 712.907 519.222Z" fill="#1DB776" fill-opacity="0.56"/>
<path d="M717.219 544.35C695.529 548.992 674.801 550.535 656.841 550.535C645.09 550.535 634.523 549.875 625.64 548.992C598.637 546.303 581.31 541.149 580.585 540.928L583.925 529.843C584.092 529.89 601.125 534.941 627.093 537.499C648.707 539.629 680.715 540.379 715.173 532.946C715.82 536.67 716.502 540.48 717.219 544.35Z" fill="#1DB776" fill-opacity="0.56"/>
<path d="M722.098 569.328C699.182 574.629 677.163 576.384 658.062 576.384C645.048 576.384 633.393 575.57 623.734 574.509C596.754 571.55 579.47 566.221 578.75 565.996L580.476 560.467L582.198 554.941L582.201 554.944C582.47 555.024 599.436 560.22 625.303 563.033C648.224 565.523 682.87 566.576 719.823 557.965C720.561 561.738 721.325 565.532 722.098 569.328Z" fill="#1DB776" fill-opacity="0.56"/>
<path d="M633.864 608.388C634.973 560.646 626.799 505.095 626.867 457.34C626.93 414.521 630.058 372.011 630.024 329.193C619.809 329.961 615.422 331.705 615.422 331.705C615.422 331.705 605.654 340.039 573.87 350.397C543.899 360.163 549.469 470.862 551.291 532.82C553.111 594.781 552.389 634.063 611.308 641.593C616.842 642.3 622.278 642.924 627.601 643.447C627.691 629.278 633.535 622.591 633.864 608.388Z" fill="#FB4C47"/>
<path d="M569.945 482.503C569.312 482.503 568.742 482.06 568.605 481.413C568.445 480.674 568.918 479.943 569.66 479.784C570.411 479.622 588.097 475.596 594.194 454.42C594.401 453.69 595.164 453.272 595.894 453.479C596.623 453.688 597.045 454.451 596.834 455.179C590.269 477.99 571.047 482.3 570.231 482.473C570.136 482.494 570.039 482.503 569.945 482.503Z" fill="#B63A37"/>
<path d="M621.381 598.983C620.811 598.983 620.332 598.538 620.299 597.96C615.556 512.47 611.783 428.903 617.633 346.42C617.677 345.822 618.198 345.375 618.791 345.415C619.39 345.457 619.839 345.976 619.797 346.574C613.953 428.929 617.724 512.422 622.465 597.838C622.498 598.437 622.039 598.949 621.442 598.981C621.421 598.983 621.402 598.983 621.381 598.983Z" fill="#B63A37"/>
<path d="M736.133 393.757C737.553 349.651 716.31 338.01 673.916 331.652C673.75 331.628 673.589 331.603 673.423 331.58C672.742 338.866 672.991 346.266 673.467 353.541C674.228 365.174 675.578 376.741 676.046 388.394C678.005 437.021 682.763 470.048 678.857 533.87C675.918 581.839 683.587 607.015 684.929 643.364C708.995 639.687 727.936 629.893 739.6 610.016C761.481 572.727 734.714 437.863 736.133 393.757Z" fill="#FB4C47"/>
<path d="M731.154 481.016C731.051 481.016 730.95 481.006 730.846 480.981C730.562 480.917 702.375 474 697.611 433.005C697.523 432.252 698.063 431.569 698.819 431.484C699.577 431.391 700.254 431.937 700.34 432.69C704.884 471.776 731.194 478.243 731.46 478.302C732.2 478.471 732.662 479.209 732.493 479.949C732.348 480.584 731.781 481.016 731.154 481.016Z" fill="#B63A37"/>
<path d="M688.163 591.14C687.642 591.14 687.182 590.764 687.095 590.231C685.107 578.162 685.87 545.781 686.61 514.469C687.171 490.648 687.701 468.149 687.081 454.595C684.987 408.707 678.717 344.619 678.654 343.978C678.595 343.382 679.031 342.852 679.626 342.793C680.217 342.736 680.754 343.169 680.811 343.765C680.874 344.408 687.15 408.549 689.247 454.494C689.869 468.125 689.339 490.66 688.776 514.52C688.04 545.733 687.279 578.01 689.234 589.879C689.331 590.469 688.932 591.028 688.34 591.125C688.281 591.134 688.222 591.14 688.163 591.14Z" fill="#B63A37"/>
<path d="M649.62 230.496L628.774 238.068C628.774 238.068 622.52 246.691 614.322 244.912C611.033 244.197 607.433 241.811 603.795 236.529C591.087 218.066 621.739 192.486 640.162 196.784C649.198 198.892 651.647 207.047 651.794 214.808C651.948 222.866 649.62 230.496 649.62 230.496Z" fill="#002014"/>
<path d="M649.619 230.496L628.773 238.068C628.773 238.068 622.52 246.691 614.321 244.912C614.321 235.35 627.735 217.866 651.793 214.808C651.947 222.866 649.619 230.496 649.619 230.496Z" fill="#FFD339"/>
<path d="M649.273 193.613C648.896 193.613 648.487 193.657 648.044 193.744C646.964 193.961 646.264 194.486 645.844 195.397C643.97 199.452 647.921 209.109 650.743 214.815C652.487 208.485 654.577 197.905 651.623 194.571C651.055 193.93 650.281 193.613 649.273 193.613ZM651.072 219.577C650.602 219.577 650.163 219.324 649.931 218.906C648.932 217.116 640.275 201.222 643.47 194.301C644.239 192.637 645.644 191.557 647.533 191.18C650.751 190.539 652.599 191.728 653.58 192.837C658.712 198.63 652.985 216.644 652.316 218.679C652.152 219.172 651.715 219.522 651.197 219.571C651.156 219.575 651.114 219.577 651.072 219.577Z" fill="#FFD339"/>
<path d="M666.9 200.044C666.776 200.044 666.651 200.052 666.525 200.071C662.107 200.659 656.769 210.029 653.946 215.957C659.813 213.487 669.119 208.768 670.355 204.478C670.633 203.512 670.447 202.658 669.772 201.787C668.862 200.617 667.921 200.044 666.9 200.044ZM651.438 219.66C651.086 219.66 650.742 219.519 650.492 219.257C650.133 218.88 650.03 218.329 650.23 217.85C651.055 215.874 658.507 198.502 666.179 197.479C667.649 197.283 669.823 197.591 671.835 200.181C673.018 201.703 673.376 203.439 672.868 205.2C670.757 212.524 653.809 218.88 651.885 219.582C651.738 219.635 651.588 219.66 651.438 219.66Z" fill="#FFD339"/>
<path d="M612.745 247.627C608.192 246.946 603.072 244.519 599.858 237.815C592.268 221.99 610.421 208.635 610.606 208.502C610.976 208.234 611.494 208.32 611.762 208.688C612.03 209.059 611.946 209.579 611.575 209.847C611.402 209.972 594.364 222.526 601.351 237.098C607.587 250.099 621.317 245.525 621.897 245.322C622.332 245.174 622.802 245.404 622.952 245.835C623.101 246.267 622.872 246.739 622.439 246.889C622.357 246.918 617.916 248.399 612.745 247.627Z" fill="#002014"/>
<path d="M673.143 249.583C673.143 249.583 681.279 283.746 669.978 305.858C658.679 327.971 647.325 333.994 663.552 340.864C679.778 347.731 698.24 334.649 710.628 341.453C725.584 349.667 708.814 280.725 701.34 251.549C693.688 221.696 657.356 218.354 657.356 218.354L673.143 249.583Z" fill="#002014"/>
<path d="M694.649 274.13C694.649 274.13 709.187 240.834 681.93 225.161C654.67 209.488 627.137 221.325 619.802 239.37C612.466 257.415 623.699 269.284 623.699 269.284L694.649 274.13Z" fill="#002014"/>
<path d="M647.932 344.433C655.8 346.618 658.948 343.13 661.363 340.536L662.989 326.43L663.94 318.202L664.138 316.991L660.52 316.59L633.83 308.891L630.22 325.838L628.505 333.874C631.936 337.112 636.494 341.257 647.932 344.433Z" fill="#FBB990"/>
<path d="M662.987 326.429C654.716 330.159 638.404 328.464 630.218 325.838C630.19 325.834 630.169 325.824 630.14 325.815L633.828 308.89L660.518 316.589L664.136 316.99L663.938 318.202L662.987 326.429Z" fill="#181818"/>
<path d="M684.78 274.335C684.78 274.335 700.628 269.729 697.519 283.731C694.094 299.147 681.477 294.771 679.305 293.772L684.78 274.335Z" fill="#FB9476"/>
<path d="M673.394 299.942C672.517 305.807 676.575 311.292 682.441 312.169C688.308 313.045 693.793 308.987 694.669 303.12C695.417 298.116 692.566 293.399 688.076 291.574C688.068 291.583 688.061 291.595 688.053 291.612C687.298 291.809 687.14 292.391 687.07 293.025C691.052 294.442 693.614 298.531 692.967 302.867C692.231 307.791 687.625 311.203 682.695 310.467C677.772 309.731 674.36 305.12 675.096 300.197C675.427 297.971 676.549 296.058 678.133 294.698C678.544 294.348 678.985 294.033 679.451 293.759C679.036 293.384 678.643 292.949 678.295 292.45C677.867 292.717 677.448 293.019 677.064 293.35C675.151 294.972 673.791 297.27 673.394 299.942Z" fill="white"/>
<path d="M686.552 289.196C686.522 289.192 686.491 289.184 686.461 289.177C686.003 289.057 685.725 288.587 685.845 288.127C687.608 281.331 692.612 278.977 692.823 278.88C693.254 278.684 693.766 278.872 693.964 279.306C694.16 279.738 693.971 280.247 693.542 280.445C693.353 280.533 689.059 282.592 687.511 288.56C687.399 288.99 686.982 289.26 686.552 289.196Z" fill="#FA7764"/>
<path d="M692.223 286.335C691.98 286.299 691.753 286.16 691.616 285.934C691.592 285.896 690.532 284.215 689.017 284.196C688.543 284.194 688.161 283.802 688.165 283.327C688.172 282.851 688.56 282.471 689.036 282.477C691.506 282.501 693.022 284.934 693.085 285.036C693.332 285.443 693.203 285.972 692.797 286.219C692.619 286.328 692.415 286.364 692.223 286.335Z" fill="#FA7764"/>
<path d="M693.471 272.415C692.486 277.984 690.968 283.394 689.079 288.468C688.229 290.768 687.293 292.995 686.303 295.136C679.319 310.229 669.281 321.104 661.263 322.046C648.568 323.539 634.158 317.337 627.092 300.781C625.938 298.077 624.728 294.809 624.15 290.96C624.072 290.425 623.996 289.878 623.931 289.319C621.86 272.118 626.223 247.598 626.223 247.598C636.628 232.063 658.998 236.204 671.974 238.34C684.96 240.479 697.991 246.932 693.471 272.415Z" fill="#FFC29C"/>
<path d="M657.751 313.156C654.995 312.746 653.367 311.496 653.297 311.443C652.922 311.15 652.854 310.61 653.147 310.235C653.438 309.861 653.976 309.792 654.351 310.083C654.379 310.104 655.838 311.192 658.27 311.49C660.75 311.793 662.413 311.22 662.428 311.215C662.875 311.057 663.367 311.291 663.527 311.736C663.687 312.181 663.457 312.673 663.012 312.833C662.93 312.864 660.975 313.554 658.063 313.198C657.957 313.187 657.854 313.172 657.751 313.156Z" fill="#FB9476"/>
<path d="M609.432 478.241C608.88 478.241 608.367 477.889 608.188 477.336C606.319 471.579 605.029 465.084 604.974 464.81C604.835 464.101 605.295 463.414 606.005 463.273C606.71 463.135 607.401 463.595 607.54 464.304C607.553 464.371 608.856 470.923 610.676 476.529C610.898 477.216 610.522 477.954 609.835 478.176C609.702 478.22 609.565 478.241 609.432 478.241Z" fill="#108A57"/>
<path d="M616.413 475.898C615.868 475.898 615.36 475.556 615.175 475.01C613.23 469.28 611.855 462.806 611.798 462.534C611.647 461.826 612.1 461.132 612.807 460.984C613.513 460.834 614.205 461.286 614.356 461.992C614.369 462.058 615.757 468.589 617.651 474.169C617.884 474.854 617.516 475.596 616.834 475.828C616.693 475.875 616.552 475.898 616.413 475.898Z" fill="#108A57"/>
<path d="M623.4 473.555C622.862 473.555 622.358 473.22 622.167 472.684C620.148 466.98 618.687 460.527 618.626 460.255C618.468 459.552 618.91 458.852 619.615 458.694C620.317 458.536 621.019 458.977 621.177 459.683C621.192 459.748 622.666 466.258 624.632 471.811C624.874 472.492 624.516 473.237 623.837 473.479C623.693 473.53 623.544 473.555 623.4 473.555Z" fill="#108A57"/>
<path d="M630.379 471.213C629.846 471.213 629.348 470.886 629.152 470.357C627.056 464.682 625.512 458.25 625.447 457.978C625.278 457.276 625.711 456.571 626.415 456.403C627.117 456.236 627.821 456.669 627.99 457.371C628.005 457.436 629.565 463.925 631.605 469.452C631.854 470.129 631.508 470.882 630.831 471.131C630.683 471.186 630.529 471.213 630.379 471.213Z" fill="#108A57"/>
<path d="M637.364 468.87C636.839 468.87 636.342 468.551 636.143 468.031C633.973 462.383 632.341 455.972 632.274 455.702C632.096 455.002 632.52 454.291 633.22 454.114C633.919 453.937 634.631 454.361 634.808 455.061C634.825 455.124 636.47 461.594 638.583 467.094C638.841 467.767 638.507 468.524 637.831 468.783C637.677 468.842 637.52 468.87 637.364 468.87Z" fill="#108A57"/>
<path d="M644.343 466.528C643.824 466.528 643.333 466.216 643.13 465.705C640.884 460.085 639.168 453.692 639.096 453.422C638.91 452.726 639.324 452.009 640.022 451.823C640.72 451.637 641.435 452.051 641.622 452.749C641.639 452.814 643.371 459.263 645.556 464.735C645.825 465.406 645.498 466.167 644.828 466.435C644.668 466.498 644.505 466.528 644.343 466.528Z" fill="#108A57"/>
<path d="M651.325 464.185C650.812 464.185 650.327 463.881 650.118 463.379C647.797 457.785 645.996 451.414 645.92 451.146C645.724 450.452 646.129 449.729 646.826 449.533C647.52 449.337 648.242 449.742 648.436 450.438C648.455 450.503 650.272 456.931 652.533 462.376C652.809 463.042 652.493 463.808 651.826 464.084C651.662 464.153 651.493 464.185 651.325 464.185Z" fill="#108A57"/>
<path d="M688.946 324.811C688.679 328.221 688.046 331.625 686.884 334.807C686.589 335.621 686.256 336.418 685.884 337.198V337.201C684.01 341.165 681.176 344.657 677.011 347.211C677.011 347.211 656.702 355.843 632.776 345.248H632.773C631.415 344.645 630.043 343.978 628.661 343.245C627.453 342.606 626.243 341.916 625.03 341.172C614.638 334.807 610.519 326.228 609.393 318.057C609.292 317.329 609.214 316.608 609.159 315.883C608.718 310.123 609.648 304.695 610.761 300.558C610.837 300.285 610.911 300.014 610.985 299.754C612.189 295.539 613.507 292.858 613.507 292.858C613.507 292.858 618.885 290.52 625.941 289.448C628.625 289.041 631.552 288.816 634.518 288.974C637.887 289.149 641.308 289.819 644.484 291.268C667.169 301.618 678.658 306.239 685.241 297.356C685.241 297.356 686.384 300.661 687.426 305.64C687.574 306.348 687.717 307.084 687.86 307.852C688.244 309.963 688.588 312.293 688.814 314.748C689.113 317.964 689.216 321.386 688.946 324.811Z" fill="#0CAD69"/>
<path d="M687.861 307.852C687.558 308.32 687.218 308.793 686.845 309.265C683.971 312.895 678.388 317.076 667.906 317.076C667.264 317.076 666.606 317.06 665.927 317.026C655.763 316.541 647.84 312.346 640.176 308.289C631.028 303.449 622.384 298.873 610.916 301.288L610.762 300.558L610.609 299.828C610.737 299.803 610.864 299.776 610.988 299.754C622.791 297.401 631.579 302.051 640.874 306.971C648.394 310.948 656.17 315.065 665.997 315.531C674.903 315.961 681.507 313.557 685.63 308.394C686.37 307.468 686.959 306.53 687.427 305.64C687.577 306.345 687.718 307.083 687.861 307.852Z" fill="#108E59"/>
<path d="M686.881 334.806C686.586 335.62 686.253 336.417 685.881 337.197V337.201C682.081 339.382 677.528 340.877 672.262 341.668C669.268 342.121 666.044 342.344 662.604 342.344C658.125 342.344 653.281 341.963 648.112 341.202C632.602 338.909 619.343 333.903 619.208 333.85L619.742 332.454C619.873 332.505 633.002 337.461 648.355 339.727C660.569 341.522 676.396 341.9 686.881 334.806Z" fill="#108E59"/>
<path d="M651.022 454.476L605.036 469.493C605.036 469.493 604.427 466.813 603.486 462.257C603.276 461.241 603.048 460.128 602.81 458.932C602.16 455.697 601.413 451.838 600.623 447.533C600.425 446.441 600.226 445.324 600.024 444.178C599.385 440.576 598.731 436.722 598.096 432.694C597.921 431.578 597.744 430.45 597.573 429.307C597.002 425.541 596.449 421.658 595.945 417.715C595.798 416.572 595.654 415.425 595.515 414.273C595.043 410.372 594.625 406.439 594.279 402.539C594.17 401.371 594.073 400.205 593.984 399.043C593.666 394.979 593.434 390.972 593.318 387.097C593.284 385.905 593.257 384.726 593.244 383.56C593.191 379.22 593.299 375.082 593.609 371.261C593.71 370.007 593.834 368.794 593.98 367.619C594.081 366.767 594.201 365.934 594.326 365.123C594.927 361.339 595.76 357.906 596.766 354.791C597.185 353.482 597.637 352.233 598.115 351.036C606.627 329.656 623.347 325.441 623.347 325.441C635.729 326.67 641.173 339.901 641.173 339.901C638.577 342.375 636.701 345.774 635.416 349.852C635.083 350.909 634.788 352.012 634.535 353.155C633.847 356.217 633.428 359.58 633.234 363.157C633.171 364.268 633.133 365.399 633.114 366.546C633.059 369.89 633.175 373.385 633.432 376.978C633.51 378.1 633.603 379.228 633.708 380.363C634.029 383.822 634.467 387.352 634.993 390.895C635.163 392.025 635.338 393.149 635.52 394.277C636.095 397.803 636.749 401.333 637.458 404.815C637.683 405.935 637.919 407.048 638.154 408.159C638.919 411.74 639.733 415.254 640.566 418.647C640.836 419.752 641.108 420.842 641.386 421.918C642.306 425.56 643.246 429.035 644.149 432.263C644.459 433.371 644.769 434.455 645.071 435.503C646.188 439.374 647.234 442.806 648.128 445.653C648.497 446.827 648.837 447.898 649.147 448.862C650.301 452.426 651.022 454.476 651.022 454.476Z" fill="#0CAD69"/>
<path d="M635.411 349.852C635.079 350.91 634.784 352.011 634.531 353.154C626.391 352.15 611.606 351.216 596.762 354.791C597.18 353.483 597.633 352.231 598.11 351.037C605.488 349.441 612.574 348.911 618.422 348.852C625.326 348.778 631.265 349.314 635.411 349.852Z" fill="#108E59"/>
<path d="M633.231 363.158C633.168 364.267 633.13 365.398 633.111 366.545C623.396 366.129 608.138 366.52 593.606 371.26C593.707 370.008 593.83 368.795 593.977 367.618C603.609 364.657 613.214 363.531 620.755 363.177C625.454 362.956 629.701 363.004 633.231 363.158Z" fill="#108E59"/>
<path d="M633.704 380.363C623.335 380.538 607.765 381.835 593.314 387.099C593.28 385.907 593.253 384.726 593.238 383.56C603.877 379.832 614.75 378.197 623.084 377.502C626.876 377.185 630.372 377.035 633.426 376.979C633.506 378.1 633.599 379.227 633.704 380.363Z" fill="#108E59"/>
<path d="M635.521 394.277C624.811 394.998 608.868 397.014 594.277 402.539C594.171 401.369 594.074 400.205 593.984 399.043C608.659 393.608 624.304 391.615 634.994 390.896C635.163 392.024 635.338 393.15 635.521 394.277Z" fill="#108E59"/>
<path d="M638.15 408.158C627.268 409.39 610.842 412.053 595.941 417.716C595.794 416.573 595.65 415.426 595.511 414.272C610.482 408.673 626.596 406.039 637.454 404.814C637.679 405.936 637.914 407.049 638.15 408.158Z" fill="#108E59"/>
<path d="M641.384 421.919C630.473 423.64 613.457 426.972 598.094 432.695C597.919 431.578 597.744 430.451 597.571 429.308C612.882 423.686 629.643 420.382 640.566 418.646C640.834 419.753 641.106 420.843 641.384 421.919Z" fill="#108E59"/>
<path d="M645.076 435.504C634.285 437.701 616.586 441.765 600.628 447.531C600.43 446.442 600.229 445.325 600.027 444.179C615.915 438.488 633.355 434.47 644.154 432.262C644.464 433.37 644.774 434.454 645.076 435.504Z" fill="#108E59"/>
<path d="M649.145 448.862C638.695 451.492 620.197 456.423 603.486 462.256C603.275 461.241 603.048 460.128 602.809 458.932C619.423 453.158 637.668 448.291 648.126 445.653C648.497 446.827 648.835 447.897 649.145 448.862Z" fill="#108E59"/>
<path d="M632.776 345.248H632.772C632.432 345.229 632.082 345.189 631.719 345.121C630.614 344.912 629.598 344.255 628.659 343.246C620.753 334.718 618.716 301.063 618.716 301.063C618.716 301.063 621.679 293.738 625.941 289.45C628.622 289.043 631.551 288.818 634.518 288.976C635.132 295.296 637.259 315.444 639.731 320.988C642.574 327.356 642.211 345.752 632.776 345.248Z" fill="#128E5A"/>
<path d="M688.947 324.811C677.393 333.776 652.178 328.614 629.155 321.831C621.288 319.512 614.735 318.43 609.392 318.059C609.295 317.331 609.216 316.608 609.16 315.885C619.168 316.511 632.576 319.324 649.185 323.097C673.818 328.691 685.038 319.25 688.817 314.75C689.116 317.966 689.217 321.389 688.947 324.811Z" fill="#108E59"/>
<path d="M672.252 279.204C671.871 281.635 672.659 283.778 674.013 283.991C675.373 284.206 676.784 282.405 677.164 279.973C677.314 279.014 677.282 278.105 677.107 277.337C679.522 277.82 680.559 276.431 680.559 276.431C678.956 276.407 676.911 275.741 675.947 275.395C675.607 275.267 675.397 275.186 675.397 275.186C674.043 274.971 672.634 276.768 672.252 279.204Z" fill="#181818"/>
<path d="M675.399 275.185C675.399 275.185 675.607 275.267 675.95 275.394C675.78 275.288 675.597 275.215 675.399 275.185Z" fill="#181818"/>
<path d="M689.083 288.468C688.231 290.768 687.297 292.995 686.306 295.136C685.215 295.146 684.043 295.07 682.836 294.898C677.44 294.136 673.315 291.774 673.621 289.625C673.927 287.477 678.549 286.357 683.939 287.118C685.861 287.39 687.624 287.865 689.083 288.468Z" fill="#FD9B7E"/>
<path d="M649.481 285.408C649.173 287.58 644.506 288.711 639.055 287.939C633.605 287.165 629.436 284.78 629.746 282.608C630.052 280.438 634.721 279.305 640.17 280.077C645.621 280.851 649.789 283.236 649.481 285.408Z" fill="#FD9B7E"/>
<path d="M626.981 271.677C627.275 269.621 626.401 267.582 624.723 266.361C620.564 263.335 614.993 261.622 612.234 267.122C607.11 277.331 616.42 291.013 624.472 289.21L626.981 271.677Z" fill="#FBB990"/>
<path d="M628.669 288.54C628.513 288.684 628.359 288.823 628.201 288.951C627.739 289.333 627.267 289.658 626.786 289.928C625.904 290.428 625.01 290.754 624.154 290.961C624.072 290.423 623.998 289.877 623.937 289.318C624.55 289.171 625.179 288.958 625.801 288.644C626.305 288.407 626.809 288.104 627.288 287.73C627.478 287.579 627.672 287.416 627.853 287.247C628.154 286.954 628.583 287.018 628.808 287.384C629.032 287.741 628.977 288.266 628.669 288.54Z" fill="#FB9476"/>
<path d="M620.876 282.113C620.453 282.05 620.132 281.679 620.143 281.242C620.311 274.35 615.938 270.669 615.895 270.633C615.529 270.331 615.474 269.791 615.775 269.424C616.075 269.055 616.615 269 616.984 269.3C617.19 269.469 622.053 273.517 621.865 281.282C621.853 281.757 621.458 282.134 620.984 282.121C620.946 282.121 620.912 282.117 620.876 282.113Z" fill="#FB9476"/>
<path d="M615.381 277.285C615.183 277.254 614.997 277.157 614.858 276.996C614.548 276.636 614.586 276.096 614.945 275.784C615.046 275.697 617.463 273.637 620.177 274.356C620.636 274.478 620.91 274.949 620.788 275.41C620.664 275.868 620.191 276.138 619.734 276.02C617.909 275.537 616.088 277.072 616.069 277.087C615.872 277.256 615.619 277.321 615.381 277.285Z" fill="#FB9476"/>
<path d="M665.963 288.407H665.968H665.963ZM661.644 292.751C661.296 292.7 660.988 292.437 660.917 292.032C660.851 291.652 661.073 291.279 661.423 291.112C663.54 290.108 665.58 288.816 665.936 288.27C665.643 286.701 664.481 280.467 664.057 278.185C663.97 277.717 664.278 277.272 664.746 277.185C665.212 277.097 665.66 277.403 665.748 277.869C666.187 280.228 667.41 286.791 667.653 288.09C667.739 288.539 667.994 289.902 662.138 292.677C661.978 292.753 661.805 292.776 661.644 292.751Z" fill="#FB9476"/>
<path d="M650.718 275.988C650.37 278.424 648.991 280.242 647.633 280.052C646.271 279.86 645.448 277.724 645.794 275.286C645.931 274.327 646.228 273.466 646.619 272.783C644.168 272.539 643.582 270.908 643.582 270.908C645.123 271.353 647.274 271.315 648.297 271.265C648.66 271.242 648.882 271.223 648.882 271.223C650.24 271.415 651.066 273.546 650.718 275.988Z" fill="#181818"/>
<path d="M648.888 271.224C648.888 271.224 648.665 271.243 648.301 271.264C648.494 271.212 648.69 271.193 648.888 271.224Z" fill="#181818"/>
<path d="M684.681 275.315C684.188 274.298 683.542 273.284 682.844 272.371C682.14 271.452 681.349 270.618 680.503 269.883C679.662 269.138 678.738 268.527 677.781 268.039C676.838 267.517 675.807 267.232 674.812 266.975L674.71 266.951C673.627 266.673 672.977 265.57 673.255 264.49C673.53 263.408 674.633 262.755 675.714 263.033C675.839 263.065 675.967 263.113 676.079 263.166C677.336 263.763 678.555 264.419 679.595 265.294C680.649 266.139 681.59 267.091 682.378 268.136C683.175 269.17 683.852 270.268 684.411 271.411C684.968 272.561 685.419 273.716 685.738 274.973C685.814 275.271 685.636 275.574 685.337 275.65C685.077 275.716 684.812 275.587 684.7 275.353L684.681 275.315Z" fill="#111111"/>
<path d="M638.33 267.936C639.195 266.751 640.158 265.723 641.228 264.749C642.297 263.783 643.471 262.914 644.741 262.162C646.002 261.398 647.387 260.795 648.84 260.354C650.293 259.871 651.837 259.694 653.394 259.593C654.507 259.521 655.467 260.365 655.54 261.478C655.61 262.59 654.768 263.551 653.655 263.623C653.545 263.631 653.434 263.627 653.328 263.617L653.199 263.604C652.008 263.48 650.774 263.379 649.541 263.568C648.307 263.712 647.061 264.003 645.857 264.471C644.65 264.924 643.467 265.506 642.341 266.209C641.226 266.911 640.131 267.738 639.193 268.638L639.163 268.667C638.942 268.88 638.59 268.87 638.377 268.649C638.187 268.452 638.174 268.149 638.33 267.936Z" fill="#111111"/>
<path d="M637.353 245.665C637.353 245.665 653.31 267.443 690.59 266.378C710.647 265.806 693.228 234.486 663.331 232.725C633.432 230.966 637.353 245.665 637.353 245.665Z" fill="#002014"/>
<path d="M690.686 262.97C690.686 262.97 692.926 279.579 689.082 288.468C689.082 288.468 696.29 273.601 694.042 264.204C691.794 254.807 690.686 262.97 690.686 262.97Z" fill="#181818"/>
<path d="M647.349 245.731C647.349 245.731 629.58 276.021 633.928 300.474C638.272 324.924 644.618 344.389 627.093 346.215C609.748 348.024 598.244 341.211 582.713 347.352H582.709C582.548 347.419 582.388 347.482 582.222 347.55C581.816 347.717 581.45 347.818 581.114 347.864C578.425 348.21 577.909 344.699 578.917 338.708C579.277 336.59 579.822 334.167 580.528 331.491C583.799 319.1 590.528 301.373 597.837 284.336C603.578 270.957 609.678 258.001 614.746 248.393C616.593 244.894 618.304 241.843 619.809 239.369C635.849 213.057 671.573 220.476 671.573 220.476L647.349 245.731Z" fill="#002014"/>
<path d="M615.812 249.545C615.648 249.843 606.599 266.484 597.834 284.335C590.681 298.899 583.718 314.274 581.913 322.243C581.137 325.676 580.71 328.757 580.523 331.491C579.934 340.236 581.824 345.445 582.705 347.351C582.545 347.418 582.383 347.482 582.22 347.549C581.813 347.718 581.446 347.819 581.109 347.863C580.411 346.32 579.329 343.298 578.914 338.707C578.526 334.464 578.713 328.876 580.295 321.876C584.359 303.917 613.134 250.994 614.355 248.75C614.445 248.584 614.583 248.466 614.743 248.394C614.971 248.289 615.243 248.289 615.479 248.421C615.882 248.637 616.033 249.141 615.812 249.545Z" fill="#002014"/>
<g opacity="0.399994">
<g opacity="0.399994">
<g opacity="0.399994">
<g opacity="0.399994">
<g opacity="0.399994">
<g opacity="0.399994">
<path opacity="0.399994" d="M668.438 266.424C668.438 266.424 649.081 260.545 643.568 281.827C638.053 303.107 657.134 312.662 669.237 310.323C681.343 307.981 689.306 270.034 668.438 266.424Z" fill="#FFC29C"/>
</g>
</g>
</g>
</g>
</g>
</g>
<path d="M649.132 264.164C641.892 264.164 636.004 270.054 636.004 277.294C636.004 284.533 641.892 290.423 649.132 290.423C656.373 290.423 662.261 284.533 662.261 277.294C662.261 270.054 656.373 264.164 649.132 264.164ZM649.132 292.229C640.896 292.229 634.195 285.529 634.195 277.294C634.195 269.057 640.896 262.357 649.132 262.357C657.369 262.357 664.07 269.057 664.07 277.294C664.07 285.529 657.369 292.229 649.132 292.229Z" fill="white"/>
<path d="M682.223 270.874C674.982 270.874 669.094 276.764 669.094 284.003C669.094 291.243 674.982 297.133 682.223 297.133C689.463 297.133 695.351 291.243 695.351 284.003C695.351 276.764 689.463 270.874 682.223 270.874ZM682.223 298.94C673.986 298.94 667.285 292.24 667.285 284.003C667.285 275.768 673.986 269.068 682.223 269.068C690.459 269.068 697.16 275.768 697.16 284.003C697.16 292.24 690.459 298.94 682.223 298.94Z" fill="white"/>
<path d="M668.137 280.125C666.545 277.671 663.613 278.71 663.487 278.755L662.867 277.059C664.387 276.503 667.759 276.224 669.653 279.139L668.137 280.125Z" fill="white"/>
<path d="M691.89 623.195C687.711 626.194 682.017 635.155 672.127 638.301C615.949 656.176 563.522 621.483 563.522 621.483C560.409 606.097 562.336 588.615 567.518 582.215C565.888 579.943 566.967 577.225 566.967 577.225L542.227 531.362C542.826 531.738 581.035 555.892 609.347 573.003H609.359C617.518 577.931 624.853 582.274 630.228 585.293C638.431 589.897 648.9 590.348 659.159 588.935C679.153 586.171 698.335 576.32 698.335 576.32C698.335 576.32 746.176 548.11 758.251 549.083C767.638 549.836 733.669 601.601 691.89 623.195Z" fill="#108E59"/>
<path d="M586.079 669.599C586.079 669.599 583.055 670.165 578.14 671.173C576.741 671.46 575.189 671.778 573.513 672.134C571.288 672.603 568.842 673.128 566.233 673.708C564.746 674.037 563.205 674.384 561.621 674.743C541.925 679.229 515.845 686.053 505.343 692.725C504.607 693.193 503.892 693.657 503.206 694.123C487.203 704.882 483.93 714.172 480.962 712.287C477.863 710.325 477.169 702.268 482.224 696.972C485.724 693.301 488.173 687.948 492.873 682.16C494.143 680.595 495.577 678.997 497.241 677.392C504.592 670.31 516.355 662.99 522.924 657.362C523.348 657.001 523.749 656.643 524.128 656.295C529.535 651.308 531.644 641.046 541.511 637.927C546.332 636.406 552.11 636.999 557.684 638.469C558.675 638.73 559.66 639.021 560.628 639.329C562.079 639.793 563.498 640.302 564.865 640.829C566.754 641.569 568.545 642.347 570.179 643.11C571.744 643.84 573.171 644.555 574.399 645.198C577.364 646.752 579.198 647.906 579.198 647.906L586.079 669.599Z" fill="white"/>
<path d="M557.678 638.469C551.847 646.101 538.418 660.69 522.918 657.364C523.342 657.001 523.744 656.645 524.122 656.295C529.529 651.308 531.64 641.046 541.505 637.927C546.326 636.405 552.104 637.001 557.678 638.469Z" fill="#80D7B2"/>
<path d="M503.205 694.122C487.202 704.881 483.929 714.171 480.962 712.288C477.862 710.326 477.17 702.268 482.223 696.971C485.725 693.3 488.174 687.949 492.872 682.161C496.831 684.97 501.042 688.953 503.205 694.122Z" fill="#80D7B2"/>
<path d="M578.135 671.173C576.736 671.459 575.186 671.778 573.508 672.134C570.595 666.812 569.132 660.323 569.222 652.921C569.267 649.18 569.697 645.782 570.174 643.11C571.741 643.84 573.166 644.555 574.395 645.198C574.047 647.448 573.767 650.126 573.735 653.011C573.668 658.844 574.628 665.523 578.135 671.173Z" fill="#80D7B2"/>
<path d="M564.862 640.829C563.494 640.302 562.075 639.793 560.624 639.329C559.683 642.062 558.334 646.666 557.726 652.08C556.739 660.856 558.078 668.562 561.617 674.743C563.201 674.383 564.742 674.037 566.229 673.708C558.743 662.242 562.861 646.704 564.862 640.829Z" fill="#80D7B2"/>
<path d="M822.232 586.337C801.142 612.094 753.723 638.44 703.009 653.727C685.4 659.035 670.282 663.02 657.38 666.005C647.22 668.362 638.43 670.093 630.885 671.357C601.756 676.243 591.051 674.208 591.051 674.208C591.051 674.208 573.076 668.428 580.783 639.231C580.783 639.231 614.856 631.399 641.258 618.349C646.64 615.69 651.706 612.811 656.098 609.735C657.127 609.015 658.15 608.282 659.162 607.539C683.699 589.564 704.68 565.15 759.977 543.081C759.977 543.081 788.898 525.518 812.146 533.393C815.613 534.565 818.896 536.258 821.863 538.593C838.709 551.849 836.471 568.96 822.232 586.337Z" fill="#0CAD69"/>
<path d="M718.943 645.837L707.951 647.347L641.266 618.349C646.648 615.689 651.713 612.811 656.106 609.736C657.133 609.015 658.158 608.283 659.17 607.539L718.943 645.837Z" fill="#108E59"/>
<path d="M657.386 666.005C647.226 668.361 638.436 670.092 630.891 671.356C609.67 665.594 584.262 654.841 584.262 654.841L585.916 641.661L657.386 666.005Z" fill="#108E59"/>
<path d="M822.23 586.339C804.825 562.944 808.282 543.355 812.145 533.393C815.614 534.567 818.895 536.257 821.863 538.593C838.708 551.849 836.47 568.96 822.23 586.339Z" fill="#108E59"/>
<path d="M583.681 647.939C601.416 644.466 637.887 629.58 681.244 608.118C713.67 592.066 751.161 571.382 756.852 563.898C759.925 559.857 760.8 556.479 759.452 553.862C757.434 549.946 751.173 549.284 748.311 549.191C747.573 549.166 746.968 549.766 746.991 550.505C747.012 551.175 747.542 551.715 748.214 551.738C751.026 551.839 755.903 552.529 757.188 555.03C758.257 557.109 756.492 560.161 754.822 562.356C750.233 568.392 718.815 586.677 680.114 605.834C646.79 622.331 603.827 641.399 583.192 645.44L583.681 647.939Z" fill="#108E59"/>
<path d="M587.513 635.594C588.831 651.17 592.246 665.424 600.538 676.596C600.538 676.596 592.817 681.674 586.136 677.51C581.033 674.331 571.982 649.704 576.375 636.95C580.85 634.747 584.658 634.074 587.513 635.594Z" fill="#108E59"/>
<path d="M709.633 675.887C709.633 675.887 712.613 676.648 717.451 677.977C718.828 678.354 720.357 678.776 722.006 679.238C724.195 679.853 726.601 680.537 729.167 681.287C730.629 681.713 732.145 682.158 733.701 682.62C753.062 688.386 778.639 696.903 788.681 704.244C789.387 704.761 790.07 705.271 790.726 705.78C805.988 717.562 808.649 727.045 811.732 725.362C814.953 723.606 816.171 715.611 811.475 709.995C808.221 706.104 806.127 700.602 801.817 694.518C800.651 692.875 799.326 691.186 797.77 689.476C790.899 681.926 779.64 673.854 773.453 667.808C773.054 667.42 772.675 667.038 772.322 666.663C767.253 661.334 765.817 650.958 756.177 647.198C751.466 645.364 745.661 645.577 740.003 646.681C738.995 646.876 737.993 647.101 737.008 647.346C735.528 647.715 734.081 648.13 732.681 648.567C730.749 649.181 728.912 649.841 727.231 650.494C725.62 651.121 724.152 651.741 722.883 652.304C719.823 653.658 717.917 654.689 717.917 654.689L709.633 675.887Z" fill="white"/>
<path d="M740.004 646.68C745.323 654.679 757.771 670.113 773.454 667.807C773.054 667.419 772.678 667.037 772.322 666.664C767.254 661.334 765.818 650.957 756.177 647.197C751.466 645.366 745.664 645.579 740.004 646.68Z" fill="#80D7B2"/>
<path d="M790.723 705.78C805.986 717.562 808.646 727.047 811.729 725.362C814.951 723.606 816.168 715.611 811.472 709.995C808.218 706.103 806.126 700.601 801.815 694.517C797.68 697.062 793.218 700.763 790.723 705.78Z" fill="#80D7B2"/>
<path d="M717.453 677.977C718.829 678.353 720.357 678.775 722.007 679.238C725.262 674.12 727.146 667.739 727.542 660.346C727.74 656.611 727.534 653.192 727.232 650.495C725.621 651.121 724.151 651.741 722.882 652.304C723.086 654.571 723.188 657.26 723.033 660.143C722.717 665.966 721.321 672.568 717.453 677.977Z" fill="#80D7B2"/>
<path d="M729.168 681.286C730.63 681.712 732.144 682.157 733.702 682.619C737.637 676.684 739.478 669.082 739.067 660.259C738.812 654.818 737.768 650.136 737.007 647.346C735.53 647.715 734.082 648.129 732.683 648.567C734.295 654.558 737.386 670.332 729.168 681.286Z" fill="#80D7B2"/>
<path d="M715.274 646.338C721.052 675.98 702.741 680.569 702.741 680.569C702.741 680.569 675.455 683.926 592.363 652.81C544.456 634.872 500.284 606.837 479.877 580.549C464.892 561.249 462.722 542.883 481.294 530.146C485.573 527.212 490.369 525.531 495.362 524.747C518.353 521.139 545.513 536.613 545.513 536.613C601.468 563.311 587.462 572.485 634.124 602.209C660.811 619.208 715.274 646.338 715.274 646.338Z" fill="#0CAD69"/>
<path d="M495.361 524.747C496.251 534.77 497.777 568.282 479.876 580.549C464.892 561.249 462.722 542.883 481.295 530.146C485.574 527.212 490.369 525.53 495.361 524.747Z" fill="#108E59"/>
<path d="M711.819 654.839C694.348 650.214 658.928 632.973 617.069 608.721C585.762 590.583 549.705 567.491 544.517 559.651C541.713 555.416 541.061 551.989 542.577 549.467C544.848 545.69 551.139 545.441 554.001 545.534C554.739 545.559 555.302 546.196 555.232 546.93C555.167 547.597 554.6 548.101 553.931 548.082C551.116 547.999 546.208 548.368 544.76 550.781C543.556 552.784 545.12 555.945 546.641 558.246C550.825 564.568 580.983 584.87 618.347 606.519C650.52 625.159 692.144 646.996 712.471 652.376L711.819 654.839Z" fill="#108E59"/>
<path d="M708.798 642.269C706.462 657.727 702.122 671.725 693.117 682.329C693.117 682.329 700.491 687.902 707.429 684.186C712.727 681.348 723.37 657.366 719.823 644.351C715.5 641.86 711.746 640.941 708.798 642.269Z" fill="#108E59"/>
<path d="M792.576 524.201C786.372 532.139 777.814 536.58 771.02 541.122C754.681 552.048 721.53 558.955 724.022 521.318C726.517 483.684 754.988 498.935 734.041 432.834C725.1 404.632 718.942 346.496 718.942 346.496C718.942 346.496 765.739 379.28 793.428 460.135C795.586 466.434 797.218 472.183 798.397 477.438C803.753 501.31 799.723 515.068 792.576 524.201Z" fill="#FB4C47"/>
<path d="M792.573 524.201C782.421 506.074 790.84 488.155 798.394 477.438C803.75 501.31 799.72 515.068 792.573 524.201Z" fill="#B63A37"/>
<path d="M723.913 528.054C723.396 528.054 722.93 527.695 722.819 527.168C722.751 526.846 721.178 519.188 724.301 509.005C727.171 499.657 734.733 486.358 754.464 476.086C755.016 475.799 755.691 476.014 755.976 476.561C756.263 477.111 756.049 477.788 755.501 478.073C736.517 487.957 729.242 500.643 726.482 509.545C723.487 519.197 724.995 526.628 725.01 526.702C725.14 527.307 724.752 527.902 724.147 528.029C724.067 528.046 723.989 528.054 723.913 528.054Z" fill="#B63A37"/>
<path d="M740.916 487.043C740.763 487.059 740.604 487.042 740.45 486.99C739.86 486.792 739.544 486.157 739.744 485.571C743.377 474.758 745.704 470.128 745.801 469.936C746.081 469.385 746.754 469.164 747.308 469.446C747.859 469.725 748.08 470.399 747.8 470.95C747.776 470.996 745.438 475.655 741.868 486.285C741.722 486.716 741.342 487.002 740.916 487.043Z" fill="#B63A37"/>
<path d="M742.182 482.118C741.563 482.118 741.061 481.616 741.061 480.998C741.061 458.969 711.625 409.091 711.326 408.589C711.01 408.056 711.185 407.368 711.718 407.052C712.25 406.736 712.937 406.913 713.254 407.444C714.481 409.513 743.302 458.358 743.302 480.998C743.302 481.616 742.802 482.118 742.182 482.118Z" fill="#B63A37"/>
<path d="M721.345 425.507C721.111 425.507 720.875 425.435 720.673 425.285C716.864 422.438 707.225 419.92 707.128 419.895C706.529 419.741 706.17 419.129 706.326 418.531C706.48 417.93 707.092 417.571 707.689 417.727C708.102 417.833 717.853 420.378 722.016 423.489C722.511 423.86 722.613 424.562 722.242 425.058C722.022 425.351 721.685 425.507 721.345 425.507Z" fill="#B63A37"/>
<path d="M707.625 582.831C707.807 584.82 707.978 586.899 708.222 588.576C708.68 591.747 709.403 593.481 710.98 590.467C711.329 589.788 711.613 588.92 711.845 587.924C713.203 582.108 712.756 571.872 713.383 569.641C714.093 567.106 717.05 559.896 717.309 559.489C717.176 559.79 715.843 564.198 715.689 566.918C715.542 569.468 715.689 572.568 715.689 578.848C715.689 581.587 715.789 584.419 716.135 586.478V586.484C716.58 589.147 717.44 590.503 719.036 588.656C719.821 587.747 720.323 586.151 720.65 584.263C721.51 579.358 721.202 572.431 721.655 570.164C722.263 567.125 724.73 562.215 724.888 561.907C723.952 565.033 723.952 564.725 723.433 568.833C723.066 571.703 722.396 579.339 723.106 582.76C723.406 584.236 723.971 584.932 724.926 584.124C726.415 582.863 727.45 581.014 728.18 578.9C729.001 576.526 729.435 573.812 729.711 571.212C730.232 566.29 732.223 563.257 732.223 563.257C731.118 568.588 730.513 573.744 730.841 576.406C731.067 578.289 731.757 578.924 733.058 577.492C735.595 574.704 738.157 565.486 739.043 562.019C739.074 561.912 739.098 561.806 739.123 561.705C739.155 561.598 739.174 561.505 739.201 561.416C739.319 560.952 739.382 560.687 739.382 560.687L739.387 560.682C740.123 557.793 740.787 554.904 741.761 552.317C743.206 548.474 745.354 545.29 749.486 543.759C758.862 540.273 755.983 522.441 742.841 521.371C739.013 521.059 735.222 522.327 732.217 524.72C730.304 526.243 727.605 528.371 724.874 530.458L724.869 530.463C724.606 530.798 716.059 541.384 713.383 547.977C710.666 554.672 708.361 565.246 707.838 568.28C707.311 571.313 707.105 577.072 707.625 582.831Z" fill="#FAB893"/>
<path d="M501.043 532.997C507.285 541.135 515.897 545.691 522.732 550.348C539.171 561.552 572.527 568.633 570.02 530.038C567.509 491.449 538.865 507.088 559.941 439.307C568.935 410.387 570.02 352.755 570.02 352.755C570.02 352.755 528.048 384.391 500.186 467.302C498.014 473.759 496.372 479.655 495.188 485.045C489.799 509.524 493.854 523.632 501.043 532.997Z" fill="#FB4C47"/>
<path d="M501.302 534.581C511.454 516.453 503.035 498.536 495.483 487.819C490.127 511.691 494.157 525.449 501.302 534.581Z" fill="#B63A37"/>
<path d="M569.961 538.434C570.479 538.434 570.945 538.075 571.055 537.548C571.123 537.226 572.696 529.568 569.571 519.385C566.703 510.038 559.142 496.738 539.408 486.464C538.858 486.179 538.183 486.394 537.896 486.942C537.611 487.489 537.824 488.166 538.373 488.453C557.358 498.336 564.632 511.023 567.394 519.925C570.385 529.575 568.879 537.008 568.864 537.082C568.736 537.687 569.123 538.28 569.727 538.409C569.805 538.426 569.883 538.434 569.961 538.434Z" fill="#B63A37"/>
<path d="M552.963 497.423C553.117 497.438 553.275 497.421 553.431 497.37C554.017 497.172 554.332 496.537 554.136 495.951C550.502 485.137 548.174 480.508 548.077 480.316C547.797 479.764 547.124 479.544 546.571 479.825C546.019 480.105 545.799 480.778 546.078 481.331C546.101 481.375 548.44 486.035 552.012 496.664C552.157 497.096 552.537 497.381 552.963 497.423Z" fill="#B63A37"/>
<path d="M551.694 492.497C552.314 492.497 552.815 491.995 552.815 491.377C552.815 469.348 582.253 419.47 582.55 418.968C582.868 418.436 582.691 417.747 582.158 417.431C581.628 417.116 580.939 417.293 580.623 417.825C579.395 419.892 550.574 468.738 550.574 491.377C550.574 491.995 551.076 492.497 551.694 492.497Z" fill="#B63A37"/>
<path d="M572.532 435.888C572.766 435.888 573 435.815 573.201 435.663C577.011 432.816 586.649 430.3 586.746 430.275C587.346 430.121 587.707 429.509 587.551 428.91C587.395 428.311 586.783 427.951 586.185 428.105C585.773 428.212 576.022 430.758 571.859 433.87C571.364 434.239 571.264 434.942 571.632 435.439C571.853 435.732 572.19 435.888 572.532 435.888Z" fill="#B63A37"/>
<path d="M586.252 593.209C586.07 595.2 585.9 597.279 585.657 598.954C585.197 602.125 584.474 603.861 582.899 600.847C582.547 600.166 582.264 599.301 582.032 598.302C580.676 592.486 581.121 582.251 580.493 580.022C579.784 577.485 576.827 570.277 576.57 569.87C576.701 570.17 578.034 574.578 578.188 577.298C578.335 579.847 578.188 582.949 578.188 589.228C578.188 591.967 578.089 594.799 577.743 596.859V596.864C577.298 599.527 576.437 600.883 574.841 599.036C574.057 598.127 573.555 596.532 573.228 594.641C572.369 589.736 572.675 582.81 572.224 580.543C571.614 577.504 569.147 572.593 568.989 572.287C569.925 575.413 569.925 575.105 570.446 579.213C570.811 582.081 571.482 589.717 570.773 593.141C570.472 594.616 569.906 595.312 568.951 594.504C567.464 593.241 566.427 591.395 565.699 589.28C564.875 586.906 564.444 584.192 564.166 581.593C563.645 576.669 561.656 573.635 561.656 573.635C562.76 578.968 563.363 584.124 563.036 586.785C562.81 588.669 562.12 589.303 560.819 587.871C558.282 585.084 555.72 575.864 554.835 572.399C554.803 572.292 554.778 572.184 554.754 572.085C554.721 571.977 554.704 571.884 554.678 571.796C554.56 571.332 554.497 571.068 554.497 571.068L554.489 571.06C553.755 568.173 553.09 565.284 552.116 562.698C550.672 558.854 548.525 555.67 544.392 554.137C535.014 550.653 537.894 532.821 551.036 531.749C554.866 531.437 558.656 532.705 561.661 535.098C563.574 536.623 566.271 538.751 569.002 540.838L569.008 540.843C569.272 541.176 577.819 551.764 580.493 558.358C583.213 565.052 585.518 575.626 586.039 578.66C586.566 581.691 586.773 587.452 586.252 593.209Z" fill="#FAB893"/>
</svg>
